<?xml version="1.0" standalone="no"?>
<!DOCTYPE svg PUBLIC "-//W3C//DTD SVG 20010904//EN"
 "http://www.w3.org/TR/2001/REC-SVG-20010904/DTD/svg10.dtd">
<svg version="1.0" xmlns="http://www.w3.org/2000/svg"
 width="744.000000pt" height="744.000000pt" viewBox="0 0 744.000000 744.000000"
 preserveAspectRatio="xMidYMid meet">
<metadata>
Created by potrace 1.14, written by Peter Selinger 2001-2017
</metadata>
<g transform="translate(0.000000,744.000000) scale(0.100000,-0.100000)"
fill="#000000" stroke="none">
<path d="M1425 6413 c-199 -35 -399 -162 -497 -317 -18 -28 -36 -54 -41 -57
-5 -3 -9 -9 -8 -12 0 -4 -9 -28 -21 -53 -11 -26 -21 -52 -22 -58 -1 -6 -4 -15
-7 -21 -21 -36 -44 -325 -26 -325 5 0 5 -5 2 -10 -9 -15 -10 -224 -1 -238 4
-7 4 -12 -1 -12 -10 0 -9 -402 1 -418 4 -7 4 -12 -1 -12 -4 0 -8 -25 -8 -55 0
-30 3 -55 7 -55 4 0 5 -6 2 -14 -3 -8 -7 -90 -9 -183 -1 -92 -7 -182 -12 -198
-30 -91 -99 -181 -183 -238 -25 -17 -47 -34 -50 -38 -20 -28 -262 -117 -360
-132 -65 -10 -155 -20 -173 -19 -16 1 -17 -13 -15 -186 l3 -186 30 -3 c17 -2
41 -3 55 -4 14 0 57 -8 95 -16 39 -8 81 -17 95 -19 46 -9 205 -91 265 -137
145 -109 230 -248 250 -406 4 -30 7 -340 7 -689 1 -663 2 -684 45 -802 72
-196 262 -378 465 -444 57 -19 85 -24 163 -32 l61 -6 -2 153 c0 85 -2 159 -3
165 0 5 -22 11 -47 13 -110 5 -209 70 -255 166 -13 28 -24 52 -25 55 0 3 -4
12 -7 20 -22 52 -26 159 -27 725 -1 613 -3 679 -14 743 -3 17 -8 46 -11 63
-32 184 -201 436 -356 530 -30 19 -64 40 -75 46 -10 7 -39 23 -63 36 l-45 24
51 17 c28 9 76 32 108 51 32 19 59 35 61 35 2 0 16 10 31 23 203 168 295 336
308 564 2 43 5 353 6 688 1 679 2 683 67 795 59 102 144 155 259 162 18 1 34
7 36 13 2 5 3 78 3 160 l-1 150 -45 1 c-25 0 -54 -1 -65 -3z"/>
<path d="M5904 6259 l1 -163 40 -3 c85 -7 171 -44 217 -95 32 -36 74 -122 90
-186 9 -34 12 -233 14 -707 0 -363 4 -671 8 -685 3 -14 9 -45 12 -70 3 -25 10
-53 15 -62 6 -10 7 -18 4 -18 -10 0 53 -146 93 -215 34 -60 91 -131 149 -186
77 -73 105 -92 242 -165 40 -22 42 -24 17 -24 -92 0 -290 -158 -407 -324 -51
-71 -67 -103 -94 -182 -34 -99 -34 -116 -34 -849 -1 -375 -5 -632 -11 -665
-10 -54 -67 -190 -80 -190 -4 0 -13 -11 -20 -25 -7 -14 -17 -25 -22 -25 -5 0
-18 -8 -29 -19 -24 -22 -108 -50 -161 -53 -21 -1 -38 -7 -39 -13 -1 -5 -2 -79
-3 -164 l-1 -154 70 7 c311 27 589 273 651 576 14 67 17 186 19 770 1 366 5
674 9 685 28 74 73 149 115 193 27 29 54 52 59 52 6 0 12 4 14 8 4 11 86 65
128 84 53 25 183 67 226 74 22 3 42 8 47 11 4 2 44 7 90 9 45 3 88 7 95 9 9 3
12 50 12 190 0 141 -3 185 -12 186 -108 6 -209 22 -255 40 -16 6 -28 10 -28 9
0 -7 -69 18 -110 38 -27 15 -52 26 -55 27 -21 2 -131 89 -179 141 -48 53 -133
188 -131 209 0 3 0 6 -1 8 -24 78 -27 171 -27 747 -1 344 -3 645 -7 670 -14
110 -24 144 -62 229 -104 232 -342 402 -596 426 l-75 7 2 -163z"/>
<path d="M2768 5935 c-1 -1 -23 -5 -48 -9 -154 -20 -280 -84 -392 -198 -72
-73 -143 -199 -163 -288 -2 -8 -4 -16 -5 -17 -9 -11 -24 -128 -25 -196 -2 -90
15 -219 36 -274 6 -15 10 -30 10 -33 0 -3 19 -40 42 -83 38 -71 154 -207 177
-207 5 0 15 -6 22 -12 34 -31 160 -84 226 -94 20 -3 41 -8 45 -11 18 -11 208
-3 270 11 72 17 175 62 222 98 16 13 55 47 87 77 l58 54 0 -106 0 -107 150 0
150 0 0 148 c0 81 1 382 3 669 l2 523 -50 1 c-111 2 -228 0 -231 -4 -3 -2 -7
-39 -10 -82 -3 -43 -9 -87 -13 -97 -7 -19 -8 -19 -24 6 -45 68 -149 148 -244
189 -35 15 -63 24 -63 21 0 -2 -9 0 -20 6 -18 10 -203 23 -212 15z m221 -259
c51 -12 97 -29 122 -47 14 -10 29 -16 31 -13 10 10 124 -114 153 -167 29 -52
30 -59 33 -207 2 -84 0 -161 -4 -170 -4 -9 -8 -21 -9 -27 -9 -41 -58 -118
-100 -161 -50 -50 -131 -100 -177 -108 -13 -3 -23 -5 -23 -6 0 -10 -156 -16
-195 -7 -108 23 -169 56 -240 128 -89 88 -132 195 -134 323 -1 113 5 141 47
236 25 56 128 159 187 188 90 43 219 59 309 38z"/>
<path d="M4697 5914 c-1 -1 -26 -5 -56 -8 -63 -8 -241 -65 -241 -77 0 -5 -5
-9 -11 -9 -18 0 -99 -60 -154 -114 -55 -54 -123 -152 -144 -208 -7 -18 -17
-42 -21 -53 -41 -100 -45 -324 -9 -445 30 -100 97 -214 168 -288 181 -186 533
-254 811 -157 56 19 114 47 118 58 2 4 9 7 15 7 7 1 25 11 40 24 24 19 26 25
15 37 -7 8 -29 34 -49 59 -89 109 -96 116 -116 100 -82 -67 -234 -99 -363 -76
-147 25 -276 138 -335 291 -26 65 -31 197 -11 273 66 260 296 390 561 319 25
-7 129 -58 155 -77 l28 -20 54 67 c29 38 56 70 60 71 5 2 8 8 8 14 0 6 8 17
18 24 16 12 15 15 -10 39 -15 14 -29 25 -32 25 -3 0 -29 14 -58 31 -29 17 -57
32 -63 34 -5 1 -17 5 -25 8 -40 16 -131 37 -185 43 -61 6 -164 11 -168 8z"/>
<path d="M3005 4220 c-83 -20 -140 -48 -215 -106 -68 -53 -107 -89 -143 -132
l-27 -33 -34 74 c-19 42 -40 91 -47 111 -7 20 -15 37 -19 37 -18 5 -390 4
-391 -1 -1 -3 -2 -598 -3 -1323 l-1 -1317 247 0 248 1 0 872 c0 820 1 878 19
964 35 167 115 290 227 346 64 32 104 40 186 39 188 -4 359 -129 403 -297 5
-16 9 -34 11 -40 5 -19 14 -59 20 -100 4 -22 8 -429 9 -905 2 -476 3 -867 4
-870 0 -3 105 -6 231 -6 l230 0 0 25 c0 14 0 37 0 51 -1 14 -1 32 -1 40 1 26
1 92 -2 193 -1 53 1 97 4 97 4 0 4 17 0 38 -3 20 -4 57 -1 82 3 25 2 55 -2 67
-4 12 -3 25 2 28 5 3 7 11 4 18 -7 19 -10 247 -3 247 4 0 4 17 0 38 -3 20 -4
57 -1 82 3 25 2 55 -2 67 -4 12 -3 25 2 28 5 3 7 11 4 18 -8 22 -9 247 -1 247
5 0 5 5 2 10 -4 6 -6 41 -5 78 1 37 1 74 1 82 -3 76 4 213 14 270 15 92 65
218 101 256 6 7 21 25 35 40 138 162 442 152 602 -21 39 -42 93 -159 106 -232
17 -91 27 -347 20 -553 0 -8 0 -80 0 -160 1 -80 1 -152 0 -160 0 -8 0 -116 0
-240 0 -124 0 -232 0 -240 0 -8 0 -62 0 -120 1 -58 1 -114 1 -125 -1 -11 0
-73 0 -138 l1 -117 229 0 230 0 1 28 c0 15 0 389 1 832 0 726 -4 962 -16 1026
-6 29 -17 94 -21 125 -2 14 -17 66 -33 116 -104 313 -301 500 -591 559 -88 17
-216 23 -286 11 -181 -29 -376 -165 -492 -343 -23 -36 -43 -61 -46 -57 -3 4
-15 26 -27 48 -141 254 -503 413 -785 345z"/>
</g>
</svg>
