<svg xmlns="http://www.w3.org/2000/svg" viewBox="0 0 38.47 135.2"><defs><style>.cls-1{fill:#7175d8;opacity:1;}</style></defs><g id="Calque_2" data-name="Calque 2"><g id="Calque_1-2" data-name="Calque 1"><path class="cls-1" d="M9.13,91c0-2.16.07-4.26.21-6.32a15.14,15.14,0,0,1,1.75-6,22.58,22.58,0,0,1,2.25-3.3A28.23,28.23,0,0,1,16.43,72,18.86,18.86,0,0,1,20,69.42a7.39,7.39,0,0,1,3.58-1,4.3,4.3,0,0,1-2-.77c-.84-.51-1.45-.87-1.82-1l-1.69-1.13a9.4,9.4,0,0,1-1.54-1.26,19.47,19.47,0,0,1-4.36-5.48,19.46,19.46,0,0,1-2.59-6.87A43.81,43.81,0,0,1,9,44.36q0-3.22.07-6.52c0-2.2.07-4.38.07-6.53V18.39a13.27,13.27,0,0,0-2-7Q5.19,8.15,0,8.14V0A17.71,17.71,0,0,1,7.16,1.47,19.06,19.06,0,0,1,13,5.4a19.06,19.06,0,0,1,3.93,5.83,17.71,17.71,0,0,1,1.47,7.16V48.44a17.23,17.23,0,0,0,.56,3,14.42,14.42,0,0,0,2.53,5,17.78,17.78,0,0,0,6,4.84q4,2.17,11,2.6v9.41a29.48,29.48,0,0,0-11.09,2.17,18.24,18.24,0,0,0-6,4.14,10.75,10.75,0,0,0-2.46,4.14,16.78,16.78,0,0,0-.49,2.18v30.89A17.75,17.75,0,0,1,16.92,124,19.14,19.14,0,0,1,13,129.79a18.91,18.91,0,0,1-5.83,3.94A17.71,17.71,0,0,1,0,135.2v-8.14q4.77,0,7-3.23a12.35,12.35,0,0,0,2.18-7Z"/></g></g></svg>
