<svg xmlns="http://www.w3.org/2000/svg" viewBox="0 0 1359.04 262"><defs><style>.cls-1{fill:#5fcba1;}.cls-2{fill:#fff;}</style></defs><g id="Calque_2" data-name="Calque 2"><g id="Calque_1-2" data-name="Calque 1"><g id="Calque_2-2" data-name="Calque 2"><g id="Calque_1-2-2" data-name="Calque 1-2"><rect class="cls-1" width="262" height="262"/><path class="cls-2" d="M33.47,218.42v-34.9l82.71-52.34L33.47,74.43V39.53l113.61,82v21Z"/><path class="cls-2" d="M149.22,218.56v-27.5H262v27.5Z"/></g></g><path class="cls-2" d="M339.05,135.87,335,119.1H312.26l-3.94,16.77H289.18l23.53-78h22.4l23.53,78ZM315.41,105.7h16.44l-8.22-34.45Z"/><path class="cls-2" d="M424.49,135.87H401L378.45,75.42q1.13,8.89,1.75,15.7t.61,16.16v28.59H364.38v-78h23l23.08,60.56a183.71,183.71,0,0,1-2.48-29V57.86h16.55Z"/><path class="cls-2" d="M499.12,135.87H475.6L453.08,75.42q1.13,8.89,1.75,15.7t.62,16.16v28.59H439v-78h23l23.07,60.56a183.65,183.65,0,0,1-2.47-29V57.86h16.54Z"/><path class="cls-2" d="M561.49,57.86,559.57,71H532.11V89.72h24v12.94h-24v19.93h29.38v13.28H513.65v-78Z"/><path class="cls-2" d="M568.24,102.44V88.7h35.91v13.74Z"/><path class="cls-2" d="M661.28,58.08A36.81,36.81,0,0,1,672,64.5L663.25,75a28.92,28.92,0,0,0-6.87-4,19.2,19.2,0,0,0-7.2-1.35,14.32,14.32,0,0,0-12.44,6.64q-4.56,6.65-4.56,20.49,0,13.62,4.56,20.2a14.56,14.56,0,0,0,12.66,6.59,18.08,18.08,0,0,0,7.77-1.64,42.7,42.7,0,0,0,7.54-4.67l8.22,10.58A35.46,35.46,0,0,1,662.29,135a33.27,33.27,0,0,1-13.79,2.81,36.12,36.12,0,0,1-18.79-4.73,31.56,31.56,0,0,1-12.44-14q-4.46-9.29-4.45-22.34,0-12.72,4.56-22a32.58,32.58,0,0,1,12.61-14,35.08,35.08,0,0,1,18.29-4.79A36.87,36.87,0,0,1,661.28,58.08Z"/><path class="cls-2" d="M729,57.86,727.08,71H699.61V89.72h24v12.94h-24v19.93H729v13.28H681.15v-78Z"/><path class="cls-2" d="M783.64,58.08a36.68,36.68,0,0,1,10.75,6.42L785.61,75a28.68,28.68,0,0,0-6.86-4,19.26,19.26,0,0,0-7.21-1.35,14.32,14.32,0,0,0-12.44,6.64q-4.56,6.65-4.56,20.49,0,13.62,4.56,20.2a14.56,14.56,0,0,0,12.67,6.59,18,18,0,0,0,7.76-1.64,42.75,42.75,0,0,0,7.55-4.67l8.21,10.58A35.41,35.41,0,0,1,784.66,135a33.33,33.33,0,0,1-13.79,2.81,36.13,36.13,0,0,1-18.8-4.73,31.56,31.56,0,0,1-12.44-14q-4.46-9.29-4.45-22.34,0-12.72,4.56-22a32.58,32.58,0,0,1,12.61-14,35.08,35.08,0,0,1,18.29-4.79A36.87,36.87,0,0,1,783.64,58.08Z"/><path class="cls-2" d="M822,57.86v78H803.51v-78Z"/><path class="cls-2" d="M855,57.86v63.38h30.39l-1.91,14.63h-47v-78Z"/><path class="cls-2" d="M942.08,57.86,940.17,71H912.7V89.72h24v12.94h-24v19.93h29.38v13.28H894.24v-78Z"/><path class="cls-2" d="M1057.58,135.87h-18.12l-1.36-30.51q-.55-10.92-.56-19.47,0-6.52.34-12.38l-12.05,54.14h-17.44L995.55,73.51q.68,9.8.68,18.46,0,6.52-.34,13.62l-1.35,30.28h-18l5.85-78h23.3l11.71,52.91,10.92-52.91h23.41Z"/><path class="cls-2" d="M1116.45,57.86,1114.54,71h-27.47V89.72h24v12.94h-24v19.93h29.38v13.28h-47.84v-78Z"/><path class="cls-2" d="M1171.1,58.08a36.68,36.68,0,0,1,10.75,6.42L1173.07,75a28.68,28.68,0,0,0-6.86-4,19.26,19.26,0,0,0-7.21-1.35,14.32,14.32,0,0,0-12.44,6.64Q1142,82.86,1142,96.7q0,13.62,4.56,20.2a14.56,14.56,0,0,0,12.67,6.59,18.11,18.11,0,0,0,7.77-1.64,43.06,43.06,0,0,0,7.54-4.67l8.21,10.58a35.41,35.41,0,0,1-10.63,7.21,33.33,33.33,0,0,1-13.79,2.81,36.16,36.16,0,0,1-18.8-4.73,31.56,31.56,0,0,1-12.44-14q-4.46-9.29-4.45-22.34,0-12.72,4.56-22a32.58,32.58,0,0,1,12.61-14,35.08,35.08,0,0,1,18.29-4.79A36.87,36.87,0,0,1,1171.1,58.08Z"/><path class="cls-2" d="M1232.85,135.87V102.44h-23.42v33.43H1191v-78h18.46V88h23.42V57.86h18.46v78Z"/><path class="cls-2" d="M1284.4,57.86v78h-18.46v-78Z"/><path class="cls-2" d="M1359,135.87h-23.53L1313,75.42q1.13,8.89,1.74,15.7t.62,16.16v28.59h-16.44v-78h23L1345,118.42a182.54,182.54,0,0,1-2.48-29V57.86H1359Z"/><path class="cls-2" d="M653.11,212.48a8.56,8.56,0,0,1-1,2.52,9,9,0,0,1-1.77,2.13,8.16,8.16,0,0,1-2.4,1.47,7.76,7.76,0,0,1-2.91.54q-5.94,0-8.88-3.78t-2.94-11.76q0-7.68,3.75-11.7a13.16,13.16,0,0,1,10.11-4,22.34,22.34,0,0,1,3.48.21,16,16,0,0,1,2.76.75V177.5l-4.56-.48v-1.56a26.32,26.32,0,0,1,4-1.26q2.31-.54,4.41-.9h1.5V215l4,.48v1.26a28.14,28.14,0,0,1-3.6,1.44,20.93,20.93,0,0,1-3.66.84h-1.5l-.54-6.54Zm-6.9,2.94a6.1,6.1,0,0,0,4.68-1.86,10.25,10.25,0,0,0,2.4-5V191.6a7.09,7.09,0,0,0-2.4-.84,21.33,21.33,0,0,0-3.54-.24,6.88,6.88,0,0,0-6.24,3.57q-2.16,3.57-2.16,9.51a23.73,23.73,0,0,0,.42,4.59,12.76,12.76,0,0,0,1.32,3.75,7.38,7.38,0,0,0,2.25,2.55A5.62,5.62,0,0,0,646.21,215.42Z"/><path class="cls-2" d="M690.79,214.22a6,6,0,0,1-1.5,1.92A10.84,10.84,0,0,1,687,217.7a14,14,0,0,1-2.88,1.05,13.06,13.06,0,0,1-3.18.39,16.31,16.31,0,0,1-6.24-1.11,11.81,11.81,0,0,1-4.5-3.18,14,14,0,0,1-2.73-4.95,21,21,0,0,1-.93-6.48q0-7.68,3.54-11.7t10-4a15.31,15.31,0,0,1,4.14.57,9.33,9.33,0,0,1,6.21,5.4,13.17,13.17,0,0,1,1,5.43q0,1-.09,2.07a20.4,20.4,0,0,1-.33,2.25H672.25a17,17,0,0,0,.63,4.71,11.15,11.15,0,0,0,1.89,3.81,8.85,8.85,0,0,0,3.18,2.55,10.22,10.22,0,0,0,4.5.93,15.87,15.87,0,0,0,4.26-.6,8.15,8.15,0,0,0,3.24-1.56Zm-11-23.88a6.22,6.22,0,0,0-5.22,2.31q-1.8,2.31-2.16,8.13h13.2q.06-.54.09-1.05t0-1a11.36,11.36,0,0,0-1.44-6.12A4.94,4.94,0,0,0,679.81,190.34Zm3.54-17.94a5.5,5.5,0,0,1,1.26,0q.78.09,1.62.27a11,11,0,0,1,1.56.45,3.8,3.8,0,0,1,1.08.57v1.14l-11.22,9.06-1.32-1.08Z"/><path class="cls-2" d="M708.49,219.14l-11.7-27.72a17.83,17.83,0,0,1-3.18-1.44v-1.56h12.6v1.5q-.78.42-1.59.81a12.08,12.08,0,0,1-1.83.69l6.94,18.06,1.19,3.72H711l.9-3.78,6.39-18a10.81,10.81,0,0,1-1.77-.6A10.28,10.28,0,0,1,715,190v-1.56h10.2V190a7.7,7.7,0,0,1-1.47.78,17.05,17.05,0,0,1-2,.66l-10.62,27Z"/><path class="cls-2" d="M751.39,214.22a6,6,0,0,1-1.5,1.92,10.84,10.84,0,0,1-2.34,1.56,14,14,0,0,1-2.88,1.05,13.06,13.06,0,0,1-3.18.39,16.31,16.31,0,0,1-6.24-1.11,11.81,11.81,0,0,1-4.5-3.18A14,14,0,0,1,728,209.9a21,21,0,0,1-.93-6.48q0-7.68,3.54-11.7t10-4a15.31,15.31,0,0,1,4.14.57,9.33,9.33,0,0,1,6.21,5.4,13.17,13.17,0,0,1,1,5.43q0,1-.09,2.07a20.4,20.4,0,0,1-.33,2.25H732.85a17,17,0,0,0,.63,4.71,11.15,11.15,0,0,0,1.89,3.81,8.85,8.85,0,0,0,3.18,2.55,10.22,10.22,0,0,0,4.5.93,15.87,15.87,0,0,0,4.26-.6,8.15,8.15,0,0,0,3.24-1.56Zm-11-23.88a6.22,6.22,0,0,0-5.22,2.31q-1.8,2.31-2.16,8.13h13.2q.06-.54.09-1.05t0-1a11.36,11.36,0,0,0-1.44-6.12A4.94,4.94,0,0,0,740.41,190.34Z"/><path class="cls-2" d="M770.59,218.42H757.27v-1.5a19.73,19.73,0,0,1,4-1.44v-38l-4.56-.48v-1.56a20.34,20.34,0,0,1,3.9-1.26q2.34-.54,4.56-.9h1.5v42.18a19.73,19.73,0,0,1,4,1.44Z"/><path class="cls-2" d="M775.33,203.42a20.74,20.74,0,0,1,1-6.69,13.56,13.56,0,0,1,2.85-4.92,12.22,12.22,0,0,1,4.47-3.06,15.38,15.38,0,0,1,5.79-1.05,16.44,16.44,0,0,1,6.42,1.14,11.31,11.31,0,0,1,4.41,3.21,13.33,13.33,0,0,1,2.52,4.95,23.69,23.69,0,0,1,.81,6.42q0,7.56-3.84,11.64t-10.32,4.08a16,16,0,0,1-6.24-1.11,11.38,11.38,0,0,1-4.38-3.18,13.75,13.75,0,0,1-2.61-5A22.46,22.46,0,0,1,775.33,203.42Zm5.76,0a24.5,24.5,0,0,0,.51,5.1,12.79,12.79,0,0,0,1.62,4.17,8.1,8.1,0,0,0,2.91,2.79,8.63,8.63,0,0,0,4.32,1,6.16,6.16,0,0,0,5.31-3.18q2.07-3.18,2.07-9.9a24.38,24.38,0,0,0-.51-5.13,13.23,13.23,0,0,0-1.59-4.14,8.19,8.19,0,0,0-2.76-2.79,7.6,7.6,0,0,0-4-1,6.6,6.6,0,0,0-5.7,3.18Q781.09,196.7,781.09,203.42Z"/><path class="cls-2" d="M821.23,230.42H807.91v-1.5a21.68,21.68,0,0,1,4-1.44V191.9l-4-.48v-1.56a25.34,25.34,0,0,1,3.93-1.35q2-.51,3.93-.81h1.5v6.72h.06a12,12,0,0,1,3.36-4.89,8.43,8.43,0,0,1,5.64-1.83,10.16,10.16,0,0,1,8.28,3.54q2.94,3.54,2.94,11.52a22.15,22.15,0,0,1-1,6.84,14.57,14.57,0,0,1-2.82,5.16A12.38,12.38,0,0,1,829.3,218a14.31,14.31,0,0,1-5.79,1.14,17.46,17.46,0,0,1-3.48-.27,14.46,14.46,0,0,1-2.76-.93v9.54a9.53,9.53,0,0,1,1.92.45,10.51,10.51,0,0,1,2,1Zm3.18-39a6.1,6.1,0,0,0-4.68,1.86,10.7,10.7,0,0,0-2.46,5.1v16.8a8.49,8.49,0,0,0,2.43,1,15.23,15.23,0,0,0,3.51.33,6.47,6.47,0,0,0,3.57-1,8.53,8.53,0,0,0,2.7-2.88,15.55,15.55,0,0,0,1.71-4.35,23.44,23.44,0,0,0,.6-5.49,24.51,24.51,0,0,0-.39-4.53,11.57,11.57,0,0,0-1.26-3.6,6.34,6.34,0,0,0-2.28-2.37A6.63,6.63,0,0,0,824.41,191.42Z"/><path class="cls-2" d="M855.19,230.42H841.87v-1.5a21.68,21.68,0,0,1,4-1.44V191.9l-4-.48v-1.56a25.34,25.34,0,0,1,3.93-1.35q2-.51,3.93-.81h1.5v6.72h.06a12,12,0,0,1,3.36-4.89,8.43,8.43,0,0,1,5.64-1.83,10.16,10.16,0,0,1,8.28,3.54q2.94,3.54,2.94,11.52a22.15,22.15,0,0,1-1,6.84,14.57,14.57,0,0,1-2.82,5.16,12.38,12.38,0,0,1-4.44,3.24,14.31,14.31,0,0,1-5.79,1.14,17.46,17.46,0,0,1-3.48-.27,14.46,14.46,0,0,1-2.76-.93v9.54a9.53,9.53,0,0,1,1.92.45,10.51,10.51,0,0,1,2,1Zm3.18-39a6.1,6.1,0,0,0-4.68,1.86,10.7,10.7,0,0,0-2.46,5.1v16.8a8.49,8.49,0,0,0,2.43,1,15.23,15.23,0,0,0,3.51.33,6.47,6.47,0,0,0,3.57-1,8.53,8.53,0,0,0,2.7-2.88,15.55,15.55,0,0,0,1.71-4.35,23.44,23.44,0,0,0,.6-5.49,24.51,24.51,0,0,0-.39-4.53,11.57,11.57,0,0,0-1.26-3.6,6.34,6.34,0,0,0-2.28-2.37A6.63,6.63,0,0,0,858.37,191.42Z"/><path class="cls-2" d="M900.73,214.22a6,6,0,0,1-1.5,1.92,10.84,10.84,0,0,1-2.34,1.56,14,14,0,0,1-2.88,1.05,13.06,13.06,0,0,1-3.18.39,16.31,16.31,0,0,1-6.24-1.11,11.81,11.81,0,0,1-4.5-3.18,14,14,0,0,1-2.73-4.95,21,21,0,0,1-.93-6.48q0-7.68,3.54-11.7t10-4a15.31,15.31,0,0,1,4.14.57,9.33,9.33,0,0,1,6.21,5.4,13.17,13.17,0,0,1,1,5.43q0,1-.09,2.07a20.4,20.4,0,0,1-.33,2.25H882.19a17,17,0,0,0,.63,4.71,11.15,11.15,0,0,0,1.89,3.81,8.85,8.85,0,0,0,3.18,2.55,10.22,10.22,0,0,0,4.5.93,15.87,15.87,0,0,0,4.26-.6,8.15,8.15,0,0,0,3.24-1.56Zm-11-23.88a6.22,6.22,0,0,0-5.22,2.31q-1.8,2.31-2.16,8.13h13.2q.06-.54.09-1.05t0-1a11.36,11.36,0,0,0-1.44-6.12A4.94,4.94,0,0,0,889.75,190.34Z"/><path class="cls-2" d="M908.77,206.54q0-3.78.18-7.41t.18-7.23l-4-.48v-1.56q1.92-.72,3.93-1.26t3.93-.9h1.5q0,4.5-.18,8.94t-.18,8.82a29.45,29.45,0,0,0,.27,4.2,9.25,9.25,0,0,0,1,3.12,4.93,4.93,0,0,0,1.89,1.95,6.08,6.08,0,0,0,3.06.69,6,6,0,0,0,4.53-1.95,13.34,13.34,0,0,0,2.85-5.07V191.9l-3.9-.48v-1.56a38.09,38.09,0,0,1,3.87-1.26q2-.54,3.93-.9h1.5V215l4,.48v1.26q-1.74.78-3.51,1.38a22.1,22.1,0,0,1-3.69.9h-1.5l-.42-7.14h-.24a9.58,9.58,0,0,1-3,4.89,10.32,10.32,0,0,1-2.73,1.71,8.32,8.32,0,0,1-3.33.66,14.24,14.24,0,0,1-4.23-.57,6.66,6.66,0,0,1-3.09-2,9.62,9.62,0,0,1-1.92-3.87A24,24,0,0,1,908.77,206.54Z"/><path class="cls-2" d="M956.29,211.58a4.11,4.11,0,0,0-1-2.85,12.52,12.52,0,0,0-2.67-2.19q-1.62-1-3.45-2a21.74,21.74,0,0,1-3.45-2.25,11.73,11.73,0,0,1-2.67-3,7.67,7.67,0,0,1-1-4.14,6.18,6.18,0,0,1,.75-3,7.61,7.61,0,0,1,2-2.37,9.82,9.82,0,0,1,2.94-1.56,11.13,11.13,0,0,1,3.6-.57,32,32,0,0,1,5.31.36,25.91,25.91,0,0,1,4,1Q960.31,191,960,193a34.62,34.62,0,0,1-.93,4h-1.5l-2.28-6.12a5.66,5.66,0,0,0-1.62-.39q-.9-.09-1.86-.09a4.31,4.31,0,0,0-1.89.39,4.68,4.68,0,0,0-1.38,1,4.14,4.14,0,0,0-.87,1.38,4.32,4.32,0,0,0-.3,1.56,4,4,0,0,0,1,2.79,11.87,11.87,0,0,0,2.67,2.16q1.62,1,3.45,1.95a26.35,26.35,0,0,1,3.45,2.16,11,11,0,0,1,2.67,2.79,6.76,6.76,0,0,1,1.05,3.81,7.61,7.61,0,0,1-.87,3.66,8.33,8.33,0,0,1-2.4,2.76,11.75,11.75,0,0,1-3.54,1.77,14.27,14.27,0,0,1-4.29.63,23.27,23.27,0,0,1-4.74-.45,33.69,33.69,0,0,1-4.5-1.29,27.94,27.94,0,0,1,.54-4.17,29.76,29.76,0,0,1,1.08-3.87h1.5l2.64,6.54a3,3,0,0,0,1.59.54q.93.06,1.71.06a6.17,6.17,0,0,0,4.26-1.44A4.49,4.49,0,0,0,956.29,211.58Z"/><path class="cls-2" d="M991.33,214.22a6,6,0,0,1-1.5,1.92,10.84,10.84,0,0,1-2.34,1.56,14,14,0,0,1-2.88,1.05,13.06,13.06,0,0,1-3.18.39,16.31,16.31,0,0,1-6.24-1.11,11.81,11.81,0,0,1-4.5-3.18A14,14,0,0,1,968,209.9a21,21,0,0,1-.93-6.48q0-7.68,3.54-11.7t10-4a15.31,15.31,0,0,1,4.14.57,9.33,9.33,0,0,1,6.21,5.4,13.17,13.17,0,0,1,1,5.43q0,1-.09,2.07a20.4,20.4,0,0,1-.33,2.25H972.79a17,17,0,0,0,.63,4.71,11.15,11.15,0,0,0,1.89,3.81,8.85,8.85,0,0,0,3.18,2.55,10.22,10.22,0,0,0,4.5.93,15.87,15.87,0,0,0,4.26-.6,8.15,8.15,0,0,0,3.24-1.56Zm-11-23.88a6.22,6.22,0,0,0-5.22,2.31q-1.8,2.31-2.16,8.13h13.2q.06-.54.09-1.05t0-1a11.36,11.36,0,0,0-1.44-6.12A4.94,4.94,0,0,0,980.35,190.34Z"/><path class="cls-2" d="M1021.33,219.14l-9.42-27.72q-.84-.3-1.65-.63a8.6,8.6,0,0,1-1.53-.81v-1.56h12.6v1.5q-.84.48-1.68.87a10.62,10.62,0,0,1-1.74.63l5.11,17.52.77,4.32h.12l.9-4.44,6.48-19.8,1.8-.6,6.9,20.46,1.08,4.38h.12l.9-4.38,4.62-17.46a7.7,7.7,0,0,1-1.53-.48,10.32,10.32,0,0,1-1.77-1v-1.56h10.2V190a12,12,0,0,1-3.42,1.44l-8.52,27-3.18.72-5.94-17-1.14-5h-.18l-1.38,5-5.4,16.26Z"/><path class="cls-2" d="M1079.77,214.22a6,6,0,0,1-1.5,1.92,10.84,10.84,0,0,1-2.34,1.56,14,14,0,0,1-2.88,1.05,13.06,13.06,0,0,1-3.18.39,16.31,16.31,0,0,1-6.24-1.11,11.81,11.81,0,0,1-4.5-3.18,14,14,0,0,1-2.73-4.95,21,21,0,0,1-.93-6.48q0-7.68,3.54-11.7t10-4a15.31,15.31,0,0,1,4.14.57,9.33,9.33,0,0,1,6.21,5.4,13.17,13.17,0,0,1,1,5.43q0,1-.09,2.07a20.4,20.4,0,0,1-.33,2.25h-18.72a17,17,0,0,0,.63,4.71,11.15,11.15,0,0,0,1.89,3.81,8.85,8.85,0,0,0,3.18,2.55,10.22,10.22,0,0,0,4.5.93,15.87,15.87,0,0,0,4.26-.6,8.15,8.15,0,0,0,3.24-1.56Zm-11-23.88a6.22,6.22,0,0,0-5.22,2.31q-1.8,2.31-2.16,8.13h13.2q.06-.54.09-1.05t0-1a11.36,11.36,0,0,0-1.44-6.12A4.94,4.94,0,0,0,1068.79,190.34Z"/><path class="cls-2" d="M1087.81,177.5l-4.56-.48v-1.56a22.75,22.75,0,0,1,4.17-1.26l4.29-.9h1.5v21.06h.12a9.68,9.68,0,0,1,3.45-4.86,8.82,8.82,0,0,1,5.37-1.8q5.46,0,8.37,3.72t2.91,11.46q0,7.92-4,12T1098,219a21.61,21.61,0,0,1-3-.21q-1.5-.21-2.88-.51a17.64,17.64,0,0,1-2.49-.72,9.87,9.87,0,0,1-1.77-.84Zm12.72,13.92a6.08,6.08,0,0,0-4.68,2,11.88,11.88,0,0,0-2.64,4.95v16.74a9.47,9.47,0,0,0,2.64.93,15.92,15.92,0,0,0,3.3.33,7.11,7.11,0,0,0,6.24-3.45q2.28-3.45,2.28-10a24.29,24.29,0,0,0-.39-4.44,12,12,0,0,0-1.26-3.66,7,7,0,0,0-2.22-2.46A5.76,5.76,0,0,0,1100.53,191.42Z"/><path class="cls-2" d="M1148.83,173.3q.54,0,1.26.06l1.5.15q.78.09,1.5.24a11.33,11.33,0,0,1,1.26.33q-.18,2-.51,3.69a22.29,22.29,0,0,1-.81,3.09h-1.5l-2.64-5.16a10.68,10.68,0,0,0-3,.36,4,4,0,0,0-2,1.38,6.93,6.93,0,0,0-1.2,2.94,26.25,26.25,0,0,0-.39,5v3h6.9v3.12h-6.9v24a21.72,21.72,0,0,1,5.76,1.44v1.49h-15.12v-1.49a11.8,11.8,0,0,1,4-1.44v-24h-4.56v-1.61a16.47,16.47,0,0,1,4.56-2.05v-2.1a17.91,17.91,0,0,1,.9-6.15,9.2,9.2,0,0,1,2.52-3.84,9,9,0,0,1,3.81-1.95A19.63,19.63,0,0,1,1148.83,173.3Z"/><path class="cls-2" d="M1155.61,206.54q0-3.78.18-7.41t.18-7.23l-4-.48v-1.56c1.29-.48,2.59-.9,3.94-1.26s2.64-.66,3.93-.9h1.5q0,4.5-.18,8.94c-.12,3-.19,5.9-.19,8.82a29.35,29.35,0,0,0,.28,4.2,9.25,9.25,0,0,0,1,3.12,4.9,4.9,0,0,0,1.88,1.95,6.12,6.12,0,0,0,3.07.69,6,6,0,0,0,4.53-1.95,13.61,13.61,0,0,0,2.85-5.07V191.9l-3.9-.48v-1.56a36.53,36.53,0,0,1,3.87-1.26c1.34-.36,2.64-.66,3.93-.9h1.5V215l4,.48v1.26q-1.76.78-3.51,1.38a22.34,22.34,0,0,1-3.69.9h-1.5l-.42-7.14h-.24a10.12,10.12,0,0,1-1,2.55,9.57,9.57,0,0,1-2,2.34,10.38,10.38,0,0,1-2.74,1.71,8.25,8.25,0,0,1-3.33.66,14.22,14.22,0,0,1-4.22-.57,6.61,6.61,0,0,1-3.09-2,9.62,9.62,0,0,1-1.92-3.87A24,24,0,0,1,1155.61,206.54Z"/><path class="cls-2" d="M1201.21,218.42h-13.33v-1.5a20,20,0,0,1,4-1.44v-38l-4.55-.48v-1.56a20,20,0,0,1,3.89-1.26c1.57-.36,3.08-.66,4.57-.9h1.5v42.18a20.18,20.18,0,0,1,4,1.44Z"/><path class="cls-2" d="M1219.26,218.42h-13.32v-1.5a19.73,19.73,0,0,1,4-1.44v-38l-4.56-.48v-1.56a20.34,20.34,0,0,1,3.9-1.26q2.34-.54,4.56-.9h1.5v42.18a19.73,19.73,0,0,1,4,1.44Z"/><path class="cls-2" d="M1239.24,211.58a4.11,4.11,0,0,0-1-2.85,12.52,12.52,0,0,0-2.67-2.19q-1.62-1-3.45-2a21.74,21.74,0,0,1-3.45-2.25,11.73,11.73,0,0,1-2.67-3,7.67,7.67,0,0,1-1-4.14,6.18,6.18,0,0,1,.75-3,7.61,7.61,0,0,1,2-2.37,9.82,9.82,0,0,1,2.94-1.56,11.13,11.13,0,0,1,3.6-.57,32,32,0,0,1,5.31.36,25.91,25.91,0,0,1,4,1q-.24,1.92-.57,3.87a34.62,34.62,0,0,1-.93,4h-1.5l-2.28-6.12a5.66,5.66,0,0,0-1.62-.39q-.9-.09-1.86-.09a4.31,4.31,0,0,0-1.89.39,4.68,4.68,0,0,0-1.38,1,4.14,4.14,0,0,0-.87,1.38,4.32,4.32,0,0,0-.3,1.56,4,4,0,0,0,1,2.79,11.87,11.87,0,0,0,2.67,2.16q1.62,1,3.45,1.95a26.35,26.35,0,0,1,3.45,2.16,11,11,0,0,1,2.67,2.79,6.76,6.76,0,0,1,1.05,3.81,7.61,7.61,0,0,1-.87,3.66,8.33,8.33,0,0,1-2.4,2.76,11.75,11.75,0,0,1-3.54,1.77,14.27,14.27,0,0,1-4.29.63,23.27,23.27,0,0,1-4.74-.45,33.69,33.69,0,0,1-4.5-1.29,27.94,27.94,0,0,1,.54-4.17,29.76,29.76,0,0,1,1.08-3.87h1.5l2.64,6.54a3,3,0,0,0,1.59.54q.93.06,1.71.06a6.17,6.17,0,0,0,4.26-1.44A4.49,4.49,0,0,0,1239.24,211.58Z"/><path class="cls-2" d="M1248.42,189.93a15.5,15.5,0,0,1,4.8-2.11v-5.1a13.81,13.81,0,0,1,1.83-1.17,21.52,21.52,0,0,1,2.07-1h1.5v7.86h9v3.12h-9v17.31q0,3.59,1.14,5.08a4,4,0,0,0,3.42,1.49q1.08,0,2.7-.15a11,11,0,0,0,2.76-.57l.42.9a7.54,7.54,0,0,1-1.35,1.14,15.2,15.2,0,0,1-2,1.14,13.91,13.91,0,0,1-2.43.9,10.22,10.22,0,0,1-2.7.36,7.15,7.15,0,0,1-5.49-2c-1.26-1.35-1.89-3.55-1.89-6.57v-19h-4.8Z"/><path class="cls-2" d="M1294.38,210.56q0,1.32.06,2.28t.12,2l4.14.6v1.26a22.21,22.21,0,0,1-3.33,1.38,25.92,25.92,0,0,1-3.51.9h-1.5a9.22,9.22,0,0,1-.72-3q-.12-1.65-.18-3.63h-.3a8.31,8.31,0,0,1-.93,2.43,8.16,8.16,0,0,1-1.8,2.19,9,9,0,0,1-6,2.16,8.26,8.26,0,0,1-6-2.22,7.7,7.7,0,0,1-2.31-5.82,8.4,8.4,0,0,1,1.11-4.53,7.53,7.53,0,0,1,3.27-2.79,18.7,18.7,0,0,1,5.34-1.47q3.18-.45,7.38-.69a34.47,34.47,0,0,0,.15-4.65,11.16,11.16,0,0,0-.66-3.54,5,5,0,0,0-1.68-2.28,4.82,4.82,0,0,0-2.91-.81q-.84,0-1.89.09a7,7,0,0,0-2.07.51l-2.82,7.2h-1.56q-.6-1.8-1-3.72a23.06,23.06,0,0,1-.57-3.78,20.28,20.28,0,0,1,5.07-2.16,23,23,0,0,1,6.21-.78,11.51,11.51,0,0,1,4.89.87,6.91,6.91,0,0,1,2.79,2.25,7.65,7.65,0,0,1,1.26,3.06,19.08,19.08,0,0,1,.3,3.36q0,3.6-.15,6.93T1294.38,210.56Zm-11.58,4.86a5.59,5.59,0,0,0,2.64-.6,7.1,7.1,0,0,0,1.92-1.44,8.72,8.72,0,0,0,1.26-1.71,7.88,7.88,0,0,0,.66-1.47v-6.3a36.8,36.8,0,0,0-5.7.36,9.59,9.59,0,0,0-3.48,1.14,4.16,4.16,0,0,0-1.74,1.95,7,7,0,0,0-.48,2.67,5.62,5.62,0,0,0,1.32,4A4.69,4.69,0,0,0,1282.8,215.42Z"/><path class="cls-2" d="M1325.7,214.22a8.7,8.7,0,0,1-3.51,3.51,11.09,11.09,0,0,1-5.67,1.41,15.64,15.64,0,0,1-6.15-1.11,11.43,11.43,0,0,1-4.35-3.18,13.75,13.75,0,0,1-2.61-5,22.46,22.46,0,0,1-.87-6.45q0-7.62,3.72-11.67t10.14-4.05a24.47,24.47,0,0,1,5.25.51,16.1,16.1,0,0,1,3.93,1.35,44.43,44.43,0,0,1-.66,4.44,19.27,19.27,0,0,1-1.2,4.08h-1.62l-2.52-7.14a3,3,0,0,0-1-.45,7.53,7.53,0,0,0-1.8-.15,7.4,7.4,0,0,0-6.3,3q-2.22,3-2.22,10.05a15.78,15.78,0,0,0,.63,4.44,11.89,11.89,0,0,0,1.92,3.87,9.54,9.54,0,0,0,3.24,2.73,9.64,9.64,0,0,0,4.53,1,10.17,10.17,0,0,0,3.66-.6,10.29,10.29,0,0,0,2.64-1.44Z"/><path class="cls-2" d="M1346,188.42h11.58V190q-1.14.48-2.25.84a20.54,20.54,0,0,1-2.31.6q-.9,1.2-2.07,2.58t-2.37,2.76q-1.2,1.38-2.31,2.58t-1.89,2l2.19,2.91q1.29,1.71,2.79,3.63t3.09,3.9q1.59,2,3.15,3.72l3.36,1.44v1.5h-7.44l-1.62-1.44q-3.18-4-5.28-7t-3.84-5.79l-2-.6v11.94a12.49,12.49,0,0,1,3.9,1.44v1.5h-13.26v-1.5a19.73,19.73,0,0,1,4-1.44v-38l-4.56-.48v-1.56a18.33,18.33,0,0,1,4-1.26l4.44-.9h1.5V202h1.56q1-1.08,2.1-2.4t2.28-2.73q1.14-1.41,2.22-2.79t2-2.64A9.54,9.54,0,0,1,1346,190Z"/><polygon class="cls-1" points="1101.82 28.25 1108.46 41.54 1081.44 51.33 1076.94 42.32 1101.82 28.25"/><polygon class="cls-1" points="714.19 27.99 720.83 41.27 693.81 51.07 689.31 42.06 714.19 27.99"/></g></g></svg>