<svg xmlns="http://www.w3.org/2000/svg" viewBox="0 0 807.08 262">
  <defs>
    <style>.cls-1{fill:#5fcba1;}.cls-2{fill:#fff;}</style>
  </defs>
  <g id="Calque_2" data-name="Calque 2">
    <g id="Calque_1-2" data-name="Calque 1">
      <g id="Calque_2-2" data-name="Calque 2">
        <g id="Calque_1-2-2" data-name="Calque 1-2">
          <g id="Calque_2-2-2" data-name="Calque 2-2">
            <g id="Calque_1-2-2-2" data-name="Calque 1-2-2">
              <rect class="cls-1" width="262" height="262" rx="22.13"/>
              <path class="cls-2" d="M33.47,218.42v-34.9l82.71-52.34L33.47,74.43V39.53l113.61,82v21Z"/>
              <path class="cls-2" d="M149.22,218.56v-27.5H262v27.5Z"/>
            </g>
          </g>
          <path class="cls-2" d="M347.21,96.26l-3.09-12.79H326.78l-3,12.79h-14.6l17.94-59.48h17.09l17.94,59.48Zm-18-23h12.54L335.45,47Z"/>
          <path class="cls-2" d="M412.37,96.26H394.45l-17.19-46.1q.86,6.78,1.33,12t.47,12.33v21.8H366.53V36.78h17.54L401.67,83a139,139,0,0,1-1.89-22.12V36.77H412.4Z"/>
          <path class="cls-2" d="M469.28,96.26H451.34l-17.17-46.1q.85,6.78,1.33,12T436,74.46v21.8H423.43V36.78H441L458.57,83a139,139,0,0,1-1.89-22.12V36.77h12.61Z"/>
          <path class="cls-2" d="M516.84,36.77l-1.46,10H494.44V61.07h18.3v9.86h-18.3v15.2h22.4V96.26H480.36V36.78Z"/>
          <path class="cls-2" d="M522,70.77V60.29h27.39V70.77Z"/>
          <path class="cls-2" d="M592.94,36.94a28.09,28.09,0,0,1,8.18,4.89l-6.68,8a22.09,22.09,0,0,0-5.23-3.05,14.78,14.78,0,0,0-5.49-1,10.93,10.93,0,0,0-9.49,5.06q-3.48,5.07-3.48,15.63,0,10.38,3.48,15.4a11.11,11.11,0,0,0,9.65,5,13.77,13.77,0,0,0,5.93-1.25,33.38,33.38,0,0,0,5.75-3.56l6.27,8.07a27.3,27.3,0,0,1-8.12,5.46,25.51,25.51,0,0,1-10.51,2.14,27.54,27.54,0,0,1-14.33-3.61,24.11,24.11,0,0,1-9.49-10.67,38.94,38.94,0,0,1-3.39-17,37.79,37.79,0,0,1,3.47-16.78A24.82,24.82,0,0,1,569.08,39,26.7,26.7,0,0,1,583,35.31,27.9,27.9,0,0,1,592.94,36.94Z"/>
          <path class="cls-2" d="M644.59,36.77l-1.47,10h-21V61.07h18.31v9.86H622.17v15.2h22.42V96.26H608.1V36.78Z"/>
          <path class="cls-2" d="M686.25,36.94a27.85,27.85,0,0,1,8.2,4.89l-6.69,8a22.15,22.15,0,0,0-5.24-3.05,14.74,14.74,0,0,0-5.49-1,10.93,10.93,0,0,0-9.49,5.06q-3.48,5.07-3.48,15.63,0,10.38,3.48,15.4a11.09,11.09,0,0,0,9.66,5,13.75,13.75,0,0,0,5.92-1.25,33.08,33.08,0,0,0,5.76-3.56l6.26,8.07A27.38,27.38,0,0,1,687,95.6a25.51,25.51,0,0,1-10.51,2.14,27.58,27.58,0,0,1-14.34-3.61,24.11,24.11,0,0,1-9.49-10.67,38.94,38.94,0,0,1-3.39-17,37.65,37.65,0,0,1,3.48-16.78A24.8,24.8,0,0,1,662.39,39a26.7,26.7,0,0,1,14-3.66A27.87,27.87,0,0,1,686.25,36.94Z"/>
          <path class="cls-2" d="M715.51,36.77V96.25h-14.1V36.77Z"/>
          <path class="cls-2" d="M740.67,36.77V85.1h23.18l-1.46,11.16H726.55V36.78Z"/>
          <path class="cls-2" d="M807.08,36.77l-1.46,10h-21V61.07H803v9.86H784.67v15.2h22.41V96.26H770.6V36.78Z"/>
          <path class="cls-2" d="M413.81,232H390.42l-1.76-39.4q-.71-14.1-.72-25.13c0-5.62.14-10.94.44-16l-15.56,69.9H350.3l-16.58-69.9q.88,12.66.88,23.84,0,8.41-.44,17.58L332.42,232H309.18l7.55-100.71h30.09l15.11,68.31L376,131.33h30.23Z"/>
          <path class="cls-2" d="M489.82,131.32l-2.47,17H451.89v24.17h31v16.71h-31v25.73h37.93V232H428.05V131.33Z"/>
          <path class="cls-2" d="M560.38,131.6a47.39,47.39,0,0,1,13.88,8.29l-11.34,13.56a36.76,36.76,0,0,0-8.86-5.17,24.88,24.88,0,0,0-9.3-1.74,18.49,18.49,0,0,0-16.07,8.57q-5.88,8.49-5.88,26.35,0,17.6,5.88,26.08a18.81,18.81,0,0,0,16.36,8.51,23.27,23.27,0,0,0,10-2.12,55.47,55.47,0,0,0,9.74-6l10.6,13.66a45.64,45.64,0,0,1-13.72,9.31,43,43,0,0,1-17.81,3.63,46.64,46.64,0,0,1-24.27-6.11,40.72,40.72,0,0,1-16.06-18.07q-5.76-12-5.75-28.84,0-16.42,5.89-28.41A42,42,0,0,1,520,135a45.21,45.21,0,0,1,23.61-6.19A47.75,47.75,0,0,1,560.38,131.6Z"/>
          <path class="cls-2" d="M640.1,232V188.87H609.87V232h-23.8V131.33H609.9v38.9h30.24V131.32H664V232Z"/>
          <path class="cls-2" d="M706.66,131.32V232H682.83V131.32Z"/>
          <path class="cls-2" d="M803,232H772.6l-29-78q1.45,11.47,2.24,20.27t.8,20.86V232H725.41V131.33H755.1l29.8,78.18a236.16,236.16,0,0,1-3.2-37.45V131.32H803Z"/>
          <polygon class="cls-1" points="470.93 93.09 479.5 110.25 444.62 122.89 438.81 111.25 470.93 93.09"/>
          <polygon class="cls-1" points="633.29 13.99 638.36 24.12 617.75 31.59 614.32 24.72 633.29 13.99"/>
        </g>
      </g>
    </g>
  </g>
</svg>
