<svg xmlns="http://www.w3.org/2000/svg" viewBox="0 0 186.44 135.2"><defs><style>.cls-1{fill:#5fcba1;}.cls-2{fill:#fff;}</style></defs><g id="Calque_2" data-name="Calque 2"><g id="Calque_1-2" data-name="Calque 1"><path class="cls-1" d="M29.34,44.08q0,3.24-.21,6.39a15.22,15.22,0,0,1-1.75,6.11A20.26,20.26,0,0,1,22.11,63a20.27,20.27,0,0,1-7.23,3.79,3.69,3.69,0,0,1,2,.77,9.9,9.9,0,0,0,1.82,1.05c.56.38,1.13.73,1.69,1.06A7.3,7.3,0,0,1,21.9,70.9a24.72,24.72,0,0,1,4.35,5.47,19.84,19.84,0,0,1,2.46,6.32,35.19,35.19,0,0,1,.63,6.74v27.38a13.3,13.3,0,0,0,2,7c1.31,2.15,3.69,3.23,7.16,3.23v8.14a17.68,17.68,0,0,1-7.16-1.47A18.49,18.49,0,0,1,21.55,124a17.75,17.75,0,0,1-1.47-7.16v-30a18.16,18.16,0,0,0-.57-3.09,13.12,13.12,0,0,0-2.59-5,20,20,0,0,0-6-4.84Q6.88,71.6,0,71.18V61.91A30.65,30.65,0,0,0,11,59.6a20,20,0,0,0,6-4.07,9.84,9.84,0,0,0,2.52-4.08,17.47,17.47,0,0,0,.5-2.17V18.39a17.71,17.71,0,0,1,1.47-7.16A18.71,18.71,0,0,1,25.48,5.4a19.06,19.06,0,0,1,5.83-3.93A17.68,17.68,0,0,1,38.47,0V8.14q-4.77,0-6.95,3.23a12.33,12.33,0,0,0-2.18,7Z"/><path class="cls-1" d="M157.09,91c0-2.16.07-4.26.21-6.32a15.16,15.16,0,0,1,1.76-6,22.58,22.58,0,0,1,2.25-3.3,29,29,0,0,1,3.08-3.3,19.52,19.52,0,0,1,3.58-2.6,7.45,7.45,0,0,1,3.58-1,4.27,4.27,0,0,1-2-.77c-.84-.51-1.45-.87-1.83-1l-1.68-1.13a9.92,9.92,0,0,1-1.55-1.26,19.61,19.61,0,0,1-4.35-5.48,19.46,19.46,0,0,1-2.59-6.87,42.81,42.81,0,0,1-.64-7.45c0-2.15,0-4.32.07-6.52s.07-4.38.07-6.53V18.39a13.26,13.26,0,0,0-2-7q-2-3.22-7.16-3.23V0a17.71,17.71,0,0,1,7.16,1.47A19,19,0,0,1,161,5.4a18.91,18.91,0,0,1,3.94,5.83,17.71,17.71,0,0,1,1.47,7.16V48.44a17.23,17.23,0,0,0,.56,3,14.25,14.25,0,0,0,2.53,5,17.78,17.78,0,0,0,6,4.84q4,2.17,11,2.6v9.41a29.44,29.44,0,0,0-11.09,2.17,18.24,18.24,0,0,0-6,4.14,10.75,10.75,0,0,0-2.46,4.14,16.78,16.78,0,0,0-.49,2.18v30.89a17.75,17.75,0,0,1-1.47,7.16,18.58,18.58,0,0,1-9.76,9.76A17.71,17.71,0,0,1,148,135.2v-8.14q4.77,0,6.95-3.23a12.34,12.34,0,0,0,2.17-7Z"/><path class="cls-2" d="M70.47,47.9a18.12,18.12,0,0,1-8.56-2,15.06,15.06,0,0,1-6.12-6,18.92,18.92,0,0,1-2.28-9.62,19.06,19.06,0,0,1,2.36-9.73,16.24,16.24,0,0,1,6.33-6.25,17.68,17.68,0,0,1,8.68-2.19,14.23,14.23,0,0,1,8,2.15,14.52,14.52,0,0,1,4.91,5.07l-.49,1.22L84,13.5h7V47.09H83.46V38.33l.89,1.94a10.56,10.56,0,0,1-1.54,2.07,20.31,20.31,0,0,1-2.88,2.56,16.2,16.2,0,0,1-4.1,2.15A15.66,15.66,0,0,1,70.47,47.9Zm2-6.25a12,12,0,0,0,5.11-1,10.11,10.11,0,0,0,3.78-3,11.35,11.35,0,0,0,2.07-4.55V26.48a10.48,10.48,0,0,0-2.28-4.26,11.34,11.34,0,0,0-3.89-2.84,12,12,0,0,0-5-1,10.92,10.92,0,0,0-9.62,5.52A12,12,0,0,0,61.22,30a11.72,11.72,0,0,0,1.54,5.92,11.48,11.48,0,0,0,4.14,4.22A10.76,10.76,0,0,0,72.5,41.65Z"/><path class="cls-2" d="M131.33,43.92a17,17,0,0,1-5.44,2.93,20,20,0,0,1-6.33,1A20.39,20.39,0,0,1,110,45.71a16.06,16.06,0,0,1-6.53-6.17,18,18,0,0,1-2.36-9.33,16.84,16.84,0,0,1,2.52-9.29,17.42,17.42,0,0,1,6.53-6.09,18.25,18.25,0,0,1,8.72-2.15,22.09,22.09,0,0,1,7.18,1.1,16.68,16.68,0,0,1,5.56,3.12l-3.81,4.87a17.53,17.53,0,0,0-3.53-2,11.87,11.87,0,0,0-4.75-.93,10.38,10.38,0,0,0-5.48,1.5,10.83,10.83,0,0,0-3.89,4.06,11.7,11.7,0,0,0-1.42,5.8A11.58,11.58,0,0,0,110.15,36a11,11,0,0,0,4.06,4.14,12,12,0,0,0,13.22-.89Z"/><path class="cls-2" d="M65.64,122.38H53.26V56.18h9.83l2.55,5.67a23.88,23.88,0,0,1,5.49-5.05,13.66,13.66,0,0,1,7.79-2.14,19.34,19.34,0,0,1,4,.48,20.35,20.35,0,0,1,4.6,1.66A20.07,20.07,0,0,1,92.07,60a17.05,17.05,0,0,1,3.7,5.18,20.29,20.29,0,0,1,6.58-7.39,16,16,0,0,1,9.38-3.11,24.48,24.48,0,0,1,7,1.11,17.07,17.07,0,0,1,6.9,4.14,22.51,22.51,0,0,1,5.23,8.43q2,5.4,2,14v40.08H121.31V82.16q0-8.56-3.26-12a11.39,11.39,0,0,0-8.62-3.39,9.09,9.09,0,0,0-7.15,3.73q-3.06,3.74-3.06,11.75v40.08H87.6V82.16q0-8.56-3.25-12a11.41,11.41,0,0,0-8.62-3.39A8.76,8.76,0,0,0,69,70q-2.88,3.18-3.39,10Z"/></g></g></svg>