<svg id="Calque_1" data-name="Calque 1" xmlns="http://www.w3.org/2000/svg" xmlns:xlink="http://www.w3.org/1999/xlink" viewBox="0 0 434.25 293.87"><defs><style>.cls-1{fill:#fff;}.cls-2{fill:#ecf1ff;}.cls-3{fill:#5d74fc;}.cls-4{fill:#ffdb37;}.cls-5{fill:#7076db;}.cls-6{fill:#d6dcfd;}.cls-12,.cls-14,.cls-16,.cls-20,.cls-21,.cls-7{fill:none;}.cls-7{stroke:#d6dcfd;stroke-width:0.96px;}.cls-14,.cls-21,.cls-7{stroke-miterlimit:10;}.cls-8,.cls-9{fill:#ff6462;}.cls-9{font-size:10.15px;font-family:Montserrat-Black, Montserrat;font-weight:800;}.cls-10{letter-spacing:0.01em;}.cls-11{letter-spacing:-0.01em;}.cls-12,.cls-16{stroke:#fff;}.cls-12,.cls-16,.cls-20{stroke-linecap:round;stroke-linejoin:round;}.cls-12{stroke-width:0.99px;}.cls-13{fill:#fd5100;}.cls-14,.cls-20{stroke:#000;}.cls-14{stroke-width:0.97px;}.cls-15{fill:#faa67c;}.cls-16{stroke-width:1.17px;}.cls-17{fill:#7b94de;}.cls-18{clip-path:url(#clip-path);}.cls-19{fill:#f2cd31;}.cls-20{stroke-width:0.41px;}.cls-21{stroke:#000402;stroke-width:0.74px;}</style><clipPath id="clip-path" transform="translate(-22.75 -39.71)"><path class="cls-1" d="M314.78,104.1c2.54.12,5,4.38.5,4.13C315.28,108.23,312.78,106.18,314.78,104.1Z"/></clipPath></defs><path class="cls-2" d="M396.46,288.47c10.28,10-5.63,25.88-15.6,15.6C370.58,294.1,386.49,278.19,396.46,288.47Z" transform="translate(-22.75 -39.71)"/><path class="cls-2" d="M106.05,134.16c51.72,16.62,28.31,93.94-23.94,79.09C30.4,196.63,53.81,119.31,106.05,134.16Z" transform="translate(-22.75 -39.71)"/><path class="cls-3" d="M47.43,236.28c.08,5-7.8,5-7.73,0S47.51,231.27,47.43,236.28Z" transform="translate(-22.75 -39.71)"/><path class="cls-4" d="M447.14,200.32c.09,5.88-9.14,5.88-9.06,0C438,194.44,447.23,194.44,447.14,200.32Z" transform="translate(-22.75 -39.71)"/><path class="cls-3" d="M249.73,43.88c.09,5.54-8.63,5.54-8.55,0C241.1,38.33,249.82,38.33,249.73,43.88Z" transform="translate(-22.75 -39.71)"/><path class="cls-2" d="M158.1,296.68c.18,12.58-19.58,12.58-19.4,0C138.52,284.1,158.28,284.1,158.1,296.68Z" transform="translate(-22.75 -39.71)"/><path class="cls-2" d="M431.22,80.81c-.83,48.69-73.24,48.68-74.06,0C358,32.13,430.4,32.14,431.22,80.81Z" transform="translate(-22.75 -39.71)"/><polygon class="cls-5" points="78.19 243.55 44.92 238.6 57.25 271.16 78.19 243.55"/><path class="cls-6" d="M391.77,242.54V92.37a24.9,24.9,0,0,0-24.9-24.9H110.16a24.9,24.9,0,0,0-24.9,24.9V242.54a24.9,24.9,0,0,0,24.9,24.9H366.87A24.9,24.9,0,0,0,391.77,242.54Z" transform="translate(-22.75 -39.71)"/><rect class="cls-1" x="71.63" y="35.36" width="289.84" height="184.75" rx="17.14"/><rect class="cls-7" x="92.43" y="58.73" width="125.92" height="133.9" rx="9.5"/><rect class="cls-7" x="229" y="58.73" width="118.15" height="76.89" rx="9.5"/><rect class="cls-7" x="229" y="146.34" width="118.15" height="46.17" rx="9.5"/><path class="cls-8" d="M221,211.48H135.16a3.93,3.93,0,0,1-3.93-3.93V190.3c-4.68-8.49,88.24-2,89.74-3.93a3.93,3.93,0,0,1,3.93,3.93v17.25A3.93,3.93,0,0,1,221,211.48Z" transform="translate(-22.75 -39.71)"/><text class="cls-9" transform="translate(127.5 162.52)">S<tspan class="cls-10" x="6.67" y="0">h</tspan><tspan x="13.89" y="0">op </tspan><tspan class="cls-10" x="30.91" y="0">n</tspan><tspan class="cls-11" x="38.14" y="0">o</tspan><tspan x="44.86" y="0">w</tspan></text><rect class="cls-5" x="108.48" y="70.56" width="93.67" height="66.36" rx="5.13"/><path class="cls-1" d="M191.89,134.65h-5.8c2.58-18.38-21-18.28-18.24,0-.68.37-6.85-.85-6.63.83v20c-.26,11.41,16.51,7.55,23.34,8.16a8.17,8.17,0,0,0,8.16-8.16C192.24,155,193.75,133.9,191.89,134.65ZM169.51,130c1.73-12.22,17.37-8.86,14.92,4.67H169.51Zm21.55,25.52c.18,9.81-16,5.7-21.67,6.5a6.51,6.51,0,0,1-6.51-6.5V136.31h5v5.95A2.5,2.5,0,0,0,168,147c3.09.87,4.4-3.77,1.5-4.73v-5.95h14.92v5.95a2.5,2.5,0,0,0,.15,4.73c3.09.87,4.41-3.76,1.51-4.73v-5.95h5V155.5Z" transform="translate(-22.75 -39.71)"/><path class="cls-4" d="M230.69,112.8c.19,12.61-19.63,12.61-19.44,0C211.06,100.18,230.88,100.18,230.69,112.8Z" transform="translate(-22.75 -39.71)"/><polyline class="cls-12" points="194.24 73.17 197.88 75.83 202.21 70.33"/><path class="cls-13" d="M133.85,85.06c.06,4.65-7.23,4.65-7.16,0S133.91,80.42,133.85,85.06Z" transform="translate(-22.75 -39.71)"/><path class="cls-4" d="M147.76,85.06c.07,4.65-7.23,4.65-7.16,0S147.83,80.42,147.76,85.06Z" transform="translate(-22.75 -39.71)"/><path class="cls-5" d="M161.68,85.06c.06,4.65-7.23,4.65-7.16,0S161.74,80.42,161.68,85.06Z" transform="translate(-22.75 -39.71)"/><path class="cls-3" d="M430.54,156.09H408.6a5.3,5.3,0,0,1-5.3-5.3h0a5.3,5.3,0,0,1,5.3-5.3h21.94a5.3,5.3,0,0,1,5.3,5.3h0A5.3,5.3,0,0,1,430.54,156.09Z" transform="translate(-22.75 -39.71)"/><path class="cls-1" d="M415.11,150.8a1.36,1.36,0,0,1-2.71,0A1.36,1.36,0,0,1,415.11,150.8Z" transform="translate(-22.75 -39.71)"/><path class="cls-1" d="M420.93,150.78a1.36,1.36,0,0,1-2.72,0A1.36,1.36,0,0,1,420.93,150.78Z" transform="translate(-22.75 -39.71)"/><path class="cls-1" d="M426.74,150.77a1.36,1.36,0,0,1-2.71,0A1.36,1.36,0,0,1,426.74,150.77Z" transform="translate(-22.75 -39.71)"/><path class="cls-5" d="M248.2,325c.16,10.65-16.57,10.65-16.41,0C231.63,314.38,248.36,314.38,248.2,325Z" transform="translate(-22.75 -39.71)"/><path class="cls-5" d="M199.75,325c.15,10.65-16.57,10.65-16.41,0C183.18,314.38,199.91,314.38,199.75,325Z" transform="translate(-22.75 -39.71)"/><path class="cls-14" d="M314,191.88c-6.78,2.42-25.35,1.58-26.75,11.37L270.59,273h-93.4a13.1,13.1,0,0,1-12.53-9.32l-9.32-40.71L285,212.7" transform="translate(-22.75 -39.71)"/><path class="cls-14" d="M161.3,248.94l116.64-6.82c-21.76,95.92-12.21,71.5-103.67,74.71" transform="translate(-22.75 -39.71)"/><line class="cls-14" x1="234.34" y1="175.19" x2="223.09" y2="233.24"/><line class="cls-14" x1="160.59" y1="181" x2="166.85" y2="233.24"/><line class="cls-14" x1="196.87" y1="178.14" x2="196.87" y2="233.24"/><polygon class="cls-15" points="389.18 225.47 396.17 213.79 422.88 223.16 416.74 233.58 389.18 225.47"/><path d="M440.91,268.31c-1.84,3.64-8.27-1.94-8.63,3.43.3,4.13,1.11,14.17-.52,22.74a6.48,6.48,0,0,0,2.41,6.2L455.06,265l-11.46-3.81a2.44,2.44,0,0,0-3.38.16h0C437.77,263.74,442.76,265.78,440.91,268.31Z" transform="translate(-22.75 -39.71)"/><path class="cls-6" d="M455.06,265c1.06-.51,2.59,1.41,1.64,2.58l-18.95,32.56a2.37,2.37,0,0,1-3.58.59h0Z" transform="translate(-22.75 -39.71)"/><path class="cls-16" d="M432.74,277.44s.64-1,3.26-.51" transform="translate(-22.75 -39.71)"/><path class="cls-16" d="M432.66,280.09s.64-1,3.26-.51" transform="translate(-22.75 -39.71)"/><path class="cls-16" d="M432.65,283.14s.64-1,3.26-.51" transform="translate(-22.75 -39.71)"/><path class="cls-13" d="M450.5,263s-8.34,9.34-6.8,21.43L455.06,265A12.78,12.78,0,0,0,450.5,263Z" transform="translate(-22.75 -39.71)"/><path class="cls-17" d="M344,206.69c21.85,66.22,11.05,41.84,79.12,67.71l10.27-22.66L379.77,231s-13.91-51.35-19-56.43Z" transform="translate(-22.75 -39.71)"/><polygon class="cls-15" points="314.39 253.55 328 253.65 333.48 281.42 321.39 281.42 314.39 253.55"/><path d="M349.15,319.83c-4.07.26-2.52-8.11-7.33-5.7-3.41,2.36-11.65,8.15-19.86,11.1a6.45,6.45,0,0,0-4.12,5.22l41.39-.13L356.7,318.5a2.45,2.45,0,0,0-1.86-2.83C351.49,314.8,352.27,320.14,349.15,319.83Z" transform="translate(-22.75 -39.71)"/><path class="cls-6" d="M359.23,330.32c1,.65.1,2.94-1.4,2.72l-37.66.2a2.37,2.37,0,0,1-2.33-2.79h0Z" transform="translate(-22.75 -39.71)"/><path class="cls-16" d="M337.13,317.42s1.17.06,2.1,2.55" transform="translate(-22.75 -39.71)"/><path class="cls-16" d="M334.81,318.7s1.17.06,2.1,2.55" transform="translate(-22.75 -39.71)"/><path class="cls-16" d="M332.18,320.24s1.17.06,2.09,2.55" transform="translate(-22.75 -39.71)"/><path class="cls-13" d="M358.63,325.38s-12.29-2.45-21.92,5l22.52-.07A13,13,0,0,0,358.63,325.38Z" transform="translate(-22.75 -39.71)"/><path class="cls-5" d="M339.57,186.57c-26.68,70.09-20.34,50.34-4.55,121.54l24.6-3.16L348,244.45s25.15-43,24.13-60.23Z" transform="translate(-22.75 -39.71)"/><polygon class="cls-15" points="300.9 79.06 307.45 92.65 317.44 84.56 307.67 69.07 300.9 79.06"/><polygon points="303.55 84.56 306.09 76.61 301.09 79.51 303.55 84.56"/><path class="cls-15" d="M317.93,90.72c-6.16,1.62-6.87,8.08-5.73,21.32,1.55,13.92,14.19,10.23,20.61,1.24C341.15,102.54,331,87.08,317.93,90.72Z" transform="translate(-22.75 -39.71)"/><path class="cls-15" d="M312.64,106.58l-2.34,4.66c-.9,1.55,2.83,1,3.43,1.27Z" transform="translate(-22.75 -39.71)"/><path class="cls-1" d="M314.78,104.1c2.54.12,5,4.38.5,4.13C315.28,108.23,312.78,106.18,314.78,104.1Z" transform="translate(-22.75 -39.71)"/><g class="cls-18"><path d="M315.2,103.53s1.76,3.06-.33,5.19h0l-1.2-.08-.16-3.42Z" transform="translate(-22.75 -39.71)"/></g><path d="M314.31,103.61a5.64,5.64,0,0,1,1.17.34,5.34,5.34,0,0,1,1,.57,3.65,3.65,0,0,1,.86.85,3.11,3.11,0,0,1,.49,1.08.11.11,0,0,1-.08.14.11.11,0,0,1-.14-.07h0a3,3,0,0,0-1.39-1.58,4.5,4.5,0,0,0-1-.41,5.63,5.63,0,0,0-1-.18h0a.36.36,0,0,1-.34-.39.37.37,0,0,1,.38-.35Z" transform="translate(-22.75 -39.71)"/><path class="cls-1" d="M313.24,114.22l2.8,0S314.15,117,313.24,114.22Z" transform="translate(-22.75 -39.71)"/><path d="M320.4,102.12c-1.53.19-2.16-.86-4.77-1.43-3.13-.89-1.66-2.83,0-2.59S321.81,100.46,320.4,102.12Z" transform="translate(-22.75 -39.71)"/><path class="cls-13" d="M330.16,107.8s-1.88,5.4,4.61,8.13c0,0,14.44-19.8-6.78-26.49l-1.18,2Z" transform="translate(-22.75 -39.71)"/><path class="cls-13" d="M336.57,92.56c0,.93-1,8-1,8l-7.86,6.77s-4.46-6.33-2.84-12.67C324.88,94.67,336.68,89,336.57,92.56Z" transform="translate(-22.75 -39.71)"/><path class="cls-15" d="M334.26,106.25c.84,5-7,6.18-7.68,1.19S333.56,101.26,334.26,106.25Z" transform="translate(-22.75 -39.71)"/><path class="cls-13" d="M326.62,86.74c19.41-1.35,21.36,14.67,8.15,29.19l.81-15.36Z" transform="translate(-22.75 -39.71)"/><path class="cls-13" d="M326.08,96.56s-3.92-3-8.15-2.21c-24.32,2.86,2.87-24.67,22.81-3.74l-10.13,5.32Z" transform="translate(-22.75 -39.71)"/><path class="cls-15" d="M266,130.46C277,138,283.79,123,274.18,117.8,266.59,112.94,257,125.17,266,130.46Z" transform="translate(-22.75 -39.71)"/><path class="cls-15" d="M266.8,117.88c3.64-6.06,16.15.63,11.13,11.15Z" transform="translate(-22.75 -39.71)"/><path class="cls-15" d="M267.41,120c-.93-1.21-10.56-5.53-9-7.76h0c.75-2.4,10.49,3.77,11.71,3.81Z" transform="translate(-22.75 -39.71)"/><path class="cls-15" d="M309.52,136.71l-33.25-11.4-4.28,6,31.34,18.59c4.49,2.61,9.14-.56,10.66-5.53h0C315.17,140.51,313.19,138.4,309.52,136.71Z" transform="translate(-22.75 -39.71)"/><path class="cls-15" d="M338.19,129.81,304,137.6c-4.45,1.86-7,2.37-5.48,6.94h0a9.18,9.18,0,0,0,11.61,5.77l33.18-5c4.59-1.54,7.73-4.82,7.15-9.62h0C349.68,129,344.43,127.2,338.19,129.81Z" transform="translate(-22.75 -39.71)"/><polygon class="cls-19" points="296.36 94.45 302.55 112.95 323 109.98 321.54 88.31 296.36 94.45"/><path class="cls-4" d="M329.63,131l6.44,64.8c26.84,4.74,38.26-7.67,38.26-7.67-3.79-8.77-15-58.93-34.15-63.89Z" transform="translate(-22.75 -39.71)"/><path class="cls-15" d="M340.18,124.28s-5,10.43-10,12.3l-.63-5.68C331.86,129.22,337.53,125.17,340.18,124.28Z" transform="translate(-22.75 -39.71)"/><polygon class="cls-15" points="325.1 129.96 292.21 142.32 292.18 149.95 330.69 142.76 325.1 129.96"/><path class="cls-15" d="M302.48,189.5c3.82-7.44,8.94-5.83,14-8l3.23,3.38-2.35,2.24C319.7,201.78,302,200.38,302.48,189.5Z" transform="translate(-22.75 -39.71)"/><path class="cls-15" d="M337.52,148.82l7.39,29c.82,3.21,5.26,5.24,8.52,4.62a6.28,6.28,0,0,0,5-7.34l-5.57-29.24Z" transform="translate(-22.75 -39.71)"/><path class="cls-4" d="M343,128.57c-15.65-.38-5,29.27-4,31.64l17.17-2.76S354.44,129.91,343,128.57Z" transform="translate(-22.75 -39.71)"/><path class="cls-20" d="M340.43,159.91h0s-2.93-10.72-3.6-16.58" transform="translate(-22.75 -39.71)"/><line class="cls-21" y1="293.5" x2="430.35" y2="293.5"/></svg>