<svg id="Calque_1" data-name="Calque 1" xmlns="http://www.w3.org/2000/svg" viewBox="0 0 428.91 330.47"><defs><style>.cls-1{fill:#ececec;}.cls-2{fill:#f5f5f5;}.cls-11,.cls-14,.cls-15,.cls-3{fill:#fff;}.cls-4,.cls-5,.cls-6,.cls-7{fill:#7076db;}.cls-14,.cls-5{opacity:0.5;}.cls-6,.cls-8{opacity:0.2;}.cls-11,.cls-7{opacity:0.7;}.cls-9{opacity:0.1;}.cls-10{fill:#ff8b7b;}.cls-12{fill:#1a2e35;}.cls-13{fill:#ff5551;}.cls-15{opacity:0.8;}</style></defs><rect class="cls-1" y="291.72" width="428.91" height="0.21"/><rect class="cls-1" x="357.52" y="305.53" width="28.41" height="0.21"/><rect class="cls-1" x="276.67" y="307.86" width="7.46" height="0.21"/><rect class="cls-1" x="340.2" y="297.57" width="16.46" height="0.21"/><rect class="cls-1" x="45" y="299.01" width="37.05" height="0.21"/><rect class="cls-1" x="89.69" y="299.01" width="5.43" height="0.21"/><rect class="cls-1" x="112.78" y="302.63" width="80.36" height="0.21"/><path class="cls-1" d="M233.2,274.47H67.56a4.91,4.91,0,0,1-4.9-4.9V36.73a4.9,4.9,0,0,1,4.9-4.89H233.2a4.9,4.9,0,0,1,4.9,4.89V269.57A4.91,4.91,0,0,1,233.2,274.47ZM67.56,32.05a4.69,4.69,0,0,0-4.68,4.68V269.57a4.69,4.69,0,0,0,4.68,4.68H233.2a4.69,4.69,0,0,0,4.69-4.68V36.73a4.69,4.69,0,0,0-4.69-4.68Z" transform="translate(-29.89 -21)"/><path class="cls-1" d="M418.75,274.47H253.1a4.91,4.91,0,0,1-4.89-4.9V36.73a4.9,4.9,0,0,1,4.89-4.89H418.75a4.89,4.89,0,0,1,4.89,4.89V269.57A4.9,4.9,0,0,1,418.75,274.47ZM253.1,32.05a4.69,4.69,0,0,0-4.68,4.68V269.57a4.69,4.69,0,0,0,4.68,4.68H418.75a4.69,4.69,0,0,0,4.68-4.68V36.73a4.69,4.69,0,0,0-4.68-4.68Z" transform="translate(-29.89 -21)"/><path class="cls-1" d="M268.13,122.54l-.39-11.27,6.93-2.26a66.33,66.33,0,0,1,1.84-11.32l-5.87-4.33,4-10.59,7.25.59a67.62,67.62,0,0,1,6-9.74l-3.75-6.27,7.72-8.24,6.49,3.32a69.12,69.12,0,0,1,9.3-6.72l-1.05-7.2,10.29-4.68,4.72,5.53a69.21,69.21,0,0,1,11.16-2.61l1.75-7.06,11.31-.39,2.23,6.92a69.08,69.08,0,0,1,11.32,1.85l4.35-5.84,10.59,4-.58,7.25a68.94,68.94,0,0,1,9.73,6.07l6.25-3.76,8.27,7.7L394.7,70a67.44,67.44,0,0,1,6.69,9.3l7.2-1.08,4.7,10.3-5.56,4.71a67.23,67.23,0,0,1,2.62,11.17l7.09,1.78.39,11.27-6.95,2.27A66.73,66.73,0,0,1,409,131l5.86,4.33-4,10.59-7.26-.59a66.16,66.16,0,0,1-6,9.74l3.75,6.27-7.72,8.25-6.49-3.32a69,69,0,0,1-9.3,6.72l1.08,7.2-10.29,4.67-4.75-5.53a69.23,69.23,0,0,1-11.16,2.62L351,189l-11.31.39-2.23-6.92a69.08,69.08,0,0,1-11.32-1.85l-4.32,5.84-10.59-3.95.55-7.26a70.69,70.69,0,0,1-9.73-6.07l-6.25,3.76-8.27-7.7,3.32-6.51a67.44,67.44,0,0,1-6.69-9.3L277,150.5l-4.7-10.29,5.56-4.72a66.07,66.07,0,0,1-2.62-11.17Zm76.17,36.52a44.75,44.75,0,1,0-46.23-43.17A44.73,44.73,0,0,0,344.3,159.06Z" transform="translate(-29.89 -21)"/><path class="cls-2" d="M132.63,256.14l-.17-5.08,3.12-1a30.94,30.94,0,0,1,.83-5.11l-2.64-2,1.79-4.77,3.28.26a30,30,0,0,1,2.72-4.39l-1.69-2.83,3.48-3.71,2.92,1.49a32.23,32.23,0,0,1,4.2-3l-.48-3.24,4.64-2.11,2.13,2.49a31.89,31.89,0,0,1,5-1.18l.79-3.18,5.09-.17,1,3.12a31.55,31.55,0,0,1,5.1.83l2-2.63,4.77,1.78-.26,3.27a32,32,0,0,1,4.39,2.74l2.81-1.7,3.73,3.47-1.49,2.94a30.55,30.55,0,0,1,3,4.2l3.25-.49,2.12,4.64-2.51,2.13a29.21,29.21,0,0,1,1.18,5l3.2.8.17,5.09-3.13,1a30.49,30.49,0,0,1-.83,5.1l2.64,1.95L197,266.68l-3.28-.27A29.49,29.49,0,0,1,191,270.8l1.7,2.83-3.49,3.72-2.92-1.5a30.69,30.69,0,0,1-4.2,3l.49,3.25-4.64,2.1-2.14-2.49a31,31,0,0,1-5,1.18l-.8,3.18-5.09.18-1-3.12a31.55,31.55,0,0,1-5.1-.83L156.84,285l-4.78-1.79.25-3.27a32.5,32.5,0,0,1-4.39-2.73l-2.81,1.69-3.73-3.47,1.49-2.94a29.86,29.86,0,0,1-3-4.19l-3.25.49-2.12-4.64L137,262a29.83,29.83,0,0,1-1.18-5ZM167,272.61a20.18,20.18,0,1,0-20.85-19.47A20.18,20.18,0,0,0,167,272.61Z" transform="translate(-29.89 -21)"/><path class="cls-1" d="M130.85,67.08,128,64.43l1.13-2.24A23.05,23.05,0,0,1,126.83,59l-2.48.37-1.61-3.55,1.91-1.63a23,23,0,0,1-.9-3.84l-2.45-.62-.12-3.89,2.39-.77a23.6,23.6,0,0,1,.63-3.91l-2-1.5L123.55,36l2.5.2a23.7,23.7,0,0,1,2.09-3.36l-1.3-2.15,2.66-2.85L131.74,29A23.66,23.66,0,0,1,135,26.66l-.36-2.48,3.54-1.62,1.63,1.91a24.41,24.41,0,0,1,3.85-.89l.61-2.44,3.89-.14.78,2.4a23.48,23.48,0,0,1,3.9.63l1.49-2,3.66,1.36-.21,2.5A23.48,23.48,0,0,1,161.09,28l2.17-1.3,2.84,2.66L165,31.58a23.05,23.05,0,0,1,2.31,3.21l2.48-.38L171.36,38l-1.91,1.63a23.37,23.37,0,0,1,.9,3.85l2.45.61.12,3.9-2.39.77a23.65,23.65,0,0,1-.63,3.9l2,1.5-1.37,3.64-2.5-.19A23.7,23.7,0,0,1,166,60.93l1.3,2.15-2.66,2.85-2.24-1.14a23.66,23.66,0,0,1-3.21,2.31l.37,2.48L156,71.19l-1.64-1.9a23.11,23.11,0,0,1-3.85.89l-.61,2.44-3.89.14-.78-2.39a22.5,22.5,0,0,1-3.9-.64l-1.49,2-3.66-1.36.21-2.51A23.08,23.08,0,0,1,133,65.8Zm20.26-16.41a5.55,5.55,0,1,0-7.85.27A5.55,5.55,0,0,0,151.11,50.67Z" transform="translate(-29.89 -21)"/><path class="cls-1" d="M209.5,251.5,216,247v0a35.74,35.74,0,0,1,2.61-6.75l-1.66-6.53,9.41-10.07,6.62,1.21a35.05,35.05,0,0,1,6.56-3.06h0l4-6.78,13.78-.47,4.48,6.48h0a35.74,35.74,0,0,1,6.75,2.61l6.51-1.67,10.08,9.41L284,238h0a35.49,35.49,0,0,1,3.06,6.58l6.78,4,.47,13.78-6.49,4.48a34.77,34.77,0,0,1-2.6,6.79h0l1.65,6.5-9.41,10.08L270.88,289a35.84,35.84,0,0,1-6.61,3.07h0l-4,6.78-13.78.47L242,292.87a36,36,0,0,1-6.8-2.61h0l-6.49,1.65-10.08-9.41,1.21-6.61a35.53,35.53,0,0,1-3.07-6.58h0l-6.78-4Zm42.94,20.94a15.5,15.5,0,1,0-16-15A15.49,15.49,0,0,0,252.44,272.44Z" transform="translate(-29.89 -21)"/><path class="cls-1" d="M93.45,88.45a1,1,0,0,1-.8-.42l-2.39-3.46a21.7,21.7,0,0,1-3.45-1.33l-3.41.87a1,1,0,0,1-.91-.23l-5.84-5.45a1,1,0,0,1-.29-.89L77,74.07a21.24,21.24,0,0,1-1.55-3.34l-3.63-2.15a1,1,0,0,1-.48-.81l-.27-8a1,1,0,0,1,.42-.83L75,56.56a21.81,21.81,0,0,1,1.32-3.43l-.87-3.43a1,1,0,0,1,.23-.9L81.09,43a1,1,0,0,1,.89-.29l3.48.63a22.32,22.32,0,0,1,3.33-1.55l2.15-3.63a1,1,0,0,1,.81-.47l8-.28a1,1,0,0,1,.83.42l2.4,3.47a22.92,22.92,0,0,1,3.43,1.32l3.43-.87a1,1,0,0,1,.9.23l5.84,5.45a1,1,0,0,1,.3.89l-.64,3.48a21,21,0,0,1,1.55,3.33l3.63,2.16a1,1,0,0,1,.47.8l.28,8a1,1,0,0,1-.42.84l-3.47,2.39a21.23,21.23,0,0,1-1.32,3.45l.87,3.41a1,1,0,0,1-.23.91l-5.45,5.84a1,1,0,0,1-.89.29l-3.46-.63a22.57,22.57,0,0,1-3.36,1.55l-2.15,3.62a1,1,0,0,1-.8.48l-8,.27Zm-6.53-7.21a.91.91,0,0,1,.43.1,19.64,19.64,0,0,0,3.76,1.44,1,1,0,0,1,.55.39L94,86.49l6.92-.24,2.06-3.46a1,1,0,0,1,.54-.44,19.87,19.87,0,0,0,3.64-1.68.93.93,0,0,1,.67-.12l3.29.6,4.72-5.06L115,72.84a1,1,0,0,1,.08-.69,18.81,18.81,0,0,0,1.43-3.74,1,1,0,0,1,.39-.55l3.32-2.29L120,58.65l-3.47-2.06a1,1,0,0,1-.43-.52,19.5,19.5,0,0,0-1.67-3.61.92.92,0,0,1-.14-.7l.6-3.31-5.06-4.72-3.26.83a1,1,0,0,1-.68-.08,19.56,19.56,0,0,0-3.72-1.43,1,1,0,0,1-.56-.39l-2.3-3.32-6.91.23L90.28,43a1,1,0,0,1-.37.37l-.21.08a19.1,19.1,0,0,0-3.56,1.67,1,1,0,0,1-.68.12l-3.31-.6-4.72,5.06L78.26,53a1,1,0,0,1-.08.68,19.69,19.69,0,0,0-1.44,3.73,1,1,0,0,1-.39.55L73,60.26l.24,6.92,3.47,2.06a.92.92,0,0,1,.42.51,19.55,19.55,0,0,0,1.69,3.64.93.93,0,0,1,.13.67l-.61,3.31,5.06,4.72,3.25-.82A1,1,0,0,1,86.92,81.24Zm28.28-29.3h0ZM96.6,77.51a14.69,14.69,0,1,1,.51,0H96.6Zm0-27.24h-.44A12.64,12.64,0,0,0,97,75.55h0a12.64,12.64,0,0,0-.42-25.28Z" transform="translate(-29.89 -21)"/><ellipse id="_Path_" data-name="&lt;Path&gt;" class="cls-2" cx="214.45" cy="320.75" rx="166.32" ry="9.71"/><rect class="cls-3" x="59" y="34.43" width="310.91" height="207.94" rx="14.81"/><path class="cls-4" d="M403.27,197.13h-.86v-7.75h.86Zm0-13.81h-.86v-16h.86Z" transform="translate(-29.89 -21)"/><path class="cls-4" d="M387.1,263.84H101.59a13.18,13.18,0,0,1-13.16-13.17V68.14A13.17,13.17,0,0,1,101.59,55H387.1a13.17,13.17,0,0,1,13.16,13.17V250.67A13.18,13.18,0,0,1,387.1,263.84ZM101.59,55.9A12.25,12.25,0,0,0,89.35,68.14V250.67a12.25,12.25,0,0,0,12.24,12.24H387.1a12.25,12.25,0,0,0,12.24-12.24V68.14A12.25,12.25,0,0,0,387.1,55.9Z" transform="translate(-29.89 -21)"/><path class="cls-5" d="M192.71,220.38h-4.33v-.93h4.33l.07.93Zm-8.66,0h-4.32v-.93h4.32Zm-8.65,0h-4.32v-.93h4.32Zm-8.65,0h-4.32v-.93h4.32Zm-8.65,0h-4.33v-.93h4.33Zm-8.65,0h-4.33v-.93h4.33Zm-8.65,0h-4.33v-.93h4.33Zm-8.65,0h-4.33v-.93h4.33Zm-8.66,0h-4.32v-.93h4.32Zm-8.65,0h-1.61a6.13,6.13,0,0,1-2.82-.67l.41-.82a5.4,5.4,0,0,0,2.41.56h1.61Zm82.17-1.7-.63-.68a5.3,5.3,0,0,0,1.69-3.5l.93.07A6.31,6.31,0,0,1,197,218.68Zm-89.67-2.34a6.3,6.3,0,0,1-.42-2.27v-2.18h.92v2.18a5.29,5.29,0,0,0,.36,1.93ZM199,210.21h-.93v-4.32H199Zm-91.18-2.64h-.92v-4.33h.92Zm91.18-6h-.93v-4.33H199Zm-91.18-2.64h-.92v-4.33h.92Zm91.18-6h-.93v-4.33H199Zm-91.18-2.64h-.92v-4.33h.92Zm91.18-6h-.93v-4.33H199Zm-91.18-2.65h-.92v-4.32h.92Zm91.18-6h-.93v-4.33H199ZM107.84,173h-.92v-4.32h.92ZM199,167h-.93v-4.32H199Zm-91.18-2.64h-.92V160h.92Zm91.18-6h-.93V154H199Zm-91.18-2.64h-.92v-4.33h.92Zm91.18-6h-.93v-4.32H199ZM107.84,147h-.92v-4.33h.92ZM199,141h-.93v-4.33H199Zm-91.18-2.64h-.92V134h.92Zm91.18-6h-.93V128H199Zm-91.18-2.65h-.92v-4.32h.92Zm91.18-6h-.93v-4.33H199Zm-91.18-2.65h-.92v-4.32h.92Zm91.18-6h-.93v-2.14a5.3,5.3,0,0,0-.37-2l.86-.34a6.24,6.24,0,0,1,.44,2.31Zm-91.16-2.61-.92-.08a6.26,6.26,0,0,1,2-4.09l.63.68A5.38,5.38,0,0,0,107.86,112.44Zm87.23-4.37a5.46,5.46,0,0,0-2.38-.55h-1.65v-.93h1.65a6.28,6.28,0,0,1,2.79.65Zm-8.36-.55h-4.32v-.93h4.32Zm-8.65,0h-4.32v-.93h4.32Zm-8.65,0H165.1v-.93h4.33Zm-8.65,0h-4.33v-.93h4.33Zm-8.65,0H147.8v-.93h4.33Zm-8.65,0h-4.33v-.93h4.33Zm-8.66,0H130.5v-.93h4.32Zm-8.65,0h-4.32v-.93h4.32Zm-8.65,0h-4.29l0-.93h4.33Z" transform="translate(-29.89 -21)"/><path class="cls-4" d="M113.46,68.81a4.1,4.1,0,1,1-4.1-4.09A4.1,4.1,0,0,1,113.46,68.81Z" transform="translate(-29.89 -21)"/><path class="cls-6" d="M140.35,71.21H120.26a2.41,2.41,0,0,1-2.4-2.4h0a2.4,2.4,0,0,1,2.4-2.39h20.09a2.4,2.4,0,0,1,2.39,2.39h0A2.4,2.4,0,0,1,140.35,71.21Z" transform="translate(-29.89 -21)"/><path class="cls-6" d="M237.19,70.13H223.1a1.32,1.32,0,0,1-1.32-1.32h0a1.32,1.32,0,0,1,1.32-1.31h14.09a1.32,1.32,0,0,1,1.32,1.31h0A1.32,1.32,0,0,1,237.19,70.13Z" transform="translate(-29.89 -21)"/><path class="cls-6" d="M268.82,70.13H254.73a1.32,1.32,0,0,1-1.32-1.32h0a1.32,1.32,0,0,1,1.32-1.31h14.09a1.31,1.31,0,0,1,1.31,1.31h0A1.31,1.31,0,0,1,268.82,70.13Z" transform="translate(-29.89 -21)"/><path class="cls-6" d="M300.45,70.13h-14.1A1.32,1.32,0,0,1,285,68.81h0a1.31,1.31,0,0,1,1.31-1.31h14.1a1.31,1.31,0,0,1,1.31,1.31h0A1.32,1.32,0,0,1,300.45,70.13Z" transform="translate(-29.89 -21)"/><path class="cls-6" d="M332.08,70.13H318a1.32,1.32,0,0,1-1.31-1.32h0A1.31,1.31,0,0,1,318,67.5h14.1a1.31,1.31,0,0,1,1.31,1.31h0A1.32,1.32,0,0,1,332.08,70.13Z" transform="translate(-29.89 -21)"/><path class="cls-7" d="M372.55,71.13H351.23a2.32,2.32,0,0,1-2.32-2.32h0a2.32,2.32,0,0,1,2.32-2.32h21.32a2.32,2.32,0,0,1,2.32,2.32h0A2.32,2.32,0,0,1,372.55,71.13Z" transform="translate(-29.89 -21)"/><rect class="cls-7" x="191.89" y="195.94" width="49.83" height="10.96" rx="5.48"/><path class="cls-6" d="M372.24,168V126.3a1.32,1.32,0,0,1,1.32-1.32h0a1.32,1.32,0,0,1,1.31,1.32V168a1.31,1.31,0,0,1-1.31,1.31h0A1.32,1.32,0,0,1,372.24,168Z" transform="translate(-29.89 -21)"/><circle class="cls-6" cx="343.67" cy="158.9" r="1.31"/><circle class="cls-6" cx="343.67" cy="177.45" r="1.31"/><circle class="cls-6" cx="343.67" cy="195.99" r="1.31"/><rect class="cls-6" x="191.89" y="86.06" width="122.68" height="21.06" rx="10.53"/><path class="cls-6" d="M296.64,158.69H232.31a10.56,10.56,0,0,1-10.53-10.53h0a10.56,10.56,0,0,1,10.53-10.53h64.33a10.56,10.56,0,0,1,10.53,10.53h0A10.56,10.56,0,0,1,296.64,158.69Z" transform="translate(-29.89 -21)"/><path class="cls-1" d="M315.57,183.32H224.25a2.47,2.47,0,0,1-2.47-2.46h0a2.47,2.47,0,0,1,2.47-2.46h91.32a2.47,2.47,0,0,1,2.47,2.46h0A2.47,2.47,0,0,1,315.57,183.32Z" transform="translate(-29.89 -21)"/><path class="cls-1" d="M337,183.32h-9.34a2.46,2.46,0,0,1-2.46-2.46h0a2.47,2.47,0,0,1,2.46-2.46H337a2.47,2.47,0,0,1,2.47,2.46h0A2.47,2.47,0,0,1,337,183.32Z" transform="translate(-29.89 -21)"/><path class="cls-1" d="M264.48,188.59h39.26a2.46,2.46,0,0,1,2.46,2.46h0a2.47,2.47,0,0,1-2.46,2.47H264.48a2.48,2.48,0,0,1-2.47-2.47h0A2.47,2.47,0,0,1,264.48,188.59Z" transform="translate(-29.89 -21)"/><path class="cls-1" d="M224.25,188.59h28.11a2.47,2.47,0,0,1,2.46,2.46h0a2.47,2.47,0,0,1-2.46,2.47H224.25a2.48,2.48,0,0,1-2.47-2.47h0A2.47,2.47,0,0,1,224.25,188.59Z" transform="translate(-29.89 -21)"/><path class="cls-1" d="M279.56,203.71H224.25a2.48,2.48,0,0,1-2.47-2.47h0a2.47,2.47,0,0,1,2.47-2.46h55.31a2.47,2.47,0,0,1,2.47,2.46h0A2.48,2.48,0,0,1,279.56,203.71Z" transform="translate(-29.89 -21)"/><path class="cls-1" d="M319.79,203.71H291.68a2.47,2.47,0,0,1-2.46-2.47h0a2.47,2.47,0,0,1,2.46-2.46h28.11a2.47,2.47,0,0,1,2.47,2.46h0A2.48,2.48,0,0,1,319.79,203.71Z" transform="translate(-29.89 -21)"/><rect class="cls-4" x="123.21" y="99.99" width="91.18" height="112.86" rx="6.7" transform="translate(-56.17 13.33) rotate(-10.78)"/><g class="cls-8"><path class="cls-3" d="M137.22,215.86a.54.54,0,0,1-.21-.05.43.43,0,0,1-.17-.58L200,97.21a.43.43,0,1,1,.75.41l-63.15,118A.43.43,0,0,1,137.22,215.86Z" transform="translate(-29.89 -21)"/><path class="cls-3" d="M219.85,200.13a.43.43,0,0,1-.28-.11l-102.1-86.55a.42.42,0,0,1,0-.6.43.43,0,0,1,.6-.05l102.11,86.55a.43.43,0,0,1,.05.6A.45.45,0,0,1,219.85,200.13Z" transform="translate(-29.89 -21)"/></g><path class="cls-4" d="M209.83,211.22s11.19,38.89,15.74,58c4.76,20.06,19,50.37,20.13,63.67,1.23.48,5.2-.06,7.32-1.09,0,0-1.94-42.38-13.47-61.69,2.6-47.51-10.29-58.87-10.29-58.87Z" transform="translate(-29.89 -21)"/><path class="cls-9" d="M224.33,230.75,218,240.42c2,7.29,4,14.89,5.7,21.43C225.49,250.53,224.33,230.75,224.33,230.75Z" transform="translate(-29.89 -21)"/><path class="cls-10" d="M232.93,177.71c.18.54.3.92.44,1.36s.24.85.35,1.27c.23.84.42,1.69.6,2.54a49.36,49.36,0,0,1,.77,5.16,43.72,43.72,0,0,1,.22,5.26,38.69,38.69,0,0,1-.43,5.34l0,.29a2.74,2.74,0,0,1-.15.58,8.87,8.87,0,0,1-1.7,2.82,12,12,0,0,1-2.08,1.8,16.41,16.41,0,0,1-4.14,2,26.09,26.09,0,0,1-4,.89,25.4,25.4,0,0,1-4,.23,2.34,2.34,0,0,1-.92-4.46l.2-.09c1-.45,2.09-.92,3.08-1.42a29.37,29.37,0,0,0,2.85-1.56,11.28,11.28,0,0,0,2.17-1.68c.53-.55.67-1,.58-1.08l-.18.87c0-1.41,0-2.83-.09-4.28s-.27-2.89-.49-4.34-.49-2.9-.81-4.34c-.16-.72-.33-1.43-.5-2.14l-.28-1.06-.25-1-.07-.25a4.65,4.65,0,0,1,8.89-2.71Z" transform="translate(-29.89 -21)"/><path class="cls-10" d="M221.68,202.79l-5.6-1.6a3.54,3.54,0,0,0-2.42.19l-2.1,1a2,2,0,0,0-1,2.71l1,2a2,2,0,0,0,2.24,1.09l3.76-.81s4.22.27,5.71-2.23Z" transform="translate(-29.89 -21)"/><path class="cls-4" d="M226.75,169.84c-3,3.13-4.61,7.81-2.17,16.78,3.21,1.59,11-.48,11-.48S235.67,172.67,226.75,169.84Z" transform="translate(-29.89 -21)"/><path class="cls-11" d="M226.75,169.84c-3,3.13-4.61,7.81-2.17,16.78,3.21,1.59,11-.48,11-.48S235.67,172.67,226.75,169.84Z" transform="translate(-29.89 -21)"/><path class="cls-12" d="M232.19,176.1a.28.28,0,0,0-.27.29.28.28,0,0,0,.28.27h0l1.41,0-.25-.55Z" transform="translate(-29.89 -21)"/><path class="cls-12" d="M231.87,181.65a.28.28,0,1,0-.36.43l4,3.39c0-.21,0-.47,0-.77Z" transform="translate(-29.89 -21)"/><path class="cls-4" d="M223.72,182.64l4.54-2.85a.28.28,0,1,0-.3-.48L223.62,182C223.65,182.23,223.69,182.44,223.72,182.64Z" transform="translate(-29.89 -21)"/><path class="cls-10" d="M219.06,156.42c-.56,3.94-1,11.09,1.82,13.33,0,0-3.67-.1-10.76,5.59-2.61-2.92-1.09-4.13-1.09-4.13,4.21-1.55,3.94-4.72,3.06-7.62Z" transform="translate(-29.89 -21)"/><path class="cls-12" d="M207.94,151.61c-.13.52-.51.89-.84.83s-.49-.53-.36-1,.5-.88.83-.83S208.07,151.1,207.94,151.61Z" transform="translate(-29.89 -21)"/><path class="cls-12" d="M207.71,150.63l-1.13-.58S207,151.13,207.71,150.63Z" transform="translate(-29.89 -21)"/><path class="cls-13" d="M207.72,152.59a15.58,15.58,0,0,1-2.64,3,2.12,2.12,0,0,0,1.73.66Z" transform="translate(-29.89 -21)"/><path class="cls-12" d="M207.5,147.36a.28.28,0,0,1,0-.22.3.3,0,0,1,.4-.16,3.2,3.2,0,0,1,2,2,.28.28,0,0,1-.23.35.33.33,0,0,1-.38-.24,2.61,2.61,0,0,0-1.63-1.59A.3.3,0,0,1,207.5,147.36Z" transform="translate(-29.89 -21)"/><path class="cls-10" d="M225.16,152.74c-1.8,6-2.44,8.65-6.27,11.24-5.76,3.9-12.79.79-12.83-5.58,0-5.73,2.92-14.66,9.49-16A8.08,8.08,0,0,1,225.16,152.74Z" transform="translate(-29.89 -21)"/><path class="cls-12" d="M211.16,153.12c-3.59-2.55-1.84-7.23,1.45-7.37-4.29-3-2.06-8.43,3.19-8.22s6,3.43,6,3.43,8.46.43,9.65,6.58c1.39,7.23-3,11.87-8.46,14,3.69,3-5,5.16-9.36,2.72S207.63,156.35,211.16,153.12Z" transform="translate(-29.89 -21)"/><path class="cls-3" d="M231.05,145c-4.61-.86-6.92,5.52-3.92,9.24a7.1,7.1,0,0,0,1.54,1.46,3,3,0,0,0,4.62-2.29C233.54,150.35,233.54,145.46,231.05,145Z" transform="translate(-29.89 -21)"/><path class="cls-12" d="M243.57,148.26a1.45,1.45,0,0,0,.61-1,3,3,0,0,0-2.81-3.23c-1-3.14-5.15-3.2-7.49-1-1.92-1-4,1.17-3.79,3.42-2,.91-2.54,4.26-.71,6.2a4.94,4.94,0,0,0,1.12.89,1.53,1.53,0,0,0,.27.11,3.5,3.5,0,0,0,2.72,2.91,3.91,3.91,0,0,0,1.15.07,1.6,1.6,0,0,0,1.29-1c1.34,1.1,2.77,1.82,3.79,1.11a3.3,3.3,0,0,0,1.46-2.92,2,2,0,0,0,1.92-.07C245.07,152.49,244.91,150,243.57,148.26Z" transform="translate(-29.89 -21)"/><path class="cls-10" d="M213.12,154a4.33,4.33,0,0,1-2.83,2.06c-1.48.25-1.95-1.45-1.32-3.06.56-1.44,2-3.31,3.39-2.82S214,152.65,213.12,154Z" transform="translate(-29.89 -21)"/><path class="cls-4" d="M211.16,149.54c1.25-2.41,8.16-9,12.76-8.74a12.85,12.85,0,0,1,2.72,1.08.17.17,0,0,1-.07.32c-1.8.21-7.65,1.57-13.14,10.2A8.77,8.77,0,0,1,211.16,149.54Z" transform="translate(-29.89 -21)"/><path class="cls-3" d="M213.91,154.44c-1.11,2.46-3.33,3.87-5,3.13s-2.06-3.33-1-5.8,3.34-3.86,5-3.13S215,152,213.91,154.44Z" transform="translate(-29.89 -21)"/><path class="cls-4" d="M212.56,153.83c-1,2.23-2.92,3.53-4.29,2.92s-1.66-2.92-.66-5.14,2.92-3.54,4.29-2.92S213.56,151.6,212.56,153.83Z" transform="translate(-29.89 -21)"/><path class="cls-12" d="M242,341.73c4.82-.72,4.91-1.52,7.5-2.42,2.21-.79,2.83-.67,4.62-1.28,1.49-.5,1-1.92,0-3.43a18.28,18.28,0,0,1-1.1-2.82l-7.32,1.09c-.71,2-1,4.66-5.14,6.15C238.07,339.91,240.08,342,242,341.73Z" transform="translate(-29.89 -21)"/><path class="cls-12" d="M197.36,341.75c4.79,0,5.71-.32,8.4-.41,2.31-.09,2.69.41,5,.41,1.54,0,1.76-1.75,1.19-3.06a24,24,0,0,1-.83-3.56h-6.6c-1.19,2.09-4.44,3.64-8.07,3.9C193.88,339.22,195.44,341.75,197.36,341.75Z" transform="translate(-29.89 -21)"/><path class="cls-4" d="M203,211.22s-1,34.45,1.08,56.33c-.12,20.54.51,67.58.51,67.58.16,1.05,5.67.63,6.6,0,0,0,10.32-34.26,5.74-67.58,11.46-34.75,9-56.33,9-56.33Z" transform="translate(-29.89 -21)"/><path class="cls-4" d="M244.74,330.2a19,19,0,0,1,.15,2.75.56.56,0,0,0,.57.59,27.22,27.22,0,0,0,7.72-1.57.56.56,0,0,0,.39-.53l0-2.59a.58.58,0,0,0-.66-.57l-7.72,1.3A.56.56,0,0,0,244.74,330.2Z" transform="translate(-29.89 -21)"/><path class="cls-14" d="M244.74,330.2a19,19,0,0,1,.15,2.75.56.56,0,0,0,.57.59,27.22,27.22,0,0,0,7.72-1.57.56.56,0,0,0,.39-.53l0-2.59a.58.58,0,0,0-.66-.57l-7.72,1.3A.56.56,0,0,0,244.74,330.2Z" transform="translate(-29.89 -21)"/><path class="cls-4" d="M203.79,332.24c0,.71-.06,2-.13,2.92a.6.6,0,0,0,.53.63,39.53,39.53,0,0,0,7.28-.08.53.53,0,0,0,.48-.44l.49-2.56a.6.6,0,0,0-.56-.7l-7.52-.3A.54.54,0,0,0,203.79,332.24Z" transform="translate(-29.89 -21)"/><path class="cls-14" d="M203.79,332.24c0,.71-.06,2-.13,2.92a.6.6,0,0,0,.53.63,39.53,39.53,0,0,0,7.28-.08.53.53,0,0,0,.48-.44l.49-2.56a.6.6,0,0,0-.56-.7l-7.52-.3A.54.54,0,0,0,203.79,332.24Z" transform="translate(-29.89 -21)"/><path class="cls-4" d="M198.59,182.34a120.16,120.16,0,0,0,1.65,11.92c.84,5.16,1.45,10.2,2.68,18.71,11.82,1.24,25.73.24,26.34-1.75-.93-7.37-.91-17.31,1.74-34.44a6.13,6.13,0,0,0-6.18-7.27c-1,0-2.15.07-3.28.16a81.46,81.46,0,0,0-11.86,1.46c-1.27.27-2.59.6-3.84.93A9.91,9.91,0,0,0,198.59,182.34Z" transform="translate(-29.89 -21)"/><path class="cls-15" d="M198.59,182.34a120.16,120.16,0,0,0,1.65,11.92c.84,5.16,1.45,10.2,2.68,18.71,11.82,1.24,25.73.24,26.34-1.75-.93-7.37-.91-17.31,1.74-34.44a6.13,6.13,0,0,0-6.18-7.27c-1,0-2.15.07-3.28.16a81.46,81.46,0,0,0-11.86,1.46c-1.27.27-2.59.6-3.84.93A9.91,9.91,0,0,0,198.59,182.34Z" transform="translate(-29.89 -21)"/><path class="cls-12" d="M200.71,175.47l1.38,1.72a.27.27,0,0,0,.22.11.27.27,0,0,0,.17-.06.3.3,0,0,0,.05-.4L201.08,175C201,175.17,200.83,175.32,200.71,175.47Z" transform="translate(-29.89 -21)"/><path class="cls-4" d="M207,174.45h0a.28.28,0,0,0,.28-.26l.16-2.54-.57.14-.15,2.36A.28.28,0,0,0,207,174.45Z" transform="translate(-29.89 -21)"/><path class="cls-4" d="M219.33,176.73a.32.32,0,0,0,.16,0,.3.3,0,0,0,.24-.12.29.29,0,0,0-.08-.39l-7.22-4.77a.28.28,0,0,0-.31.47Z" transform="translate(-29.89 -21)"/><path class="cls-12" d="M207,178.32a.28.28,0,0,0,.16.37l8.05,3.15.1,0a.29.29,0,0,0,.1-.55l-8.05-3.15A.29.29,0,0,0,207,178.32Z" transform="translate(-29.89 -21)"/><path class="cls-4" d="M202.38,192.65a.3.3,0,0,0,.15,0,.31.31,0,0,0,.24-.13l4.69-7.26a.28.28,0,0,0-.09-.39.27.27,0,0,0-.38.08l-4.7,7.26A.29.29,0,0,0,202.38,192.65Z" transform="translate(-29.89 -21)"/><path class="cls-4" d="M200.08,186.31a.32.32,0,0,0,.2.08.27.27,0,0,0,.2-.09.28.28,0,0,0,0-.4l-1.69-1.58c0,.28.06.56.09.86Z" transform="translate(-29.89 -21)"/><path class="cls-4" d="M225.53,191.12a.28.28,0,0,0-.17.36.28.28,0,0,0,.27.18h.09l3.57-1.31.06-.62Z" transform="translate(-29.89 -21)"/><path class="cls-4" d="M224,185.3a.26.26,0,0,0,.15,0l6.19-3.89c0-.24.06-.48.1-.72l-6.59,4.13a.29.29,0,0,0-.09.39A.28.28,0,0,0,224,185.3Z" transform="translate(-29.89 -21)"/><path class="cls-4" d="M219.78,186.39a.29.29,0,0,0-.39-.09l-7.32,4.6a.28.28,0,0,0,.15.52.24.24,0,0,0,.15,0l7.32-4.6A.29.29,0,0,0,219.78,186.39Z" transform="translate(-29.89 -21)"/><path class="cls-12" d="M226,176.65l.1,0a.29.29,0,0,0,.17-.36l-2.54-6.72-.59,0,2.6,6.89A.28.28,0,0,0,226,176.65Z" transform="translate(-29.89 -21)"/><path class="cls-4" d="M218.69,211.8a.28.28,0,1,0-.31.47l1.6,1.06.93-.07Z" transform="translate(-29.89 -21)"/><path class="cls-4" d="M229,209.13l-6.25-2.45a.28.28,0,0,0-.2.53l6.51,2.55Z" transform="translate(-29.89 -21)"/><path class="cls-12" d="M202.63,211c0,.17.05.34.08.52a.27.27,0,0,0-.08-.52Z" transform="translate(-29.89 -21)"/><path class="cls-4" d="M202.56,202.36a.28.28,0,0,0,.18-.5l-1.56-1.31.12.83,1.08.91A.24.24,0,0,0,202.56,202.36Z" transform="translate(-29.89 -21)"/><path class="cls-12" d="M215.74,199.54a.28.28,0,0,0,.26-.18.29.29,0,0,0-.16-.37l-8.05-3.15a.28.28,0,1,0-.21.52l8,3.16Z" transform="translate(-29.89 -21)"/><path class="cls-4" d="M213.87,203.26l-7.32,4.6a.29.29,0,0,0-.09.39.31.31,0,0,0,.24.13.26.26,0,0,0,.15,0l7.32-4.6a.28.28,0,1,0-.3-.48Z" transform="translate(-29.89 -21)"/><path class="cls-12" d="M220.63,201.07a.27.27,0,0,0,.24.14.3.3,0,0,0,.15-.05l7.32-4.6a.29.29,0,0,0,.09-.39.29.29,0,0,0-.39-.09l-7.32,4.6A.29.29,0,0,0,220.63,201.07Z" transform="translate(-29.89 -21)"/><path class="cls-12" d="M212.34,212.06a.29.29,0,0,0-.37-.17.28.28,0,0,0-.16.36l.47,1.25h.6Z" transform="translate(-29.89 -21)"/><path class="cls-10" d="M206.38,182.51c-.07.56-.12,1-.19,1.41s-.15.87-.23,1.3c-.17.86-.36,1.71-.56,2.56a48.42,48.42,0,0,1-1.52,5,42.81,42.81,0,0,1-2.07,4.85,39.12,39.12,0,0,1-2.68,4.63l-.18.27a2.56,2.56,0,0,1-.36.44,36.61,36.61,0,0,1-4.47,3.51c-1.45,1-2.93,1.94-4.41,2.86s-3,1.76-4.5,2.59-3,1.63-4.63,2.37a2.33,2.33,0,0,1-2.59-3.8l0,0c1.23-1.16,2.51-2.28,3.77-3.43l3.78-3.35c1.27-1.1,2.5-2.23,3.72-3.32.6-.55,1.19-1.1,1.75-1.65l.79-.81c.26-.26.45-.49.68-.74l-.54.71c.63-1.27,1.24-2.55,1.76-3.9s1-2.72,1.42-4.13.81-2.83,1.15-4.27c.17-.71.33-1.43.47-2.15l.38-2,.05-.26a4.65,4.65,0,0,1,9.19,1.39Z" transform="translate(-29.89 -21)"/><path class="cls-10" d="M180.25,210.28l-4.82-1.43A3.54,3.54,0,0,0,173,209l-2.1.94a2,2,0,0,0-1,2.7l1,2a2,2,0,0,0,2.23,1.11l3.76-.78a9.5,9.5,0,0,0,3.57-.5,2.24,2.24,0,0,0,1-3.34h0A2.21,2.21,0,0,0,180.25,210.28Z" transform="translate(-29.89 -21)"/><path class="cls-4" d="M204.2,172.75c-4.06,1.52-7.53,5.06-9.2,14.2,2.21,2.82,10.12,4.31,10.12,4.31S211,179.15,204.2,172.75Z" transform="translate(-29.89 -21)"/><path class="cls-15" d="M204.2,172.75c-4.06,1.52-7.53,5.06-9.2,14.2,2.21,2.82,10.12,4.31,10.12,4.31S211,179.15,204.2,172.75Z" transform="translate(-29.89 -21)"/><path class="cls-12" d="M202.09,177.19a.27.27,0,0,0,.22.11.27.27,0,0,0,.17-.06.3.3,0,0,0,.05-.4l-1.71-2.14-.42.37Z" transform="translate(-29.89 -21)"/><path class="cls-12" d="M207,178.32a.28.28,0,0,0,.16.37l.09,0c0-.19-.06-.38-.1-.56A.28.28,0,0,0,207,178.32Z" transform="translate(-29.89 -21)"/><path class="cls-4" d="M203.8,191l3-4.7c.1-.44.2-.89.29-1.37a.24.24,0,0,0-.14.1l-3.77,5.83Z" transform="translate(-29.89 -21)"/><path class="cls-4" d="M200.08,186.31a.32.32,0,0,0,.2.08.27.27,0,0,0,.2-.09.28.28,0,0,0,0-.4l-4.2-3.93c-.07.19-.13.38-.2.59Z" transform="translate(-29.89 -21)"/><path class="cls-12" d="M316.41,265.91c-1.2-4.65.25-6.42,1.94-8.27s1.5-5,1.5-5a22.1,22.1,0,0,1,1.86,11.43C320.93,270.3,317.29,269.3,316.41,265.91Z" transform="translate(-29.89 -21)"/><path class="cls-12" d="M323.77,303.4c-1.78-3-9.34-9.26-15.08-6.79,4.59,1.9,9.65,13.5,16.44,13Z" transform="translate(-29.89 -21)"/><path class="cls-4" d="M329.11,329.16a.8.8,0,0,1-.78-.61c-1.11-4.54-10.92-45.21-14.76-74.07a.81.81,0,0,1,1.6-.22c3.83,28.79,13.62,69.37,14.72,73.91a.8.8,0,0,1-.59,1A.62.62,0,0,1,329.11,329.16Z" transform="translate(-29.89 -21)"/><path class="cls-4" d="M315.56,256.23c.11-3.4-1.48-5.5-5.47-5.87s-5.26-2-6-3.58c1.34,7.84,10.75,9.8,11.66,13.67C315.56,257.55,315.56,256.23,315.56,256.23Z" transform="translate(-29.89 -21)"/><path class="cls-4" d="M317.35,269.17c-.33-3.57-3.21-4.06-6.49-4.49a5.66,5.66,0,0,1-4.37-2.54,8.37,8.37,0,0,0,2.38,8.28C312.74,274.09,317.59,271.77,317.35,269.17Z" transform="translate(-29.89 -21)"/><path class="cls-4" d="M322.81,300.67c-.56-4,2.17-5.63,1.75-11.49C332.39,302.57,323.7,306.93,322.81,300.67Z" transform="translate(-29.89 -21)"/><path class="cls-4" d="M319.15,284.41c-2.21-3.37-5.36-2.8-8.91-7.47C313.21,292.16,322.62,289.69,319.15,284.41Z" transform="translate(-29.89 -21)"/><path class="cls-12" d="M335.66,285.2c.19-5.38-4.8-8.22-8.62-13.6C329.37,282.31,335.35,293.65,335.66,285.2Z" transform="translate(-29.89 -21)"/><path class="cls-4" d="M333.2,324.32h-.07a.94.94,0,0,1-.87-1c.89-11.31,4.05-60.06,3.16-91.93a1,1,0,0,1,.93-1,.94.94,0,0,1,1,.93c.88,31.95-2.28,80.8-3.17,92.13A1,1,0,0,1,333.2,324.32Z" transform="translate(-29.89 -21)"/><path class="cls-4" d="M335.65,233.91c-1.2-6.52,1.25-11,8.82-12.89s9.51-5.44,10.49-8.65c-.29,15.48-17.81,22-18.44,29.72C336,236.46,335.65,233.91,335.65,233.91Z" transform="translate(-29.89 -21)"/><path class="cls-4" d="M336.23,247.1c1.21-7.82-4.69-10.41-11.48-13.09s-8-7.78-8-7.78a18.47,18.47,0,0,0,.65,19C323.71,255.16,335.35,252.81,336.23,247.1Z" transform="translate(-29.89 -21)"/><path class="cls-4" d="M336.2,267.07c1.3-6.2,6.46-6.47,12.31-6.56s8.19-3.57,8.19-3.57A14.8,14.8,0,0,1,350.84,271C343.3,276.66,335.25,271.6,336.2,267.07Z" transform="translate(-29.89 -21)"/><path class="cls-4" d="M335.11,297.21c1.41-3.82,8.82-12.68,16-11-4.9,3.18-8.28,17.66-16.23,18.54C335.07,298.3,335.11,297.21,335.11,297.21Z" transform="translate(-29.89 -21)"/><path class="cls-4" d="M342,315.94H318.08a2,2,0,0,0-1.9,2.55l6.46,21.84a2,2,0,0,0,1.9,1.42h10.95a2,2,0,0,0,1.9-1.42l6.46-21.84A2,2,0,0,0,342,315.94Z" transform="translate(-29.89 -21)"/><path class="cls-6" d="M342,315.94H318.08a2,2,0,0,0-1.9,2.55l6.46,21.84a2,2,0,0,0,1.9,1.42h10.95a2,2,0,0,0,1.9-1.42l6.46-21.84A2,2,0,0,0,342,315.94Z" transform="translate(-29.89 -21)"/><path class="cls-11" d="M342,315.94H318.08a2,2,0,0,0-1.9,2.55l6.46,21.84a2,2,0,0,0,1.9,1.42h10.95a2,2,0,0,0,1.9-1.42l6.46-21.84A2,2,0,0,0,342,315.94Z" transform="translate(-29.89 -21)"/></svg>