<svg id="Calque_1" data-name="Calque 1" xmlns="http://www.w3.org/2000/svg" viewBox="0 0 441.3 247.61"><defs><style>.cls-1{fill:#e8f2fa;}.cls-2{fill:#dceaff;}.cls-3,.cls-8{fill:#a9c2ff;}.cls-4,.cls-5{fill:#6d9ae5;}.cls-5{opacity:0.7;}.cls-6{fill:#7372de;}.cls-7{fill:#cedfff;}.cls-8{opacity:0.5;}.cls-9{fill:#e32d38;}.cls-10{fill:#ff565b;}.cls-11{fill:#e93841;}.cls-12{fill:#2a3967;}.cls-13{fill:#ffae73;}.cls-14{fill:#fff;}.cls-15{fill:#040743;}.cls-16{fill:#1e3865;}.cls-17{fill:#f99352;}.cls-18{fill:#2d3554;}.cls-19{fill:#0b3563;}.cls-20{fill:#033c7e;}.cls-21{fill:#f9924f;}.cls-22{fill:#25468f;}</style></defs><path class="cls-1" d="M48.4,314.85S17.49,290.71,39,233c12.71-34,55.57-28.8,53.4-89.89s37.34-87.74,108.17-60c51.11,20,127.75-70.53,191.11,43.3,24.43,43.9,67.2,38.21,78.58,118.5,3.12,21.94-1.55,44.92-24.61,69.94Z" transform="translate(-29.86 -67.75)"/><path class="cls-2" d="M235.07,169.24l3.69-2.74a1,1,0,0,1,1.06-.09c.44.23.89.43,1.35.62a16.52,16.52,0,0,0,2.58.84,1,1,0,0,1,.77.84l.73,4.75a1,1,0,0,0,1.05.84l4.39-.29a1,1,0,0,0,.91-.93l.18-4.42a1,1,0,0,1,.74-.92,17.82,17.82,0,0,0,5.1-2.32,1,1,0,0,1,1.23.1l2,1.82a1,1,0,0,0,1.36,0l3.26-2.9a.61.61,0,0,0,.17-.19,1,1,0,0,0,0-1.14l-2.05-2.77-.5-.67a16.55,16.55,0,0,0,1.11-2.23,17.76,17.76,0,0,0,1-3.17,1,1,0,0,1,.82-.78l3.83-.58a1,1,0,0,0,.86-1.07l-.22-3.36-.07-1a1,1,0,0,0-1-1l-3.7-.16a1,1,0,0,1-.91-.71,17.73,17.73,0,0,0-1.47-3.47l-.15-.28,0-.1a1,1,0,0,1,.18-1.1l3-3.23.09-.12a1,1,0,0,0-.08-1.23l-2.88-3.26a1,1,0,0,0-1.37-.15l-3.85,2.86a1,1,0,0,1-1.11,0,19.2,19.2,0,0,0-2.44-1.23c-.46-.18-.92-.35-1.38-.5a1,1,0,0,1-.7-.82l-.71-4.57a1,1,0,0,0-1-.84l-4.34.29a1,1,0,0,0-1,1l-.15,3.5a1,1,0,0,1-.81.95,17.71,17.71,0,0,0-5.14,1.87,1,1,0,0,1-1.18-.14l-2.91-2.65a1.05,1.05,0,0,0-1.39,0l-3.25,2.87a1,1,0,0,0-.14,1.35l.12.16,2.37,3.21a1,1,0,0,1,0,1.16h0a17.27,17.27,0,0,0-1.44,2.77c-.22.53-.4,1.05-.57,1.59a1,1,0,0,1-.81.7l-3.88.6a1,1,0,0,0-.88,1.08l.29,4.33a1.21,1.21,0,0,0,.08.34,1,1,0,0,0,.88.6l3,.12a1,1,0,0,1,.85.54,1.48,1.48,0,0,1,.1.27,17.66,17.66,0,0,0,2.7,6.45,1,1,0,0,1,0,1.09l-.1.14-2.39,2.61a1,1,0,0,0,0,1.35l.07.08,2.8,3.18A1,1,0,0,0,235.07,169.24Zm18.79-25.92a12.6,12.6,0,0,1,1.6,1.52,9.32,9.32,0,0,1,1.94,4.67l0,.47c.3,9.43-10.68,13.89-17.05,6.75a9.44,9.44,0,0,1-1.9-4,5.49,5.49,0,0,1-.13-.92,10.59,10.59,0,0,1,.38-3.7A9.53,9.53,0,0,1,253.86,143.32Z" transform="translate(-29.86 -67.75)"/><path class="cls-2" d="M264.55,123.7l3.17-1.73a.8.8,0,0,1,.84.06c.31.22.64.43,1,.62a13,13,0,0,0,1.91.94.79.79,0,0,1,.51.73l0,3.78a.78.78,0,0,0,.73.77l3.44.26a.78.78,0,0,0,.81-.63l.63-3.41a.75.75,0,0,1,.67-.63,14.29,14.29,0,0,0,4.23-1.24.79.79,0,0,1,.94.21l1.34,1.63a.8.8,0,0,0,1.05.16l2.86-1.89.16-.13a.79.79,0,0,0,.1-.89l-1.28-2.37-.32-.58a13.11,13.11,0,0,0,1.11-1.61,14,14,0,0,0,1.11-2.36.77.77,0,0,1,.72-.51l3,0a.8.8,0,0,0,.78-.74l.2-2.63.06-.75a.81.81,0,0,0-.66-.86l-2.86-.53a.78.78,0,0,1-.63-.65,13.66,13.66,0,0,0-.76-2.87,2.09,2.09,0,0,0-.08-.23l0-.08a.8.8,0,0,1,.26-.83l2.65-2.19a.3.3,0,0,0,.08-.08.81.81,0,0,0,.08-1l-1.88-2.85a.8.8,0,0,0-1.05-.26l-3.31,1.8a.77.77,0,0,1-.87-.09,14.72,14.72,0,0,0-1.75-1.22q-.51-.3-1-.54a.82.82,0,0,1-.45-.72l0-3.63a.78.78,0,0,0-.71-.77l-3.41-.25a.82.82,0,0,0-.86.66l-.5,2.71a.81.81,0,0,1-.73.65,13.69,13.69,0,0,0-4.2.88.79.79,0,0,1-.9-.24l-2-2.38a.82.82,0,0,0-1.08-.16l-2.84,1.87a.78.78,0,0,0-.26,1l.08.14,1.49,2.76a.8.8,0,0,1-.1.91h0a13.16,13.16,0,0,0-1.43,2,10.84,10.84,0,0,0-.61,1.17.79.79,0,0,1-.71.45l-3.09,0a.81.81,0,0,0-.8.75l-.25,3.39a.8.8,0,0,0,0,.27.82.82,0,0,0,.62.57l2.28.42a.82.82,0,0,1,.65.73,13.88,13.88,0,0,0,1.38,5.31.78.78,0,0,1-.1.85l-.1.09-2.14,1.77a.8.8,0,0,0-.16,1l0,.06,1.83,2.78A.82.82,0,0,0,264.55,123.7ZM282,105.64a8.71,8.71,0,0,1,1.07,1.35,7.31,7.31,0,0,1,1,3.85l0,.36a7.53,7.53,0,0,1-15,.08,4.44,4.44,0,0,1,0-.73,8.35,8.35,0,0,1,.7-2.83A7.48,7.48,0,0,1,282,105.64Z" transform="translate(-29.86 -67.75)"/><path class="cls-2" d="M406.85,264.85l3.92-2.12a1,1,0,0,1,1,.06q.58.4,1.2.78a16.66,16.66,0,0,0,2.37,1.15,1,1,0,0,1,.62.91l.05,4.66a1,1,0,0,0,.9.95l4.24.32a1,1,0,0,0,1-.77l.79-4.22a.94.94,0,0,1,.83-.78,17.35,17.35,0,0,0,5.21-1.53,1,1,0,0,1,1.17.26l1.66,2a1,1,0,0,0,1.29.2l3.53-2.34a.74.74,0,0,0,.19-.16,1,1,0,0,0,.13-1.1l-1.58-2.93-.39-.71a17.44,17.44,0,0,0,1.36-2,16.36,16.36,0,0,0,1.37-2.91,1,1,0,0,1,.89-.63l3.75,0a1,1,0,0,0,1-.91l.25-3.25.07-.93a1,1,0,0,0-.81-1.06l-3.53-.66a.93.93,0,0,1-.78-.8,17,17,0,0,0-.94-3.53,2,2,0,0,0-.1-.29.19.19,0,0,1,0-.1,1,1,0,0,1,.32-1l3.26-2.7.11-.1a1,1,0,0,0,.09-1.19l-2.32-3.52a1,1,0,0,0-1.29-.33l-4.09,2.22a.94.94,0,0,1-1.07-.11,17.74,17.74,0,0,0-2.17-1.5,13.75,13.75,0,0,0-1.25-.67,1,1,0,0,1-.57-.89l-.05-4.48a1,1,0,0,0-.88-.95l-4.21-.31a1,1,0,0,0-1.06.82l-.62,3.34a1,1,0,0,1-.9.8,17.05,17.05,0,0,0-5.19,1.09,1,1,0,0,1-1.11-.29l-2.43-2.95a1,1,0,0,0-1.33-.2l-3.51,2.31a1,1,0,0,0-.32,1.27l.09.17,1.84,3.41a1,1,0,0,1-.12,1.12h0a16.85,16.85,0,0,0-1.76,2.46c-.28.48-.53,1-.76,1.45a1,1,0,0,1-.87.57l-3.81,0a1,1,0,0,0-1,.93l-.31,4.18a1.34,1.34,0,0,0,0,.35,1,1,0,0,0,.77.69l2.81.52a1,1,0,0,1,.75.64.76.76,0,0,1,.05.27,17.2,17.2,0,0,0,1.72,6.55,1,1,0,0,1-.14,1.05l-.12.12-2.64,2.18a1,1,0,0,0-.2,1.29l.06.08,2.25,3.44A1,1,0,0,0,406.85,264.85Zm21.56-22.3a11.17,11.17,0,0,1,1.32,1.67A9,9,0,0,1,431,249c0,.15,0,.3,0,.45a9.3,9.3,0,0,1-18.56.1,5.52,5.52,0,0,1,0-.91,10.41,10.41,0,0,1,.87-3.49A9.24,9.24,0,0,1,428.41,242.55Z" transform="translate(-29.86 -67.75)"/><path class="cls-3" d="M430,224.22l2.1-1.14a.54.54,0,0,1,.55,0,7.22,7.22,0,0,0,.65.42,9.19,9.19,0,0,0,1.26.62.52.52,0,0,1,.33.48l0,2.5a.51.51,0,0,0,.48.5l2.27.17a.5.5,0,0,0,.54-.41l.41-2.25a.52.52,0,0,1,.45-.42,9.22,9.22,0,0,0,2.79-.82.52.52,0,0,1,.62.14l.89,1.08a.54.54,0,0,0,.69.11L446,224l.1-.09a.5.5,0,0,0,.07-.59l-.85-1.57-.2-.38a9,9,0,0,0,.73-1.06,9.59,9.59,0,0,0,.73-1.56.51.51,0,0,1,.47-.34l2,0a.52.52,0,0,0,.52-.48l.13-1.74,0-.5a.54.54,0,0,0-.43-.57l-1.89-.35a.51.51,0,0,1-.42-.43,8.94,8.94,0,0,0-.5-1.89.47.47,0,0,0-.06-.15.43.43,0,0,0,0,0,.54.54,0,0,1,.17-.56l1.75-1.44,0-.05a.53.53,0,0,0,.05-.64l-1.24-1.89a.53.53,0,0,0-.69-.17l-2.19,1.19a.5.5,0,0,1-.57-.06,10.87,10.87,0,0,0-1.16-.81c-.22-.13-.44-.24-.67-.35a.55.55,0,0,1-.3-.48l0-2.4a.51.51,0,0,0-.47-.5l-2.25-.17a.54.54,0,0,0-.57.44L438,206.1a.55.55,0,0,1-.49.44,8.78,8.78,0,0,0-2.77.58.51.51,0,0,1-.59-.16l-1.31-1.57a.53.53,0,0,0-.71-.11l-1.87,1.23a.51.51,0,0,0-.17.68l0,.1,1,1.82a.53.53,0,0,1-.07.6h0a9.2,9.2,0,0,0-.94,1.32c-.15.25-.28.51-.41.77a.51.51,0,0,1-.46.3l-2,0a.53.53,0,0,0-.53.5l-.17,2.24a1.1,1.1,0,0,0,0,.18.52.52,0,0,0,.41.37l1.51.28a.55.55,0,0,1,.4.34l0,.14a9.31,9.31,0,0,0,.91,3.51.5.5,0,0,1-.07.56l-.06.06-1.42,1.17a.52.52,0,0,0-.1.69l0,.05,1.2,1.83A.54.54,0,0,0,430,224.22Zm11.54-11.93a6.45,6.45,0,0,1,.71.89,4.81,4.81,0,0,1,.65,2.54,1.94,1.94,0,0,1,0,.24,5,5,0,0,1-9.93,0,3.84,3.84,0,0,1,0-.48,5.77,5.77,0,0,1,.47-1.87A4.94,4.94,0,0,1,441.58,212.29Z" transform="translate(-29.86 -67.75)"/><path class="cls-2" d="M80.93,224.64l2.3-1.24a.57.57,0,0,1,.6,0c.23.16.46.31.71.46a11,11,0,0,0,1.38.68.56.56,0,0,1,.37.53l0,2.73a.57.57,0,0,0,.52.56l2.5.19a.55.55,0,0,0,.58-.45l.46-2.48a.56.56,0,0,1,.49-.46,10,10,0,0,0,3.06-.89.57.57,0,0,1,.68.15l1,1.18a.59.59,0,0,0,.76.12l2.07-1.37a.58.58,0,0,0,.12-.1.56.56,0,0,0,.07-.64l-.93-1.72-.23-.42a10.87,10.87,0,0,0,.81-1.16,11,11,0,0,0,.8-1.71.55.55,0,0,1,.52-.37l2.2,0a.59.59,0,0,0,.57-.54l.14-1.91,0-.54a.57.57,0,0,0-.47-.62l-2.07-.39a.55.55,0,0,1-.46-.47A9.88,9.88,0,0,0,99,211.7a1.15,1.15,0,0,0-.06-.17s0,0,0-.06a.58.58,0,0,1,.19-.6l1.92-1.59.06-.05a.59.59,0,0,0,0-.7l-1.36-2.07a.58.58,0,0,0-.76-.19l-2.39,1.3a.54.54,0,0,1-.63-.06,9.65,9.65,0,0,0-1.28-.88,7.43,7.43,0,0,0-.73-.4.57.57,0,0,1-.33-.52l0-2.63a.56.56,0,0,0-.52-.55l-2.47-.18a.59.59,0,0,0-.62.48l-.36,1.95a.58.58,0,0,1-.53.48,10.23,10.23,0,0,0-3,.63.58.58,0,0,1-.65-.17L84,204a.58.58,0,0,0-.78-.12l-2.06,1.35A.57.57,0,0,0,81,206l.06.1,1.08,2a.58.58,0,0,1-.08.65h0a10.82,10.82,0,0,0-1,1.45c-.16.28-.31.56-.45.85a.56.56,0,0,1-.51.33l-2.23,0a.58.58,0,0,0-.58.54L77,214.38a.44.44,0,0,0,0,.2.59.59,0,0,0,.44.41l1.66.3a.57.57,0,0,1,.43.38.83.83,0,0,1,0,.15,9.94,9.94,0,0,0,1,3.85.55.55,0,0,1-.08.61.23.23,0,0,1-.07.07l-1.55,1.28a.57.57,0,0,0-.11.76l0,.05,1.32,2A.58.58,0,0,0,80.93,224.64Zm12.64-13.08a7,7,0,0,1,.78,1,5.36,5.36,0,0,1,.72,2.79,2.11,2.11,0,0,1,0,.26A5.47,5.47,0,0,1,84.92,218a5.39,5.39,0,0,1-.76-2.38,4.68,4.68,0,0,1,0-.53,6.24,6.24,0,0,1,.51-2.05A5.42,5.42,0,0,1,93.57,211.56Z" transform="translate(-29.86 -67.75)"/><path class="cls-2" d="M290.69,186.14l5.91-4.23a1.62,1.62,0,0,1,1.68-.11c.68.37,1.38.7,2.1,1a27.1,27.1,0,0,0,4.06,1.4,1.59,1.59,0,0,1,1.19,1.33l1,7.53a1.55,1.55,0,0,0,1.63,1.35l6.94-.34a1.54,1.54,0,0,0,1.46-1.44l.41-7a1.55,1.55,0,0,1,1.19-1.43,28.21,28.21,0,0,0,8.12-3.53,1.6,1.6,0,0,1,1.94.19l3.09,2.92a1.63,1.63,0,0,0,2.14.06l5.23-4.49a1.58,1.58,0,0,0,.28-.3,1.56,1.56,0,0,0,0-1.81l-3.15-4.41-.77-1.08a27.33,27.33,0,0,0,1.8-3.49,28.13,28.13,0,0,0,1.63-5,1.54,1.54,0,0,1,1.3-1.21l6.07-.82a1.6,1.6,0,0,0,1.38-1.67l-.26-5.3-.07-1.52a1.62,1.62,0,0,0-1.53-1.55l-5.84-.35a1.54,1.54,0,0,1-1.42-1.13,28,28,0,0,0-2.23-5.53c-.07-.16-.15-.3-.23-.45a1,1,0,0,1-.07-.15,1.58,1.58,0,0,1,.31-1.73l4.74-5a1.24,1.24,0,0,0,.14-.18,1.61,1.61,0,0,0-.09-1.95l-4.46-5.22a1.61,1.61,0,0,0-2.15-.27L328,133.67a1.54,1.54,0,0,1-1.75,0,28.19,28.19,0,0,0-3.82-2c-.71-.31-1.43-.58-2.16-.82a1.66,1.66,0,0,1-1.09-1.33l-1-7.24a1.56,1.56,0,0,0-1.62-1.34l-6.86.35a1.62,1.62,0,0,0-1.55,1.53l-.33,5.52a1.62,1.62,0,0,1-1.31,1.49,27.81,27.81,0,0,0-8.16,2.81,1.63,1.63,0,0,1-1.86-.25L292,128.16a1.66,1.66,0,0,0-2.19-.06l-5.2,4.45a1.57,1.57,0,0,0-.26,2.12l.18.26,3.67,5.13a1.61,1.61,0,0,1,0,1.83h0a27.75,27.75,0,0,0-2.34,4.34c-.36.83-.66,1.65-.94,2.49a1.59,1.59,0,0,1-1.29,1.1l-6.16.83a1.63,1.63,0,0,0-1.41,1.7l.34,6.83a1.59,1.59,0,0,0,.13.54,1.61,1.61,0,0,0,1.37,1l4.67.27a1.59,1.59,0,0,1,1.33.87,2,2,0,0,1,.14.43,27.93,27.93,0,0,0,4.1,10.25,1.56,1.56,0,0,1,0,1.72.83.83,0,0,1-.16.21l-3.84,4.07a1.6,1.6,0,0,0-.06,2.13l.11.12,4.34,5.1A1.63,1.63,0,0,0,290.69,186.14Zm30.36-40.43a19,19,0,0,1,2.48,2.44,14.71,14.71,0,0,1,3,7.43l0,.74c.22,14.89-17.23,21.64-27.11,10.21a15.35,15.35,0,0,1-2.89-6.31,8.8,8.8,0,0,1-.18-1.46,17.08,17.08,0,0,1,.7-5.82A15.05,15.05,0,0,1,321.05,145.71Z" transform="translate(-29.86 -67.75)"/><path class="cls-2" d="M107.26,173.6c1.85-9.39,17.59-7.6,17.59-7.6s11.68,15.38,14.78,15.55-7.42-15.1-7.42-15.1c5.91-1,21.57,5.24,21.57,5.24s.36,18.87,3.4,18.27S156,173.27,156,173.27c5.87,1.32,11.71,7.66,11.71,7.66,7.48,10.47-6.34,19.53-6.34,19.53a30.6,30.6,0,0,0,4.82,13.74h0a22.75,22.75,0,0,1,2.09,3.6l-1.57.11c-.16-.41-.33-.81-.51-1.19h0c-.13-.24-.3-.57-.53-1h0c-.54-.91-.92-1.58-1.16-2.06h0c-1.64-2.84-4-6.54-5.41-7.25a3.12,3.12,0,0,0,.28-.74c-.09.24-.19.49-.28.74-2.29,5.95-15.65,7.85-23.24,6.84s-4.48-3.35-.69-7.06,12.3-3.4,14.7-4.91-1.34-2.61-6.3-1.88-7.11,5.9-15.11,7.23-15.21-13.39-15.21-13.39c5.69,1.33,15.45-2.43,15.7-4.38s-14.51-.72-16.85-1.13S105.41,183,107.26,173.6Z" transform="translate(-29.86 -67.75)"/><path class="cls-4" d="M234.05,209.29l-8.33,99s-.87,6,3.59,6c7.34,0,36.53,0,36.53,0s-5.52-1.25-5.45-4.06c.07-3.31,9.73-101.89,9.73-101.89Z" transform="translate(-29.86 -67.75)"/><path class="cls-3" d="M268.21,312.5c-1.44,0-29.32.09-36.47,0-3.11,0-3.66-2.77-3.69-4.53a8.92,8.92,0,0,1,.1-1.48l.21-2.57.56-6.56.48-5.79.63-7.45.53-6.28,5.91-70.35,36.07-.93s-4.06,41.25-6.94,71.28c-.32,3.34-.62,6.55-.91,9.55-.09.95-.18,1.89-.26,2.8-.27,2.84-.51,5.45-.72,7.75-.12,1.21-.22,2.34-.31,3.38-.37,4-.58,6.63-.59,7.12a4.86,4.86,0,0,0,.07.8C263.47,312.4,267.67,312.5,268.21,312.5Z" transform="translate(-29.86 -67.75)"/><polygon class="cls-3" points="116.59 87.67 136.87 169.13 139.64 180.29 149.09 218.23 324.57 218.23 289.76 87.67 116.59 87.67"/><polygon class="cls-4" points="116.59 87.67 113.78 88.61 145.35 221.06 149.09 218.23 116.59 87.67"/><polygon class="cls-4" points="145.35 221.06 319.75 221.06 324.57 218.23 149.09 218.23 145.35 221.06"/><rect class="cls-3" x="236.46" y="312.54" width="37.76" height="1.79" transform="translate(480.82 559.13) rotate(180)"/><polygon class="cls-5" points="234.76 221.06 234.56 222.43 199.05 229.61 199.54 223.81 199.77 221.06 234.76 221.06"/><path class="cls-6" d="M268.21,312.5c-1.44,0-29.32.09-36.47,0-3.11,0-3.66-2.77-3.69-4.53l35.35-6.65c-.37,4-.58,6.63-.59,7.12a4.86,4.86,0,0,0,.07.8C263.47,312.4,267.67,312.5,268.21,312.5Z" transform="translate(-29.86 -67.75)"/><polygon class="cls-6" points="226.18 191.8 149.09 218.23 139.64 180.29 226.18 191.8"/><polygon class="cls-7" points="116.59 87.67 289.76 87.67 317.64 192.6 142.72 192.6 116.59 87.67"/><polygon class="cls-8" points="123.57 91.4 148.44 186.98 309.25 186.98 284.1 92.5 123.57 91.4"/><rect class="cls-9" x="181.78" y="148.6" width="60.83" height="38.38"/><rect class="cls-10" x="212.19" y="148.6" width="60.83" height="38.38"/><polygon class="cls-11" points="212.19 154.27 199.37 167.09 181.81 167.09 181.81 148.6 212.19 148.6 212.19 154.27"/><polygon class="cls-10" points="181.78 148.6 168.1 161.79 198.53 161.79 212.19 148.6 181.78 148.6"/><polygon class="cls-9" points="273.02 149.96 212.19 148.6 212.19 153.46 212.19 153.46 212.19 154.26 223.5 166.66 273.02 166.66 273.02 154.31 272.7 153.94 273.02 153.94 273.02 149.96"/><polygon class="cls-10" points="212.19 148.6 224.23 161.79 284.25 161.79 273.02 148.6 212.19 148.6"/><path class="cls-12" d="M136.06,211.49s.43-4.6-4.72-4.6a6,6,0,0,1,2.36,1.26,6.09,6.09,0,0,0-6.85,1c-3.58,3-1.36,10.39-2.45,11.8s-5.32,1.7-4.8,6.26S133,237.53,132.21,241.3c0,0,5.06-7.44,1.44-10.84a6.75,6.75,0,0,1,1.94,3.64s.48-3.86-2-5.09c-2.17-1.09-4-5.08-3.76-5.8S136.06,211.49,136.06,211.49Z" transform="translate(-29.86 -67.75)"/><path class="cls-13" d="M131,233.62s3.85,15.92,7.63,19.1c2.27,1.91,9,6.3,9,6.3l-2.81,1s-9.36-3.16-11.46-5.62-7.83-14.82-7.83-14.82Z" transform="translate(-29.86 -67.75)"/><path class="cls-10" d="M153.14,264.84l-.91-2.24a6.35,6.35,0,0,0-5.88-4H129.67v55.76h69V269.21h-39A7,7,0,0,1,153.14,264.84Z" transform="translate(-29.86 -67.75)"/><path class="cls-14" d="M140.07,292.54v-4l14.1-6.18v4.11l-9.84,4.05,9.84,4.05v4.16Z" transform="translate(-29.86 -67.75)"/><path class="cls-14" d="M168.82,277.54h3.76l-12.9,27h-3.76Z" transform="translate(-29.86 -67.75)"/><path class="cls-14" d="M188.25,288.52v4l-14.1,6.17v-4.1l9.85-4.05-9.85-4.05v-4.17Z" transform="translate(-29.86 -67.75)"/><path class="cls-15" d="M94.84,261.59l.1.18c.84,1.47,2.77,5.05,4.9,9,1,1.87,2.06,3.8,3.06,5.63,1.72,3.14,3.29,5.95,4.2,7.43s1.62,2.56,1.89,3h0a.72.72,0,0,1,.09.43,22.62,22.62,0,0,0,.06,3.95A30.26,30.26,0,0,0,119,310.78l2.56.37s-3.62-13.41-4.69-21a14.87,14.87,0,0,1-.2-3,31.56,31.56,0,0,0-.82-8.21,184.74,184.74,0,0,0-5.24-19c-.12-.37-3.72-13.39-3.72-13.39-3,2.64-14,3.73-14,3.73S91,254.81,94.84,261.59Z" transform="translate(-29.86 -67.75)"/><path class="cls-16" d="M127,314.39H116.29a5.82,5.82,0,0,1,.3-2.86c.53-1.19,1.3-1.22.1-3.08.68.7,2.86,1,4.4.78a13.24,13.24,0,0,0,1.85,2.82C123.64,312.55,126.75,312.37,127,314.39Z" transform="translate(-29.86 -67.75)"/><path class="cls-16" d="M94.84,261.59l.1.18c.84,1.47,5.4,9.88,7.52,13.8a57,57,0,0,1-.75-20.28Z" transform="translate(-29.86 -67.75)"/><path class="cls-12" d="M134.61,210.85c.07-.28-6.1,2.79-6.42,3.13-2.89,3.21-2.07,7.4-.41,7.44,1.06,0,.86,1.79.86,1.79l11.83-5S139,209.9,134.61,210.85Z" transform="translate(-29.86 -67.75)"/><path class="cls-10" d="M130.63,231.23s1.8,3.6,1.58,6.52c0,0-2.17,3.43-7.81,4.29C124.4,242,129.25,231.23,130.63,231.23Z" transform="translate(-29.86 -67.75)"/><path class="cls-15" d="M103.16,251.07l0-2c-4,.5-13.73-4.76-13.73-4.76s-4.16,2.77-4.73,10.68c-.28,3.86-2,20.19-2.23,25.06-.07,1.77-.1,3-.11,3.54h0a.7.7,0,0,1-.16.41,22.63,22.63,0,0,0-2.16,3.31C74,298.61,77.18,314,77.18,314l1.41-.35s5.14-15.92,8.49-22.81a14.64,14.64,0,0,1,1.52-2.6,31,31,0,0,0,3.91-7.27C95,275,103.16,251.07,103.16,251.07Z" transform="translate(-29.86 -67.75)"/><path class="cls-16" d="M85.68,314.39H75a5.88,5.88,0,0,1,.31-2.86c.53-1.19,1.37-1.72,1.17-3.16a3.86,3.86,0,0,0,3.33,1.28,12.14,12.14,0,0,0,1.85,2.4C82.35,312.55,85.46,312.37,85.68,314.39Z" transform="translate(-29.86 -67.75)"/><path class="cls-10" d="M123.68,244.34c-1.43.24.24,1.38-1.74,1.6-2.8.3-5.7.51-7.22,1.12-.56.22-.93.49-1,.84-.66,2-4.83,5.38-4.83,5.38-18.6-.84-19.8-9.13-19.8-9.13,12.07-11.73,22.34-18.12,30.83-18.91a15.21,15.21,0,0,1,6.16.65c3,1.32,4.59,5.34,4.59,5.34S129.14,243.41,123.68,244.34Z" transform="translate(-29.86 -67.75)"/><path class="cls-9" d="M121.94,245.94c-2.8.3-5.7.51-7.22,1.12a29.62,29.62,0,0,1,3.75-16.25S121.33,242.43,121.94,245.94Z" transform="translate(-29.86 -67.75)"/><path class="cls-13" d="M124.37,229.23s-7.07-.38-8.32,4.05,2.35,22.14,3.13,24c1.42,3.32,8.31,12.81,8.31,12.81l2.54-.77s-4.6-14.5-5.63-15.93C122.79,251.1,126.48,231.16,124.37,229.23Z" transform="translate(-29.86 -67.75)"/><path class="cls-13" d="M130,269.29a4,4,0,0,0,.6,1.71c.48.58,1.86,2,1.89,2.81,0,0-.07.36-.37.29s-1.33-1.08-1.85-1a10.11,10.11,0,0,0,.56,2.11,6.17,6.17,0,0,1-.11,2.84c-.17.4-2.23-2.15-3.08-3.29s0-5.77,0-5.77Z" transform="translate(-29.86 -67.75)"/><path class="cls-10" d="M114.66,239.21c0,.11,6.68,1.23,10.85-.89,0,0,3.48-10.91-1.49-10.39s-7.93,2.09-8,4.48A46.38,46.38,0,0,1,114.66,239.21Z" transform="translate(-29.86 -67.75)"/><path class="cls-13" d="M125.88,226.66c.53,1.66,2.3,6.4,4.75,4.57a6,6,0,0,1,1-2.42c.78-1.34,1.7-2.7,1.7-2.7l-4-3.5-.23-.21a10.25,10.25,0,0,1-3,3.37A.8.8,0,0,0,125.88,226.66Z" transform="translate(-29.86 -67.75)"/><path class="cls-17" d="M133.37,226.11s-.92,1.36-1.7,2.7c-2.48-1.53-2.49-4.61-2.3-6.2Z" transform="translate(-29.86 -67.75)"/><path class="cls-13" d="M133.48,227.86s-6-3.35-3.88-7.08,2.81-6.67,6.76-4.68,3.86,3.84,3.45,5.25S135.11,228.64,133.48,227.86Z" transform="translate(-29.86 -67.75)"/><path class="cls-12" d="M140.83,219.18c-.28-1.65-1.12-1.81-1.71-1.7a4.82,4.82,0,0,0-5.86-2.25,8.25,8.25,0,0,1-4.76,2.86s.7,1.3,3.59,2.11a4.92,4.92,0,0,0,2.84-.23,15.82,15.82,0,0,1-4.09,1.54c3.8.35,7.42-3.12,7.79-3.49a5.37,5.37,0,0,1,.3,2.49c-.25,1.12-1.25,3.14-.64,3.41C138.29,223.92,141.24,221.66,140.83,219.18Z" transform="translate(-29.86 -67.75)"/><path class="cls-13" d="M148.74,259s-1.68,1.26-.41,2.09,3.53,1.05,3.54.51C151.9,259.81,151,258.51,148.74,259Z" transform="translate(-29.86 -67.75)"/><rect class="cls-18" y="246.58" width="433.59" height="1.03" rx="0.47"/><path class="cls-10" d="M173.11,189.72c-.2-.81.16-1.44.91-1.45a1.76,1.76,0,0,1,1.59,1.44c.2.81-.15,1.45-.9,1.45A1.75,1.75,0,0,1,173.11,189.72Zm1.87,0c-.12-.51-.47-.89-.84-.89s-.52.37-.39.89.46.89.83.89S175.1,190.23,175,189.72Z" transform="translate(-29.86 -67.75)"/><path class="cls-6" d="M162.28,168.76l-.46.12-.25-.5.75-.24h.42l.68,2.81h-.61Z" transform="translate(-29.86 -67.75)"/><path class="cls-6" d="M164.48,169.55c-.2-.81.16-1.44.91-1.44a1.77,1.77,0,0,1,1.6,1.44c.19.81-.16,1.44-.91,1.44A1.75,1.75,0,0,1,164.48,169.55Zm1.87,0c-.12-.51-.47-.89-.84-.89s-.52.37-.39.89.46.89.83.89S166.47,170.06,166.35,169.55Z" transform="translate(-29.86 -67.75)"/><path class="cls-6" d="M213.83,168.67l-.46.12-.25-.5.75-.24h.42l.68,2.81h-.61Z" transform="translate(-29.86 -67.75)"/><path class="cls-6" d="M216,169.46c-.2-.81.15-1.44.9-1.44a1.75,1.75,0,0,1,1.6,1.43c.2.81-.15,1.45-.91,1.45A1.74,1.74,0,0,1,216,169.46Zm1.86,0c-.12-.51-.46-.89-.83-.89s-.52.37-.4.89.46.89.84.89S218,170,217.89,169.46Z" transform="translate(-29.86 -67.75)"/><path class="cls-6" d="M219.77,169.45c-.19-.81.16-1.44.91-1.44a1.77,1.77,0,0,1,1.6,1.44c.19.81-.16,1.44-.91,1.44A1.76,1.76,0,0,1,219.77,169.45Zm1.87,0c-.12-.51-.46-.89-.84-.89s-.52.37-.39.89.46.89.83.89S221.76,170,221.64,169.45Z" transform="translate(-29.86 -67.75)"/><path class="cls-6" d="M238.93,169.46c-.2-.81.15-1.44.9-1.44a1.75,1.75,0,0,1,1.6,1.43c.2.81-.15,1.45-.91,1.45A1.74,1.74,0,0,1,238.93,169.46Zm1.87,0c-.13-.51-.47-.89-.84-.89s-.52.37-.4.89.46.89.84.89S240.92,170,240.8,169.46Z" transform="translate(-29.86 -67.75)"/><path class="cls-6" d="M242.67,169.45c-.19-.81.16-1.44.91-1.44a1.77,1.77,0,0,1,1.6,1.44c.19.81-.16,1.44-.91,1.44A1.76,1.76,0,0,1,242.67,169.45Zm1.87,0c-.12-.51-.46-.89-.83-.89s-.53.37-.4.89.46.89.83.89S244.66,170,244.54,169.45Z" transform="translate(-29.86 -67.75)"/><path class="cls-6" d="M246.42,169.45c-.2-.81.16-1.45.9-1.45a1.77,1.77,0,0,1,1.6,1.44c.2.81-.15,1.45-.91,1.45A1.75,1.75,0,0,1,246.42,169.45Zm1.87,0c-.13-.5-.47-.88-.84-.88s-.52.37-.4.89.46.88.84.88S248.41,170,248.29,169.44Z" transform="translate(-29.86 -67.75)"/><path class="cls-6" d="M272.46,169.38c-.2-.81.15-1.44.9-1.44a1.76,1.76,0,0,1,1.6,1.44c.2.81-.15,1.44-.91,1.44A1.74,1.74,0,0,1,272.46,169.38Zm1.86,0c-.12-.51-.46-.89-.83-.89s-.52.37-.4.89.46.89.84.89S274.45,169.89,274.32,169.38Z" transform="translate(-29.86 -67.75)"/><path class="cls-6" d="M276,169.38c-.2-.81.16-1.45.91-1.45a1.78,1.78,0,0,1,1.6,1.44c.19.81-.16,1.45-.91,1.45A1.76,1.76,0,0,1,276,169.38Zm1.87,0c-.12-.5-.47-.88-.84-.88s-.52.37-.39.89.46.88.83.88S278,169.89,277.91,169.37Z" transform="translate(-29.86 -67.75)"/><path class="cls-6" d="M279.94,169.37c-.2-.81.16-1.44.91-1.44a1.74,1.74,0,0,1,1.59,1.44c.2.8-.15,1.44-.9,1.44A1.75,1.75,0,0,1,279.94,169.37Zm1.87,0c-.13-.51-.47-.89-.84-.89s-.52.37-.4.89.47.89.84.89S281.93,169.88,281.81,169.37Z" transform="translate(-29.86 -67.75)"/><path class="cls-6" d="M286.31,169.36c-.2-.81.15-1.44.9-1.44a1.75,1.75,0,0,1,1.6,1.44c.2.8-.15,1.44-.91,1.44A1.74,1.74,0,0,1,286.31,169.36Zm1.86,0c-.12-.51-.46-.89-.83-.89s-.52.37-.4.89.46.89.84.89S288.3,169.87,288.17,169.36Z" transform="translate(-29.86 -67.75)"/><path class="cls-6" d="M290.34,168.56l-.46.12-.25-.5.75-.24h.42l.68,2.81h-.61Z" transform="translate(-29.86 -67.75)"/><path class="cls-6" d="M292.54,169.35c-.2-.81.15-1.44.9-1.44a1.75,1.75,0,0,1,1.6,1.43c.2.81-.15,1.45-.91,1.45A1.74,1.74,0,0,1,292.54,169.35Zm1.86,0c-.12-.51-.46-.89-.83-.89s-.52.37-.4.89.46.89.84.89S294.53,169.86,294.4,169.35Z" transform="translate(-29.86 -67.75)"/><path class="cls-6" d="M298.78,169.33c-.2-.81.16-1.44.9-1.44a1.76,1.76,0,0,1,1.6,1.44c.2.81-.15,1.44-.91,1.44A1.74,1.74,0,0,1,298.78,169.33Zm1.87,0c-.13-.51-.47-.89-.84-.89s-.52.37-.4.89.46.89.84.89S300.77,169.84,300.65,169.33Z" transform="translate(-29.86 -67.75)"/><path class="cls-6" d="M190.77,175.58c-.2-.81.15-1.44.9-1.44a1.76,1.76,0,0,1,1.6,1.44c.2.81-.15,1.44-.91,1.44A1.74,1.74,0,0,1,190.77,175.58Zm1.87,0c-.13-.51-.47-.89-.84-.89s-.52.37-.4.89.46.89.84.89S192.76,176.09,192.64,175.58Z" transform="translate(-29.86 -67.75)"/><path class="cls-6" d="M194.51,175.57c-.19-.8.16-1.44.91-1.44a1.77,1.77,0,0,1,1.6,1.44c.19.81-.16,1.44-.91,1.44A1.75,1.75,0,0,1,194.51,175.57Zm1.87,0c-.12-.5-.46-.89-.83-.89s-.53.38-.4.89.46.89.83.89S196.5,176.09,196.38,175.57Z" transform="translate(-29.86 -67.75)"/><path class="cls-6" d="M287.78,175.43c-.2-.81.15-1.44.9-1.44a1.75,1.75,0,0,1,1.6,1.44c.2.8-.15,1.44-.91,1.44A1.74,1.74,0,0,1,287.78,175.43Zm1.86,0c-.12-.51-.46-.89-.83-.89s-.52.37-.4.89.46.89.84.89S289.77,175.94,289.64,175.43Z" transform="translate(-29.86 -67.75)"/><path class="cls-6" d="M291.81,174.63l-.46.12-.25-.5.75-.24h.42l.68,2.81h-.61Z" transform="translate(-29.86 -67.75)"/><path class="cls-6" d="M294,175.42c-.2-.81.15-1.44.9-1.45a1.77,1.77,0,0,1,1.6,1.44c.2.81-.15,1.45-.91,1.45A1.74,1.74,0,0,1,294,175.42Zm1.86,0c-.12-.51-.46-.89-.83-.89s-.52.37-.4.89.46.89.84.89S296,175.93,295.87,175.42Z" transform="translate(-29.86 -67.75)"/><path class="cls-6" d="M307.74,175.39c-.2-.81.16-1.44.91-1.44a1.74,1.74,0,0,1,1.59,1.44c.2.8-.15,1.44-.9,1.44A1.75,1.75,0,0,1,307.74,175.39Zm1.87,0c-.13-.51-.47-.89-.84-.89s-.52.37-.4.89.47.89.84.89S309.73,175.9,309.61,175.39Z" transform="translate(-29.86 -67.75)"/><path class="cls-6" d="M311.77,174.59l-.46.12-.25-.5.75-.24h.42l.68,2.81h-.61Z" transform="translate(-29.86 -67.75)"/><path class="cls-6" d="M187.62,208.35c-.2-.81.15-1.44.9-1.44a1.76,1.76,0,0,1,1.6,1.44c.2.81-.15,1.44-.91,1.44A1.74,1.74,0,0,1,187.62,208.35Zm1.86,0c-.12-.51-.46-.89-.83-.89s-.52.37-.4.89.46.89.84.89S189.61,208.86,189.48,208.35Z" transform="translate(-29.86 -67.75)"/><path class="cls-6" d="M191.36,208.35c-.19-.81.16-1.45.91-1.45a1.78,1.78,0,0,1,1.6,1.44c.19.81-.16,1.44-.91,1.45A1.77,1.77,0,0,1,191.36,208.35Zm1.87,0c-.12-.5-.47-.89-.84-.88s-.52.37-.39.88.46.89.83.89S193.35,208.86,193.23,208.34Z" transform="translate(-29.86 -67.75)"/><path class="cls-6" d="M195.39,207.55l-.46.12-.25-.51.75-.24h.43l.68,2.81h-.62Z" transform="translate(-29.86 -67.75)"/><path class="cls-6" d="M201.34,208.33c-.2-.81.15-1.44.9-1.44a1.75,1.75,0,0,1,1.6,1.43c.2.81-.15,1.45-.91,1.45A1.74,1.74,0,0,1,201.34,208.33Zm1.87,0c-.13-.51-.47-.89-.84-.89s-.52.37-.4.89.46.89.84.89S203.33,208.84,203.21,208.33Z" transform="translate(-29.86 -67.75)"/><path class="cls-6" d="M205.08,208.32c-.19-.81.16-1.44.91-1.44a1.77,1.77,0,0,1,1.6,1.44c.19.81-.16,1.44-.91,1.44A1.76,1.76,0,0,1,205.08,208.32Zm1.87,0c-.12-.51-.46-.89-.83-.89s-.53.37-.4.89.46.89.83.89S207.08,208.83,207,208.32Z" transform="translate(-29.86 -67.75)"/><path class="cls-6" d="M208.83,208.32c-.2-.81.16-1.45.9-1.45a1.77,1.77,0,0,1,1.6,1.44c.2.81-.15,1.45-.9,1.45A1.76,1.76,0,0,1,208.83,208.32Zm1.87,0c-.13-.5-.47-.88-.84-.88s-.52.37-.4.89.46.88.84.88S210.82,208.83,210.7,208.31Z" transform="translate(-29.86 -67.75)"/><path class="cls-6" d="M255.59,208.35c-.2-.81.15-1.44.9-1.44a1.76,1.76,0,0,1,1.6,1.44c.2.81-.15,1.44-.91,1.44A1.74,1.74,0,0,1,255.59,208.35Zm1.86,0c-.12-.51-.46-.89-.83-.89s-.52.37-.4.89.46.89.84.89S257.58,208.86,257.45,208.35Z" transform="translate(-29.86 -67.75)"/><path class="cls-6" d="M259.33,208.35c-.19-.81.16-1.45.91-1.45a1.78,1.78,0,0,1,1.6,1.44c.19.81-.16,1.44-.91,1.45A1.77,1.77,0,0,1,259.33,208.35Zm1.87,0c-.12-.5-.47-.89-.84-.88s-.52.37-.39.88.46.89.83.89S261.32,208.86,261.2,208.34Z" transform="translate(-29.86 -67.75)"/><path class="cls-6" d="M263.36,207.55l-.46.12-.25-.51.75-.24h.43l.68,2.81h-.62Z" transform="translate(-29.86 -67.75)"/><path class="cls-6" d="M280.7,208.35c-.2-.81.15-1.44.9-1.44a1.76,1.76,0,0,1,1.6,1.44c.2.81-.15,1.44-.91,1.44A1.74,1.74,0,0,1,280.7,208.35Zm1.86,0c-.12-.51-.46-.89-.83-.89s-.52.37-.4.89.46.89.84.89S282.69,208.86,282.56,208.35Z" transform="translate(-29.86 -67.75)"/><path class="cls-6" d="M284.44,208.35c-.19-.81.16-1.45.91-1.45a1.78,1.78,0,0,1,1.6,1.44c.19.81-.16,1.44-.91,1.45A1.77,1.77,0,0,1,284.44,208.35Zm1.87,0c-.12-.5-.47-.89-.84-.88s-.52.37-.39.88.46.89.83.89S286.43,208.86,286.31,208.34Z" transform="translate(-29.86 -67.75)"/><path class="cls-6" d="M288.47,207.55l-.46.12-.25-.51.75-.24h.43l.68,2.81H289Z" transform="translate(-29.86 -67.75)"/><path class="cls-6" d="M269.31,208.33c-.2-.81.15-1.44.9-1.44a1.75,1.75,0,0,1,1.6,1.43c.2.81-.15,1.45-.91,1.45A1.74,1.74,0,0,1,269.31,208.33Zm1.87,0c-.13-.51-.47-.89-.84-.89s-.52.37-.4.89.46.89.84.89S271.3,208.84,271.18,208.33Z" transform="translate(-29.86 -67.75)"/><path class="cls-6" d="M273.05,208.32c-.19-.81.16-1.44.91-1.44a1.77,1.77,0,0,1,1.6,1.44c.19.81-.16,1.44-.91,1.44A1.76,1.76,0,0,1,273.05,208.32Zm1.87,0c-.12-.51-.46-.89-.83-.89s-.53.37-.4.89.46.89.83.89S275.05,208.83,274.92,208.32Z" transform="translate(-29.86 -67.75)"/><path class="cls-6" d="M276.8,208.32c-.2-.81.16-1.45.9-1.45a1.77,1.77,0,0,1,1.6,1.44c.2.81-.15,1.45-.9,1.45A1.76,1.76,0,0,1,276.8,208.32Zm1.87,0c-.13-.5-.47-.88-.84-.88s-.52.37-.4.89.46.88.84.88S278.79,208.83,278.67,208.31Z" transform="translate(-29.86 -67.75)"/><path class="cls-6" d="M221.64,208.25c-.2-.81.15-1.44.9-1.44a1.76,1.76,0,0,1,1.6,1.44c.2.81-.15,1.44-.91,1.44A1.74,1.74,0,0,1,221.64,208.25Zm1.87,0c-.13-.51-.47-.89-.84-.89s-.52.37-.4.89.46.89.84.89S223.63,208.76,223.51,208.25Z" transform="translate(-29.86 -67.75)"/><path class="cls-6" d="M225.67,207.45l-.46.12-.25-.5.75-.24h.42l.68,2.81h-.61Z" transform="translate(-29.86 -67.75)"/><path class="cls-6" d="M227.87,208.24c-.2-.81.16-1.44.9-1.44a1.76,1.76,0,0,1,1.6,1.44c.2.81-.15,1.44-.91,1.44A1.74,1.74,0,0,1,227.87,208.24Zm1.87,0c-.13-.51-.47-.89-.84-.89s-.52.37-.4.89.46.89.84.89S229.86,208.75,229.74,208.24Z" transform="translate(-29.86 -67.75)"/><path class="cls-6" d="M302,208.17c-.2-.81.16-1.45.9-1.45a1.76,1.76,0,0,1,1.6,1.44c.2.81-.15,1.44-.91,1.45A1.75,1.75,0,0,1,302,208.17Zm1.87,0c-.13-.5-.47-.89-.84-.89s-.52.38-.4.89.46.89.84.89S303.94,208.68,303.82,208.16Z" transform="translate(-29.86 -67.75)"/><path class="cls-6" d="M306,207.37l-.46.12-.25-.51.75-.24h.42l.68,2.81h-.61Z" transform="translate(-29.86 -67.75)"/><path class="cls-6" d="M308.18,208.15c-.2-.8.16-1.44.9-1.44a1.76,1.76,0,0,1,1.6,1.44c.2.81-.15,1.44-.9,1.44A1.74,1.74,0,0,1,308.18,208.15Zm1.87,0c-.13-.5-.47-.89-.84-.89s-.52.38-.4.89.46.89.84.89S310.17,208.67,310.05,208.15Z" transform="translate(-29.86 -67.75)"/><path class="cls-6" d="M165.46,181.88,165,182l-.25-.51.75-.24h.42l.68,2.81H166Z" transform="translate(-29.86 -67.75)"/><path class="cls-6" d="M167.66,182.67c-.2-.8.16-1.44.9-1.44a1.76,1.76,0,0,1,1.6,1.44c.2.81-.15,1.44-.91,1.44A1.73,1.73,0,0,1,167.66,182.67Zm1.87,0c-.13-.51-.47-.89-.84-.89s-.52.38-.4.89.46.89.84.89S169.65,183.18,169.53,182.67Z" transform="translate(-29.86 -67.75)"/><path class="cls-6" d="M188.87,182.64c-.2-.81.16-1.44.91-1.45a1.76,1.76,0,0,1,1.59,1.44c.2.81-.15,1.45-.9,1.45A1.76,1.76,0,0,1,188.87,182.64Zm1.87,0c-.12-.51-.47-.89-.84-.89s-.52.37-.39.89.46.89.83.88S190.86,183.15,190.74,182.64Z" transform="translate(-29.86 -67.75)"/><path class="cls-6" d="M192.61,182.63c-.19-.81.16-1.44.91-1.44a1.76,1.76,0,0,1,1.6,1.44c.2.81-.15,1.44-.91,1.44A1.76,1.76,0,0,1,192.61,182.63Zm1.87,0c-.12-.51-.46-.89-.83-.89s-.52.37-.4.89.46.89.84.89S194.61,183.14,194.48,182.63Z" transform="translate(-29.86 -67.75)"/><path class="cls-6" d="M196.36,182.63c-.2-.81.16-1.45.91-1.45a1.75,1.75,0,0,1,1.59,1.44c.2.81-.15,1.44-.9,1.45A1.76,1.76,0,0,1,196.36,182.63Zm1.87,0c-.12-.5-.47-.89-.84-.88s-.52.37-.39.88.46.89.83.89S198.35,183.14,198.23,182.62Z" transform="translate(-29.86 -67.75)"/><path class="cls-6" d="M200.39,181.83l-.46.12-.25-.51.75-.24h.42l.68,2.81h-.61Z" transform="translate(-29.86 -67.75)"/><path class="cls-6" d="M202.9,181.82l-.46.12-.26-.5.76-.24h.42L204,184h-.61Z" transform="translate(-29.86 -67.75)"/><path class="cls-6" d="M205.1,182.61c-.2-.81.15-1.44.9-1.44a1.76,1.76,0,0,1,1.6,1.44c.2.81-.15,1.44-.91,1.44A1.74,1.74,0,0,1,205.1,182.61Zm1.86,0c-.12-.51-.46-.89-.83-.89s-.52.37-.4.89.46.89.84.89S207.09,183.12,207,182.61Z" transform="translate(-29.86 -67.75)"/><path class="cls-10" d="M302,182.45c-.19-.81.16-1.44.91-1.44a1.76,1.76,0,0,1,1.6,1.44c.2.81-.15,1.44-.91,1.44A1.76,1.76,0,0,1,302,182.45Zm1.87,0c-.12-.51-.46-.89-.83-.89s-.52.37-.4.89.46.89.84.89S304,183,303.82,182.45Z" transform="translate(-29.86 -67.75)"/><path class="cls-10" d="M305.7,182.45c-.2-.81.16-1.45.91-1.45a1.76,1.76,0,0,1,1.59,1.44c.2.81-.15,1.45-.9,1.45A1.76,1.76,0,0,1,305.7,182.45Zm1.87,0c-.12-.5-.47-.88-.84-.88s-.52.37-.39.89.46.88.83.88S307.69,183,307.57,182.44Z" transform="translate(-29.86 -67.75)"/><path class="cls-6" d="M309.45,182.44c-.2-.81.15-1.44.9-1.44a1.76,1.76,0,0,1,1.6,1.44c.2.81-.15,1.44-.91,1.44A1.74,1.74,0,0,1,309.45,182.44Zm1.86,0c-.12-.51-.46-.89-.83-.89s-.52.37-.4.89.46.89.84.89S311.44,183,311.31,182.44Z" transform="translate(-29.86 -67.75)"/><path class="cls-6" d="M313.48,181.64l-.46.12-.25-.5.75-.24h.42l.68,2.81H314Z" transform="translate(-29.86 -67.75)"/><path class="cls-6" d="M167.17,188.94l-.47.12-.25-.51.76-.24h.42l.68,2.81h-.61Z" transform="translate(-29.86 -67.75)"/><path class="cls-6" d="M169.36,189.73c-.19-.81.16-1.45.91-1.45a1.76,1.76,0,0,1,1.6,1.44c.2.81-.15,1.44-.91,1.45A1.77,1.77,0,0,1,169.36,189.73Zm1.87,0c-.12-.5-.46-.89-.83-.89s-.52.38-.4.89.46.89.84.89S171.36,190.24,171.23,189.72Z" transform="translate(-29.86 -67.75)"/><path class="cls-6" d="M186.83,189.7c-.19-.81.16-1.45.91-1.45a1.77,1.77,0,0,1,1.6,1.44c.19.81-.16,1.44-.91,1.45A1.77,1.77,0,0,1,186.83,189.7Zm1.87,0c-.12-.5-.47-.89-.84-.88s-.52.37-.39.88.46.89.83.89S188.82,190.21,188.7,189.69Z" transform="translate(-29.86 -67.75)"/><path class="cls-6" d="M190.58,189.69c-.2-.81.15-1.44.9-1.44a1.75,1.75,0,0,1,1.6,1.44c.2.8-.15,1.44-.91,1.44A1.74,1.74,0,0,1,190.58,189.69Zm1.87,0c-.13-.51-.47-.89-.84-.89s-.52.37-.4.89.46.89.84.89S192.57,190.2,192.45,189.69Z" transform="translate(-29.86 -67.75)"/><path class="cls-10" d="M176.37,203.34c-.19-.81.16-1.44.91-1.44a1.76,1.76,0,0,1,1.6,1.44c.19.8-.16,1.44-.91,1.44A1.76,1.76,0,0,1,176.37,203.34Zm1.87,0c-.12-.51-.46-.89-.83-.89s-.53.37-.4.89.46.89.83.89S178.36,203.85,178.24,203.34Z" transform="translate(-29.86 -67.75)"/><path class="cls-10" d="M180.4,202.54l-.46.12-.25-.5.75-.24h.43l.68,2.81h-.62Z" transform="translate(-29.86 -67.75)"/><path class="cls-6" d="M168.72,195.51l-.46.12-.25-.51.75-.24h.42l.68,2.81h-.61Z" transform="translate(-29.86 -67.75)"/><path class="cls-6" d="M170.92,196.29c-.2-.8.16-1.44.91-1.44a1.75,1.75,0,0,1,1.59,1.44c.2.81-.15,1.44-.9,1.44A1.74,1.74,0,0,1,170.92,196.29Zm1.87,0c-.12-.5-.47-.89-.84-.89s-.52.38-.39.89.46.89.83.89S172.91,196.81,172.79,196.29Z" transform="translate(-29.86 -67.75)"/><path class="cls-6" d="M174.66,196.29c-.19-.81.16-1.44.91-1.45a1.77,1.77,0,0,1,1.6,1.44c.2.81-.15,1.45-.91,1.45A1.77,1.77,0,0,1,174.66,196.29Zm1.87,0c-.12-.51-.46-.89-.83-.89s-.52.37-.4.89.46.88.84.88S176.66,196.8,176.53,196.29Z" transform="translate(-29.86 -67.75)"/><path class="cls-6" d="M178.7,195.49l-.47.12-.25-.5.76-.24h.42l.68,2.8h-.61Z" transform="translate(-29.86 -67.75)"/><path class="cls-6" d="M180.89,196.28c-.19-.81.16-1.45.91-1.45a1.77,1.77,0,0,1,1.6,1.44c.2.81-.15,1.45-.91,1.45A1.77,1.77,0,0,1,180.89,196.28Zm1.87,0c-.12-.5-.46-.88-.83-.88s-.52.37-.4.89.46.88.84.88S182.89,196.79,182.76,196.27Z" transform="translate(-29.86 -67.75)"/><path class="cls-6" d="M184.64,196.27c-.2-.81.16-1.44.91-1.44a1.77,1.77,0,0,1,1.6,1.44c.19.81-.16,1.44-.91,1.44A1.75,1.75,0,0,1,184.64,196.27Zm1.87,0c-.12-.51-.47-.89-.84-.89s-.52.37-.39.89.46.89.83.89S186.63,196.78,186.51,196.27Z" transform="translate(-29.86 -67.75)"/><path class="cls-6" d="M188.39,196.27c-.2-.81.15-1.45.9-1.45a1.76,1.76,0,0,1,1.6,1.44c.2.81-.15,1.44-.91,1.44A1.73,1.73,0,0,1,188.39,196.27Zm1.86,0c-.12-.5-.46-.89-.83-.89s-.52.38-.4.89.46.89.84.89S190.38,196.78,190.25,196.26Z" transform="translate(-29.86 -67.75)"/><path class="cls-6" d="M192.13,196.26c-.19-.81.16-1.44.91-1.45a1.78,1.78,0,0,1,1.6,1.44c.19.81-.16,1.45-.91,1.45A1.76,1.76,0,0,1,192.13,196.26Zm1.87,0c-.12-.51-.47-.89-.84-.89s-.52.37-.39.89.46.89.83.88S194.12,196.77,194,196.26Z" transform="translate(-29.86 -67.75)"/><path class="cls-6" d="M195.88,196.25c-.2-.81.15-1.44.9-1.44a1.76,1.76,0,0,1,1.6,1.44c.2.81-.15,1.44-.91,1.44A1.74,1.74,0,0,1,195.88,196.25Zm1.87,0c-.13-.51-.47-.89-.84-.89s-.52.37-.4.89.46.89.84.89S197.87,196.76,197.75,196.25Z" transform="translate(-29.86 -67.75)"/><path class="cls-6" d="M199.62,196.25c-.19-.81.16-1.45.91-1.45a1.78,1.78,0,0,1,1.6,1.44c.19.81-.16,1.44-.91,1.45A1.77,1.77,0,0,1,199.62,196.25Zm1.87,0c-.12-.5-.46-.89-.83-.88s-.53.37-.4.89.46.88.83.88S201.62,196.76,201.49,196.24Z" transform="translate(-29.86 -67.75)"/><path class="cls-6" d="M203.65,195.45l-.46.12-.25-.51.75-.24h.43l.68,2.81h-.62Z" transform="translate(-29.86 -67.75)"/><path class="cls-6" d="M206.16,195.44l-.46.12-.25-.5.75-.24h.42l.68,2.81h-.61Z" transform="translate(-29.86 -67.75)"/><path class="cls-6" d="M208.36,196.23c-.2-.81.16-1.44.9-1.44a1.76,1.76,0,0,1,1.6,1.44c.2.81-.15,1.44-.91,1.44A1.75,1.75,0,0,1,208.36,196.23Zm1.87,0c-.13-.51-.47-.89-.84-.89s-.52.37-.4.89.46.89.84.89S210.35,196.74,210.23,196.23Z" transform="translate(-29.86 -67.75)"/><path class="cls-6" d="M170.43,202.56l-.46.12-.25-.51.75-.24h.42l.68,2.81H171Z" transform="translate(-29.86 -67.75)"/><path class="cls-6" d="M172.63,203.35c-.2-.81.15-1.45.9-1.45a1.76,1.76,0,0,1,1.6,1.44c.2.81-.15,1.44-.91,1.45A1.75,1.75,0,0,1,172.63,203.35Zm1.87,0c-.13-.5-.47-.89-.84-.88s-.52.37-.4.88.46.89.84.89S174.62,203.86,174.5,203.34Z" transform="translate(-29.86 -67.75)"/><path class="cls-6" d="M182.6,203.33c-.19-.81.16-1.44.91-1.45a1.78,1.78,0,0,1,1.6,1.44c.19.81-.16,1.45-.91,1.45A1.76,1.76,0,0,1,182.6,203.33Zm1.87,0c-.12-.51-.46-.89-.83-.89s-.53.37-.4.89.46.89.83.88S184.6,203.84,184.47,203.33Z" transform="translate(-29.86 -67.75)"/><path class="cls-6" d="M186.35,203.32c-.2-.81.16-1.44.9-1.44a1.76,1.76,0,0,1,1.6,1.44c.2.81-.15,1.44-.9,1.44A1.75,1.75,0,0,1,186.35,203.32Zm1.87,0c-.13-.51-.47-.89-.84-.89s-.52.37-.4.89.46.89.84.89S188.34,203.83,188.22,203.32Z" transform="translate(-29.86 -67.75)"/><path class="cls-6" d="M179.68,219c-.19-.81.16-1.44.91-1.44a1.76,1.76,0,0,1,1.6,1.44c.19.81-.16,1.44-.91,1.44A1.76,1.76,0,0,1,179.68,219Zm1.87,0c-.12-.51-.46-.89-.83-.89s-.53.37-.4.89.46.89.84.89S181.68,219.48,181.55,219Z" transform="translate(-29.86 -67.75)"/><path class="cls-6" d="M183.72,218.17l-.47.12-.25-.5.76-.24h.42l.68,2.81h-.61Z" transform="translate(-29.86 -67.75)"/><path class="cls-6" d="M173.74,218.19l-.46.12-.25-.5.75-.24h.42l.68,2.81h-.61Z" transform="translate(-29.86 -67.75)"/><path class="cls-6" d="M175.94,219c-.2-.81.16-1.44.91-1.44a1.74,1.74,0,0,1,1.59,1.44c.2.8-.15,1.44-.9,1.44A1.75,1.75,0,0,1,175.94,219Zm1.87,0c-.13-.51-.47-.89-.84-.89s-.52.37-.4.89.47.89.84.89S177.93,219.49,177.81,219Z" transform="translate(-29.86 -67.75)"/><path class="cls-10" d="M185.91,219c-.19-.81.16-1.44.91-1.44a1.76,1.76,0,0,1,1.6,1.44c.19.81-.16,1.44-.91,1.44A1.76,1.76,0,0,1,185.91,219Zm1.87,0c-.12-.51-.46-.89-.83-.89s-.52.37-.4.89.46.89.84.89S187.91,219.47,187.78,219Z" transform="translate(-29.86 -67.75)"/><path class="cls-10" d="M189.66,219c-.2-.81.16-1.45.91-1.45a1.76,1.76,0,0,1,1.59,1.44c.2.81-.15,1.45-.9,1.45A1.76,1.76,0,0,1,189.66,219Zm1.87,0c-.12-.5-.47-.88-.84-.88s-.52.37-.39.89.46.88.83.88S191.65,219.47,191.53,219Z" transform="translate(-29.86 -67.75)"/><path class="cls-6" d="M175.06,224c-.2-.81.15-1.44.9-1.44a1.76,1.76,0,0,1,1.6,1.44c.2.81-.15,1.44-.91,1.44A1.74,1.74,0,0,1,175.06,224Zm1.86,0c-.12-.51-.46-.89-.83-.89s-.52.37-.4.89.46.89.84.89S177.05,224.51,176.92,224Z" transform="translate(-29.86 -67.75)"/><path class="cls-6" d="M179.09,223.2l-.46.12-.25-.5.75-.24h.42l.68,2.81h-.61Z" transform="translate(-29.86 -67.75)"/><path class="cls-6" d="M181.29,224c-.2-.81.15-1.44.9-1.44a1.76,1.76,0,0,1,1.6,1.44c.2.81-.15,1.44-.91,1.44A1.74,1.74,0,0,1,181.29,224Zm1.87,0c-.13-.51-.47-.89-.84-.89s-.52.37-.4.89.46.89.84.89S183.28,224.5,183.16,224Z" transform="translate(-29.86 -67.75)"/><path class="cls-6" d="M185,224c-.19-.81.16-1.45.91-1.45a1.78,1.78,0,0,1,1.6,1.44c.19.81-.16,1.44-.91,1.45A1.77,1.77,0,0,1,185,224Zm1.87,0c-.12-.5-.46-.89-.83-.88s-.53.37-.4.88.46.89.83.89S187,224.5,186.9,224Z" transform="translate(-29.86 -67.75)"/><path class="cls-6" d="M190.09,203.32c-.19-.81.16-1.45.91-1.45a1.77,1.77,0,0,1,1.6,1.44c.19.81-.16,1.44-.91,1.45A1.77,1.77,0,0,1,190.09,203.32Zm1.87,0c-.12-.5-.46-.88-.83-.88s-.53.37-.4.89.46.88.83.88S192.09,203.83,192,203.31Z" transform="translate(-29.86 -67.75)"/><path class="cls-6" d="M193.84,203.31c-.2-.81.16-1.44.91-1.44a1.74,1.74,0,0,1,1.59,1.44c.2.8-.15,1.44-.9,1.44A1.75,1.75,0,0,1,193.84,203.31Zm1.87,0c-.13-.51-.47-.89-.84-.89s-.52.37-.4.89.47.89.84.89S195.83,203.82,195.71,203.31Z" transform="translate(-29.86 -67.75)"/><path class="cls-10" d="M184.44,237.17c-.2-.81.16-1.45.91-1.45a1.77,1.77,0,0,1,1.6,1.44c.19.81-.16,1.44-.91,1.45A1.77,1.77,0,0,1,184.44,237.17Zm1.87,0c-.12-.5-.47-.89-.84-.89s-.52.38-.39.89.46.89.83.89S186.43,237.68,186.31,237.16Z" transform="translate(-29.86 -67.75)"/><path class="cls-10" d="M188.47,236.37l-.46.12-.25-.51.75-.24h.43l.68,2.81H189Z" transform="translate(-29.86 -67.75)"/><path class="cls-6" d="M176.79,229.33l-.46.12-.25-.5.75-.24h.42l.68,2.81h-.61Z" transform="translate(-29.86 -67.75)"/><path class="cls-6" d="M179,230.12c-.2-.81.16-1.44.91-1.44a1.75,1.75,0,0,1,1.59,1.44c.2.8-.15,1.44-.9,1.44A1.75,1.75,0,0,1,179,230.12Zm1.87,0c-.13-.51-.47-.89-.84-.89s-.52.37-.4.89.46.89.84.89S181,230.63,180.86,230.12Z" transform="translate(-29.86 -67.75)"/><path class="cls-6" d="M182.73,230.11c-.19-.8.16-1.44.91-1.44a1.76,1.76,0,0,1,1.6,1.44c.19.81-.16,1.44-.91,1.44A1.75,1.75,0,0,1,182.73,230.11Zm1.87,0c-.12-.5-.46-.89-.83-.89s-.53.38-.4.89.46.89.83.89S184.73,230.62,184.6,230.11Z" transform="translate(-29.86 -67.75)"/><path class="cls-6" d="M186.77,229.31l-.47.12-.25-.5.75-.24h.43l.68,2.81h-.61Z" transform="translate(-29.86 -67.75)"/><path class="cls-6" d="M178.5,236.38l-.46.12-.26-.5.76-.24H179l.68,2.81H179Z" transform="translate(-29.86 -67.75)"/><path class="cls-6" d="M180.7,237.17c-.2-.81.15-1.44.9-1.44a1.76,1.76,0,0,1,1.6,1.44c.2.81-.15,1.44-.91,1.44A1.74,1.74,0,0,1,180.7,237.17Zm1.86,0c-.12-.51-.46-.89-.83-.89s-.52.37-.4.89.46.89.84.89S182.69,237.68,182.56,237.17Z" transform="translate(-29.86 -67.75)"/><path class="cls-6" d="M190.67,237.15c-.19-.8.16-1.44.91-1.44a1.77,1.77,0,0,1,1.6,1.44c.19.81-.16,1.44-.91,1.44A1.75,1.75,0,0,1,190.67,237.15Zm1.87,0c-.12-.5-.47-.89-.84-.89s-.52.38-.39.89.46.89.83.89S192.66,237.67,192.54,237.15Z" transform="translate(-29.86 -67.75)"/><path class="cls-6" d="M194.42,237.15c-.2-.81.15-1.44.9-1.45a1.77,1.77,0,0,1,1.6,1.44c.2.81-.15,1.45-.91,1.45A1.74,1.74,0,0,1,194.42,237.15Zm1.87,0c-.13-.51-.47-.89-.84-.89s-.52.37-.4.89.46.89.84.88S196.41,237.66,196.29,237.15Z" transform="translate(-29.86 -67.75)"/><path class="cls-10" d="M185.88,242.14c-.19-.81.16-1.44.91-1.44a1.76,1.76,0,0,1,1.6,1.44c.2.81-.15,1.44-.91,1.44A1.76,1.76,0,0,1,185.88,242.14Zm1.87,0c-.12-.51-.46-.89-.83-.89s-.52.37-.4.89.46.89.84.89S187.88,242.65,187.75,242.14Z" transform="translate(-29.86 -67.75)"/><path class="cls-10" d="M189.92,241.34l-.46.12-.26-.5.76-.24h.42l.68,2.81h-.61Z" transform="translate(-29.86 -67.75)"/><path class="cls-6" d="M182.14,242.15c-.2-.81.16-1.44.91-1.44a1.74,1.74,0,0,1,1.59,1.44c.2.8-.15,1.44-.9,1.44A1.75,1.75,0,0,1,182.14,242.15Zm1.87,0c-.12-.51-.47-.89-.84-.89s-.52.37-.39.89.46.89.83.89S184.13,242.66,184,242.15Z" transform="translate(-29.86 -67.75)"/><path class="cls-6" d="M192.12,242.13c-.2-.81.15-1.44.9-1.44a1.76,1.76,0,0,1,1.6,1.44c.2.81-.15,1.44-.91,1.44A1.74,1.74,0,0,1,192.12,242.13Zm1.86,0c-.12-.51-.46-.89-.83-.89s-.52.37-.4.89.46.89.84.89S194.11,242.64,194,242.13Z" transform="translate(-29.86 -67.75)"/><path class="cls-6" d="M195.86,242.13c-.2-.81.16-1.45.91-1.45a1.78,1.78,0,0,1,1.6,1.44c.19.81-.16,1.45-.91,1.45A1.77,1.77,0,0,1,195.86,242.13Zm1.87,0c-.12-.5-.47-.88-.84-.88s-.52.37-.39.89.46.88.83.88S197.85,242.64,197.73,242.12Z" transform="translate(-29.86 -67.75)"/><path class="cls-6" d="M198.16,237.14c-.19-.81.16-1.44.91-1.44a1.77,1.77,0,0,1,1.6,1.44c.19.81-.16,1.44-.91,1.44A1.76,1.76,0,0,1,198.16,237.14Zm1.87,0c-.12-.51-.46-.89-.83-.89s-.53.37-.4.89.46.89.83.89S200.15,237.65,200,237.14Z" transform="translate(-29.86 -67.75)"/><path class="cls-6" d="M201.91,237.14c-.2-.81.16-1.45.9-1.45a1.77,1.77,0,0,1,1.6,1.44c.2.81-.15,1.44-.91,1.45A1.76,1.76,0,0,1,201.91,237.14Zm1.87,0c-.13-.5-.47-.89-.84-.88s-.52.37-.4.88.46.89.84.89S203.9,237.65,203.78,237.13Z" transform="translate(-29.86 -67.75)"/><path class="cls-6" d="M301.46,188.72l-.46.12-.25-.51.75-.24h.43l.68,2.81H302Z" transform="translate(-29.86 -67.75)"/><path class="cls-6" d="M303.66,189.5c-.19-.8.16-1.44.91-1.44a1.77,1.77,0,0,1,1.6,1.44c.19.81-.16,1.44-.91,1.44A1.75,1.75,0,0,1,303.66,189.5Zm1.87,0c-.12-.5-.46-.89-.84-.89s-.52.38-.39.89.46.89.83.89S305.65,190,305.53,189.5Z" transform="translate(-29.86 -67.75)"/><path class="cls-6" d="M307.41,189.5c-.2-.81.16-1.44.9-1.45a1.77,1.77,0,0,1,1.6,1.44c.2.81-.15,1.45-.91,1.45A1.75,1.75,0,0,1,307.41,189.5Zm1.87,0c-.13-.51-.47-.89-.84-.89s-.52.37-.4.89.46.88.84.88S309.4,190,309.28,189.5Z" transform="translate(-29.86 -67.75)"/><path class="cls-6" d="M311.15,189.49c-.19-.81.16-1.44.91-1.44a1.77,1.77,0,0,1,1.6,1.44c.19.81-.16,1.44-.91,1.44A1.76,1.76,0,0,1,311.15,189.49Zm1.87,0c-.12-.51-.46-.89-.83-.89s-.53.37-.4.89.46.89.83.89S313.15,190,313,189.49Z" transform="translate(-29.86 -67.75)"/><path class="cls-6" d="M315.19,188.69l-.47.12-.25-.5.75-.24h.43l.68,2.81h-.62Z" transform="translate(-29.86 -67.75)"/><path class="cls-6" d="M297.43,196.24c-.19-.81.16-1.44.91-1.44a1.76,1.76,0,0,1,1.6,1.44c.19.8-.16,1.44-.91,1.44A1.76,1.76,0,0,1,297.43,196.24Zm1.87,0c-.12-.51-.46-.89-.84-.89s-.52.37-.39.89.46.89.83.89S299.42,196.75,299.3,196.24Z" transform="translate(-29.86 -67.75)"/><path class="cls-6" d="M301.46,195.44l-.46.12-.25-.5.75-.24h.43l.68,2.81H302Z" transform="translate(-29.86 -67.75)"/><path class="cls-10" d="M303.66,196.23c-.19-.81.16-1.44.91-1.44a1.76,1.76,0,0,1,1.6,1.44c.19.8-.16,1.44-.91,1.44A1.76,1.76,0,0,1,303.66,196.23Zm1.87,0c-.12-.51-.46-.89-.84-.89s-.52.37-.39.89.46.89.83.89S305.65,196.74,305.53,196.23Z" transform="translate(-29.86 -67.75)"/><path class="cls-10" d="M307.41,196.22c-.2-.81.16-1.44.9-1.44a1.76,1.76,0,0,1,1.6,1.44c.2.81-.15,1.44-.91,1.44A1.74,1.74,0,0,1,307.41,196.22Zm1.87,0c-.13-.51-.47-.89-.84-.89s-.52.37-.4.89.46.89.84.89S309.4,196.73,309.28,196.22Z" transform="translate(-29.86 -67.75)"/><path class="cls-10" d="M311.15,196.22c-.19-.81.16-1.45.91-1.45a1.78,1.78,0,0,1,1.6,1.44c.19.81-.16,1.45-.91,1.45A1.77,1.77,0,0,1,311.15,196.22Zm1.87,0c-.12-.5-.46-.88-.83-.88s-.53.37-.4.89.46.88.83.88S313.15,196.73,313,196.21Z" transform="translate(-29.86 -67.75)"/><path class="cls-10" d="M315.19,195.42l-.47.12-.25-.5.75-.24h.43l.68,2.81h-.62Z" transform="translate(-29.86 -67.75)"/><path class="cls-6" d="M314.42,234.27l-.46.12-.25-.5.75-.24h.43l.68,2.81H315Z" transform="translate(-29.86 -67.75)"/><path class="cls-6" d="M316.62,235.06c-.19-.81.16-1.44.91-1.44a1.77,1.77,0,0,1,1.6,1.44c.19.81-.16,1.44-.91,1.44A1.76,1.76,0,0,1,316.62,235.06Zm1.87,0c-.12-.51-.46-.89-.84-.89s-.52.37-.39.89.46.89.83.89S318.61,235.57,318.49,235.06Z" transform="translate(-29.86 -67.75)"/><path class="cls-6" d="M320.37,235.06c-.2-.81.16-1.45.9-1.45a1.77,1.77,0,0,1,1.6,1.44c.2.81-.15,1.44-.91,1.45A1.75,1.75,0,0,1,320.37,235.06Zm1.87,0c-.13-.5-.47-.88-.84-.88s-.52.37-.4.89.46.88.84.88S322.36,235.57,322.24,235.05Z" transform="translate(-29.86 -67.75)"/><path class="cls-6" d="M310.74,238.84l-.46.12-.25-.5.75-.24h.43l.68,2.81h-.62Z" transform="translate(-29.86 -67.75)"/><path class="cls-6" d="M312.94,239.63c-.19-.81.16-1.44.91-1.44a1.77,1.77,0,0,1,1.6,1.44c.19.81-.16,1.44-.91,1.44A1.76,1.76,0,0,1,312.94,239.63Zm1.87,0c-.12-.51-.46-.89-.84-.89s-.52.37-.39.89.46.89.83.89S314.93,240.14,314.81,239.63Z" transform="translate(-29.86 -67.75)"/><path class="cls-6" d="M316.69,239.63c-.2-.81.16-1.45.9-1.45a1.77,1.77,0,0,1,1.6,1.44c.2.81-.15,1.45-.91,1.45A1.75,1.75,0,0,1,316.69,239.63Zm1.87,0c-.13-.5-.47-.88-.84-.88s-.52.37-.4.89.46.88.84.88S318.68,240.14,318.56,239.62Z" transform="translate(-29.86 -67.75)"/><path class="cls-6" d="M324.11,235.05c-.19-.81.16-1.44.91-1.44a1.76,1.76,0,0,1,1.6,1.44c.19.8-.16,1.44-.91,1.44A1.76,1.76,0,0,1,324.11,235.05Zm1.87,0c-.12-.51-.46-.89-.83-.89s-.53.37-.4.89.46.89.83.89S326.11,235.56,326,235.05Z" transform="translate(-29.86 -67.75)"/><path class="cls-6" d="M328.15,234.25l-.47.12-.25-.5.75-.24h.43l.68,2.81h-.62Z" transform="translate(-29.86 -67.75)"/><path class="cls-19" d="M378.65,202.62a7.71,7.71,0,0,1,6.68,3.1c2.09,2.85.64,6.21,5.87,8.8s4.47,5.86,3.42,10-5.42,9.05-10.64,8.81-14.16-11-13.84-14.6,1.88-4,.65-6.42C368.86,208.53,372.43,203.21,378.65,202.62Z" transform="translate(-29.86 -67.75)"/><path class="cls-13" d="M380.69,219.73a.25.25,0,0,1,0-.06c-.58-.21-.63-1-.1-4.57h-.27l-4.67.22s-.11,1.45-.3,2.79c0,.27-.08.53-.13.78C371.75,222.39,379.3,224,380.69,219.73Z" transform="translate(-29.86 -67.75)"/><path class="cls-20" d="M371.16,314.34h10.07a5.58,5.58,0,0,0-.28-2.7c-.51-1.12-1.29-1.81-1.36-2.67a3,3,0,0,1-2.89.89,10.74,10.74,0,0,1-1.75,2.26C374.3,312.6,371.36,312.43,371.16,314.34Z" transform="translate(-29.86 -67.75)"/><path class="cls-15" d="M383,273.16c-.94,2.31-1.66,4.42-1.43,6.27h0a6,6,0,0,0,.11.61c3.31,13.22-1.38,30.43-1.38,30.43a19.19,19.19,0,0,1-2.13.37c-1.59.14-1.82-.33-1.82-.33s-1.58-14-6.68-40.87a72.89,72.89,0,0,1-1.29-9.47c-.08-1-.16-2.18-.25-3.52-.23-3.62.32-9.7,3-11.3,1.24-.73,2.92-.53,5.18,1.25.18.14.35.31.55.45C390.75,257.05,385.85,266.09,383,273.16Z" transform="translate(-29.86 -67.75)"/><path class="cls-16" d="M381.55,279.43c-.16-.54-5.15-18-5.23-19.31-.19-2.85,6.41,5,6.66,13C382,275.47,381.32,277.58,381.55,279.43Z" transform="translate(-29.86 -67.75)"/><path class="cls-20" d="M416.87,293.14,412.68,284a5.43,5.43,0,0,0-2.34,1.38c-.8.92-1.39.76-3.22-.52a10.2,10.2,0,0,1,1.21,3.11c.34,0,2.26,1.9,4.22,2.41C413.34,290.56,415.05,293.74,416.87,293.14Z" transform="translate(-29.86 -67.75)"/><path class="cls-15" d="M372.91,249.38s9,31.38,12.34,33.4,19.66,6,24.49,7a9.41,9.41,0,0,0-.08-2.62,11.69,11.69,0,0,0-.56-1.35s-8.58-8.59-17-9.8c-1.75-.25.71-27.69-11.21-28.76C370,246.26,372.91,249.38,372.91,249.38Z" transform="translate(-29.86 -67.75)"/><path class="cls-13" d="M359.53,200s.2-1,.43-1.77a5.59,5.59,0,0,0-1.08-2.85c-.49-.27-1.75,1.23-1.39,2.39.18.59.48,2.52.48,2.52Z" transform="translate(-29.86 -67.75)"/><path class="cls-13" d="M401.21,201.86a5.11,5.11,0,0,1,.23.57v-.17c0-.43,1.6-2.75,2.25-2.9s1.58,2,.76,3.23c-.42.62-1.69,2.82-1.69,2.82l-1.4-.85a2,2,0,0,0-.39-1.07,7.27,7.27,0,0,1-.26-1.88S401,201.39,401.21,201.86Z" transform="translate(-29.86 -67.75)"/><path class="cls-21" d="M375.69,215.33s-.11,1.45-.3,2.79c2.54.3,4.23-1.81,5-3Z" transform="translate(-29.86 -67.75)"/><path class="cls-19" d="M381.23,214.52a14.64,14.64,0,0,0,2.42-4c.45-1.36.51-6.62-4.78-6.65a7.24,7.24,0,0,0-3.09.67c-1.24.59-3.11,2-2,6.77l.25,1.59Z" transform="translate(-29.86 -67.75)"/><path class="cls-13" d="M374.45,216.47s6.5,1.08,7.11-3,1.85-6.65-2.27-7.51-5.16.57-5.69,1.87S372.78,216.09,374.45,216.47Z" transform="translate(-29.86 -67.75)"/><path class="cls-19" d="M375.69,205.41s1.72,5.05,4.36,6.17,3.93.55,3.93.55a7.81,7.81,0,0,1-1.86-5S377.37,203.35,375.69,205.41Z" transform="translate(-29.86 -67.75)"/><path class="cls-19" d="M376.72,205.89a5,5,0,0,0-2.26,1.6,8.36,8.36,0,0,0-1.26,3.18s-.86-3.44.92-5S376.72,205.89,376.72,205.89Z" transform="translate(-29.86 -67.75)"/><path class="cls-3" d="M403,205.43s-1.42,11.66-4.43,14.44c-2.09,1.94-9.48,5.06-11.25,7.93a9.25,9.25,0,0,0-.67,2.76,48.59,48.59,0,0,0,2,20.76c.13.39.27.77.41,1.16a2,2,0,0,1-1.16,2.52,32.79,32.79,0,0,1-5.44,1.42c-.43.08-.87.14-1.32.2a21.49,21.49,0,0,1-12.53-1.75,2.83,2.83,0,0,1-1.56-2.69c.13-2.3,1.28-4.57,1.8-10.1.39-4.2-2.47-10.12-2.32-12.35.06-.88.5-4.8.06-5.41-2.95-4-7.91-7.93-8.68-11.63-.87-4.26-.31-12.77-.31-12.77a4.76,4.76,0,0,1,1.38-.35,2,2,0,0,1,1.43.77s2.21,8.29,2.32,8.85c.59,3,6.24,7.28,8,8.14a13.4,13.4,0,0,0,4.55,1.57s-1.39,2.41.67,2.74c2.48.4,4.4-2.45,4.4-2.45a11.22,11.22,0,0,0,4.23,0c2.25-.33,10.27-3,11.43-5.1.84-1.5,5.3-9.8,5.3-9.8a1.15,1.15,0,0,1,1.08.11A1.21,1.21,0,0,1,403,205.43Z" transform="translate(-29.86 -67.75)"/><path class="cls-14" d="M376.34,214.27s-.28.56-.65.57a4.28,4.28,0,0,1-1.39-.18,4.69,4.69,0,0,1-.22-.68A6.34,6.34,0,0,1,376.34,214.27Z" transform="translate(-29.86 -67.75)"/><path class="cls-6" d="M388.67,251.32s-5.57-.95-5.94-4.92c-.4-4.23,3.93-15.85,3.93-15.85h0A48.59,48.59,0,0,0,388.67,251.32Z" transform="translate(-29.86 -67.75)"/><path class="cls-10" d="M375.08,153.63l-.58-2.13a5.82,5.82,0,0,0-4.93-4.25l-15.16-1.79-1.14,9.62-4.85,41.07,62.72,7.41L416,162.49,380.5,158.3A6.41,6.41,0,0,1,375.08,153.63Z" transform="translate(-29.86 -67.75)"/><path class="cls-14" d="M360.23,177.4l.43-3.65,13.48-4.1-.44,3.73L364.31,176l8.52,4.73-.45,3.79Z" transform="translate(-29.86 -67.75)"/><path class="cls-14" d="M388,166.85l3.41.41-14.63,23.13-3.41-.4Z" transform="translate(-29.86 -67.75)"/><path class="cls-14" d="M404.46,178.92l-.43,3.66-13.48,4.1.44-3.74,9.38-2.62-8.51-4.74.44-3.78Z" transform="translate(-29.86 -67.75)"/><path class="cls-13" d="M400.86,203.18a12.06,12.06,0,0,0-.34-1.92c-.16-.3.24-.38.58.31s1,.48,1.37,1.16,0,.86-.39.82A6.11,6.11,0,0,1,400.86,203.18Z" transform="translate(-29.86 -67.75)"/><path class="cls-13" d="M359.65,199.47s.92-1,.91-1.44.64-1.55.46-1.75-.5.12-.67.42-.87.29-1,1.11A2.66,2.66,0,0,0,359.65,199.47Z" transform="translate(-29.86 -67.75)"/><polygon class="cls-12" points="184.18 126.61 207.99 137.04 207.99 127.76 195.59 122.66 207.99 117.56 207.99 108.36 184.18 118.79 184.18 126.61"/><polygon class="cls-12" points="229.89 101.93 209.31 144.95 218.01 144.95 238.59 101.93 229.89 101.93"/><polygon class="cls-12" points="240.18 108.36 240.18 117.64 252.59 122.75 240.18 127.85 240.18 137.04 263.99 126.61 263.99 118.79 240.18 108.36"/><rect class="cls-12" x="209.31" y="142.49" width="8.7" height="2.46"/><rect class="cls-12" x="234.52" y="99.48" width="4.06" height="2.46"/><polygon class="cls-22" points="184.18 124.16 207.99 134.59 207.99 125.3 195.59 120.2 207.99 115.1 207.99 105.9 184.18 116.34 184.18 124.16"/><polygon class="cls-22" points="229.89 99.48 209.31 142.49 218.01 142.49 238.59 99.48 229.89 99.48"/><polygon class="cls-22" points="240.18 105.9 240.18 115.19 252.59 120.29 240.18 125.39 240.18 134.59 263.99 124.16 263.99 116.34 240.18 105.9"/><polygon class="cls-6" points="317.74 192.6 316.29 192.6 304.42 147.3 289.16 89.08 118.74 89.08 144.56 192.6 142.71 192.62 116.59 87.67 290.36 87.52 290.51 88.1 305.76 146.64 317.74 192.6"/><polygon class="cls-3" points="318 193.61 316.6 193.8 304.42 147.3 305.76 146.64 318 193.61"/><path class="cls-13" d="M173,181.22a1.11,1.11,0,0,0-.2,1.2h0a7.52,7.52,0,0,0,2.37,2.6l.38.32.09.07.06.06c1,1,.65,1.18,2.52,3.13,2.14,2.23,3.61,2.27,4,2.06s-.37-1.35-1.16-2.67l-.12-.19-.32-.54c-.93-1.59-.69-2.34-.47-4.71.18-1.93,3-10.77,3-10.77l-4.09-.7s-1.23,7-2.59,8.12c-.73.58-1.54.59-2.24,1l-.14.1A5.09,5.09,0,0,0,173,181.22Z" transform="translate(-29.86 -67.75)"/><path class="cls-16" d="M173,181.22a1.11,1.11,0,0,0-.2,1.2h0a8.7,8.7,0,0,0,2.37,2.59c.15.12.27.23.38.33l.09.07.06.06c1,1,.65,1.18,2.52,3.13,2.14,2.23,3.61,2.27,4,2.06s-.37-1.35-1.16-2.67a9.07,9.07,0,0,1-3.81-2.81c-1.28-1.64-2.14-3.74-3-5l-.14.1A5.09,5.09,0,0,0,173,181.22Z" transform="translate(-29.86 -67.75)"/><path class="cls-13" d="M206,178.66c.25,1.26,2.05,1.05,4.06.56s1.54.09,4.4-.22,3.73-1.39,3.82-1.81-1.34-.51-2.86-.69l-.57-.07c-1.71-.21-3-1.32-4.52-2.22s-3.68-4.37-3.68-4.37l-3.92.31s2.06,3.13,2.85,4.49a4.73,4.73,0,0,1,.39,2.68A5,5,0,0,0,206,178.66Z" transform="translate(-29.86 -67.75)"/><path class="cls-16" d="M210,179.22c2-.49,1.54.09,4.4-.22s3.73-1.39,3.82-1.81-1.34-.51-2.86-.69v0a8.09,8.09,0,0,1-4.1,1.28c-1.94,0-4-.51-5.34-.49a5,5,0,0,0,0,1.34C206.2,179.92,208,179.71,210,179.22Z" transform="translate(-29.86 -67.75)"/><path class="cls-12" d="M190.9,153.56l-3.66,9.87-4.8,12.9a8,8,0,0,1-2.54-.23,11.3,11.3,0,0,1-2.46-1.2s1.33-13.85,3.81-21.79a14.41,14.41,0,0,1,2.13-4.62C187.23,143.94,190.9,153.56,190.9,153.56Z" transform="translate(-29.86 -67.75)"/><path class="cls-15" d="M187.17,137.88c-2.4-.78-9.26.22-16.15,1.57l-1.44-2.38L154.7,135.9s-4.91,10.89-2.22,17.83a2.51,2.51,0,0,0,2.52,1.69H167c7.4,0,15.66-5.09,16.73-5.3,1.74-.35,2.44,3.15,4.19,6.82s16.44,16.27,16.44,16.27a13,13,0,0,0,3.19-.33,3.1,3.1,0,0,0,1.37-.87S192.6,139.63,187.17,137.88Z" transform="translate(-29.86 -67.75)"/><path class="cls-22" d="M164.65,91.77a15.71,15.71,0,0,0-5.41,0c-5.66.56-7.56,6.87-6.71,11.77.8,4.52-1.5,5.77-4.16,9.34-5.33,7.16-1.84,13.2,2.36,14.76,2.53.93,6-1.42,6-1.42s11-7.17,15.49-11.23C179.72,112.12,170,93.14,164.65,91.77Z" transform="translate(-29.86 -67.75)"/><path class="cls-13" d="M165.49,112.49c.15.52-2.33,1.48-4.22,1.13s-3.77-2.42-3.36-2.61c.68-.32,1.14-1.13.77-5.48l.33,0,5.69.65s0,1.77.15,3.43A11.36,11.36,0,0,0,165.49,112.49Z" transform="translate(-29.86 -67.75)"/><path class="cls-21" d="M164.7,106.22s0,1.77.15,3.43c-3.14.17-5-2.55-5.84-4.08Z" transform="translate(-29.86 -67.75)"/><path class="cls-13" d="M165.88,107.71s-7.4.73-7.79-3.89-1.59-7.63,3.12-8.29,5.77,1,6.27,2.53S167.8,107.4,165.88,107.71Z" transform="translate(-29.86 -67.75)"/><path class="cls-22" d="M165.09,94.8s-.94,5.64-5.15,7c-3.08,1-4.47.33-4.47.33a12.55,12.55,0,0,0,2-4.69,2.25,2.25,0,0,1,1.5-1.73C161.17,95,163.82,93,165.09,94.8Z" transform="translate(-29.86 -67.75)"/><path class="cls-22" d="M163.69,96a4.87,4.87,0,0,1,2.63,2.11,9.48,9.48,0,0,1,1.33,4.56s1.29-5.22-.6-7.16S163.69,96,163.69,96Z" transform="translate(-29.86 -67.75)"/><path class="cls-10" d="M152.16,127.65c.13.56.24,1.08.34,1.55.15.77.25,1.43.32,2,.23,1.82.16,2.9.31,4.08a10.14,10.14,0,0,0,.56,2.22c.3.84,8.35,1.6,12.92,1.29a6.24,6.24,0,0,0,3-.63c1.63-1.42,1.47,1.7,1.69-13.23.11-7.27-6.17-13.76-6.17-13.76s-.51,3.11-6.74-.59c-.22-.13-2.67,3.51-5,8C150.71,123.53,151.42,124.57,152.16,127.65Z" transform="translate(-29.86 -67.75)"/><path class="cls-22" d="M187.24,163.43l-4.8,12.9a8,8,0,0,1-2.54-.23,11.3,11.3,0,0,1-2.46-1.2s1.33-13.85,3.81-21.79Z" transform="translate(-29.86 -67.75)"/><path class="cls-10" d="M165.09,111.19s6.41,1.09,7.16,3.85,6,18.2,6,18.2-4,1.38-5.54-.13-5.24-14-5.24-14Z" transform="translate(-29.86 -67.75)"/><path class="cls-13" d="M191.23,129.7l1.52-.61a3.58,3.58,0,0,1,1.41,0c.49.15,1.72.13,1.73.34s-1.41.83-1.41.83l0,0c.54,1.22,3.22,1.91,3.35,2.36s-1.09.82-1.77,1a3.74,3.74,0,0,1-3.17-.72c-.6-.63-1.62-1.5-1.62-1.5Z" transform="translate(-29.86 -67.75)"/><path class="cls-14" d="M164.17,105a1.27,1.27,0,0,0,1.13.76c.82,0,1-.12,1.2-.29a3.14,3.14,0,0,0,.31-.51A7,7,0,0,0,164.17,105Z" transform="translate(-29.86 -67.75)"/><path class="cls-10" d="M176.42,127.91,192,129.09a4.88,4.88,0,0,1-.68,3.22s-14,2.73-17.66,1.34-3.25-8-3.25-8Z" transform="translate(-29.86 -67.75)"/><path class="cls-9" d="M152.82,131.22c.23,1.82.16,2.9.31,4.08,5.83,0,13.61-4.5,13.61-4.5Z" transform="translate(-29.86 -67.75)"/><path class="cls-9" d="M166.74,127s-9.07-.27-10.6-5.42c-1.68-5.67-3.56,2.33-3.56,2.33l1,5.1h9.95Z" transform="translate(-29.86 -67.75)"/><path class="cls-3" d="M182.56,113l-.49-1.21a3.46,3.46,0,0,0-3.2-2.16h-9v30.24h37.41v-24.5H186.07A3.77,3.77,0,0,1,182.56,113Z" transform="translate(-29.86 -67.75)"/><path class="cls-14" d="M175.47,128v-2.18l7.65-3.35v2.23l-5.34,2.19,5.34,2.2v2.26Z" transform="translate(-29.86 -67.75)"/><path class="cls-14" d="M191.06,119.88h2l-7,14.62h-2Z" transform="translate(-29.86 -67.75)"/><path class="cls-14" d="M201.6,125.83V128L194,131.36v-2.23l5.34-2.19-5.34-2.2v-2.26Z" transform="translate(-29.86 -67.75)"/><path class="cls-13" d="M166.74,128.18l.66-1a5.35,5.35,0,0,0,1.25-.68c.86-.61.75-1.52,1.18-1.43v2h-.05c1.86.5,4,0,4.07.42.12,1.28-.86,1.85-1.69,2.25a3,3,0,0,1-2.49.41c-.83-.26-2.14-.53-2.14-.53Z" transform="translate(-29.86 -67.75)"/><path class="cls-10" d="M158.35,110.6s-5.89.39-7.36,2.69-3.3,13.95-2.53,18,19.62-.77,19.62-.77l-.6-3.47s-10.88.06-11.5-1.36C155.15,123.77,158.35,110.6,158.35,110.6Z" transform="translate(-29.86 -67.75)"/><path class="cls-13" d="M186.78,115.35a2.19,2.19,0,0,0,2.22,1.43c.83-.17,1.92-2,1-2.36A2.69,2.69,0,0,0,186.78,115.35Z" transform="translate(-29.86 -67.75)"/></svg>